<mxfile host="Electron" agent="Mozilla/5.0 (Windows NT 10.0; Win64; x64) AppleWebKit/537.36 (KHTML, like Gecko) draw.io/26.0.16 Chrome/132.0.6834.196 Electron/34.2.0 Safari/537.36" version="26.0.16">
  <diagram name="as-is" id="-FQbQIRzEgXYEJ3rUFKh">
    <mxGraphModel dx="5031" dy="3396" grid="1" gridSize="10" guides="1" tooltips="1" connect="1" arrows="1" fold="1" page="0" pageScale="1" pageWidth="827" pageHeight="1169" math="0" shadow="0">
      <root>
        <mxCell id="0" />
        <mxCell id="1" parent="0" />
        <mxCell id="2ktrdMOb3Cd3oE9HsooV-46" value="&lt;div style=&quot;font-size: 1px&quot;&gt;&lt;font style=&quot;font-size:22.58px;font-family:Arial;color:#000000;direction:ltr;letter-spacing:0px;line-height:120%;opacity:1&quot;&gt;GLSB&lt;br&gt;&lt;/font&gt;&lt;/div&gt;" style="verticalAlign=middle;align=center;overflow=width;vsdxID=5;fillColor=#e3ebff;gradientColor=none;shape=stencil(vVNBDsIgEHwNRwxCjHqu+g9iaUtEaBa09fdSwdpi9dBDb8vOwOwsGcQyW/FaIEqsA3MRjcxdhdgBUSp1JUA6XyF2RCwrDIgSzE3n4VzzjtlVV3PvXmjDPdLdoOQRTrvtavNqnAKXw9mDELkBIhDJaxrJZIy/YRLfbjFvpcVgHHfS6JGu4lAK7GVwoXg5gmwjRP3VjoMpqQcm9tPKs0z0Y6crWcBHqt0PN8tJspXFfmNKdpaBH8tYwML/VPjiE6dCKhXSOMTT+PlWiC47PgE=);strokeColor=none;spacingTop=-3;spacingBottom=-3;spacingLeft=-3;spacingRight=-3;points=[];labelBackgroundColor=none;rounded=0;html=1;whiteSpace=wrap;fontFamily=Helvetica;fontSize=12;fontColor=default;" vertex="1" parent="1">
          <mxGeometry x="1230" y="-117" width="211" height="84" as="geometry" />
        </mxCell>
        <mxCell id="Zcm5tQwCMB2YyKj0-IPv-7" value="&lt;div style=&quot;font-size: 1px&quot;&gt;&lt;font style=&quot;font-size:22.58px;font-family:Arial;color:#000000;direction:ltr;letter-spacing:0px;line-height:120%;opacity:1&quot;&gt;Зона доступности 1&lt;br&gt;&lt;/font&gt;&lt;/div&gt;" style="verticalAlign=bottom;align=center;overflow=width;vsdxID=5;fillColor=#e3ebff;gradientColor=none;shape=stencil(vVNBDsIgEHwNRwxCjHqu+g9iaUtEaBa09fdSwdpi9dBDb8vOwOwsGcQyW/FaIEqsA3MRjcxdhdgBUSp1JUA6XyF2RCwrDIgSzE3n4VzzjtlVV3PvXmjDPdLdoOQRTrvtavNqnAKXw9mDELkBIhDJaxrJZIy/YRLfbjFvpcVgHHfS6JGu4lAK7GVwoXg5gmwjRP3VjoMpqQcm9tPKs0z0Y6crWcBHqt0PN8tJspXFfmNKdpaBH8tYwML/VPjiE6dCKhXSOMTT+PlWiC47PgE=);strokeColor=none;spacingTop=-3;spacingBottom=-3;spacingLeft=-3;spacingRight=-3;points=[];labelBackgroundColor=none;rounded=0;html=1;whiteSpace=wrap;container=0;" parent="1" vertex="1">
          <mxGeometry x="160" y="360" width="390.22" height="760" as="geometry" />
        </mxCell>
        <mxCell id="Zcm5tQwCMB2YyKj0-IPv-33" style="edgeStyle=orthogonalEdgeStyle;rounded=0;orthogonalLoop=1;jettySize=auto;html=1;exitX=0.501;exitY=1.005;exitDx=0;exitDy=0;exitPerimeter=0;entryX=0.504;entryY=0.04;entryDx=0;entryDy=0;entryPerimeter=0;" parent="1" source="Zcm5tQwCMB2YyKj0-IPv-15" target="2ktrdMOb3Cd3oE9HsooV-140" edge="1">
          <mxGeometry relative="1" as="geometry">
            <mxPoint x="610" y="540" as="targetPoint" />
          </mxGeometry>
        </mxCell>
        <mxCell id="Zcm5tQwCMB2YyKj0-IPv-34" value="TCP" style="edgeLabel;html=1;align=center;verticalAlign=middle;resizable=0;points=[];container=0;" parent="Zcm5tQwCMB2YyKj0-IPv-33" vertex="1" connectable="0">
          <mxGeometry x="-0.0566" y="2" relative="1" as="geometry">
            <mxPoint as="offset" />
          </mxGeometry>
        </mxCell>
        <mxCell id="Zcm5tQwCMB2YyKj0-IPv-14" value="" style="shape=image;verticalLabelPosition=bottom;verticalAlign=top;imageAspect=0;aspect=fixed;image=data:image/svg+xml,PHN2ZyB4bWxucz0iaHR0cDovL3d3dy53My5vcmcvMjAwMC9zdmciIHdpZHRoPSIzMiIgaGVpZ2h0PSIzMiIgdmlld0JveD0iMCAwIDMyIDMyIiBmaWxsPSJub25lIj4mI3hhOzxwYXRoIGQ9Ik0wIDE2QzAgNy4xNjM0NCA3LjE2MzQ0IDAgMTYgMFYwQzI0LjgzNjYgMCAzMiA3LjE2MzQ0IDMyIDE2VjE2QzMyIDI0LjgzNjYgMjQuODM2NiAzMiAxNiAzMlYzMkM3LjE2MzQ0IDMyIDAgMjQuODM2NiAwIDE2VjE2WiIgZmlsbD0iIzUyODJGRiIvPiYjeGE7PHBhdGggZD0iTTExLjk5NSAyNEw3LjAwMDk4IDE3LjczOEw4Ljc4MTk4IDkuOTI3TDE2IDYuNDUzTDIzLjIxOCA5LjkyOEwyNC45OTkgMTcuNzM5TDIwLjAwNSAyNEgxMS45OTVaTTIwIDEzLjE5NkwxNS45OTkgMTAuODk5TDEyIDEzLjE5NlYxOC4xTDE2IDIwLjQwMUwyMCAxOC4xVjEzLjE5NlpNMTguNzggMTMuODk2SDE4Ljc4N0wxNiAxNS40OTlMMTMuMjE0IDEzLjg5NUgxMy4yMTlMMTUuOTk5IDEyLjI5OUwxOC43OCAxMy44OTZaIiBmaWxsPSJ3aGl0ZSIvPiYjeGE7PC9zdmc+;container=0;" parent="1" vertex="1">
          <mxGeometry x="425" y="430" width="28.571428571428573" height="28.571428571428573" as="geometry" />
        </mxCell>
        <mxCell id="Zcm5tQwCMB2YyKj0-IPv-15" style="vsdxID=5;fillColor=none;gradientColor=none;shape=stencil(vVPLEoIgFP0aljgEVuPa6j+YRGUica6U9vdhUKk4LWzG3X0cOPdcOIilTclrgShpDOiLaGVmSsQOiFJZlQKksRFiR8TSXIMoQN+qzOU175F9dNX3/obOnSP9CUoeLktIFL8KJ4flcLZN8NhtRJiDwxsf7VwhQHjAhniCDvNONhi04UbqakSuOBQCWy6cK16MWk0rRB2U/XRKVgMlSRwl+1nyhWI+s0+Xs4KYgNvPtlBKuJvVniX4En+9yfxWVpDx2yc2+Bosl0o5fw77U0PakjMzOz4B);strokeColor=#ff5958;spacingTop=-3;spacingBottom=-3;spacingLeft=-3;spacingRight=-3;points=[];labelBackgroundColor=none;rounded=0;html=1;whiteSpace=wrap;container=0;" parent="1" vertex="1">
          <mxGeometry x="360" y="420" width="130" height="100" as="geometry" />
        </mxCell>
        <mxCell id="Zcm5tQwCMB2YyKj0-IPv-16" value="&lt;div style=&quot;font-size: 1px&quot;&gt;&lt;font style=&quot;font-size:22.58px;font-family:Arial;color:#000000;direction:ltr;letter-spacing:0px;line-height:120%;opacity:1&quot;&gt;InsureTech&lt;/font&gt;&lt;/div&gt;&lt;div style=&quot;font-size: 1px&quot;&gt;&lt;font style=&quot;font-size:22.58px;font-family:Arial;color:#000000;direction:ltr;letter-spacing:0px;line-height:120%;opacity:1&quot;&gt;namespace&lt;/font&gt;&lt;/div&gt;" style="verticalAlign=bottom;align=center;overflow=width;vsdxID=6;fillColor=none;gradientColor=none;strokeColor=none;spacingTop=-3;spacingBottom=-3;spacingLeft=-3;spacingRight=-3;points=[];labelBackgroundColor=none;rounded=0;html=1;whiteSpace=wrap;container=0;" parent="1" vertex="1">
          <mxGeometry x="360" y="460" width="130" height="54" as="geometry" />
        </mxCell>
        <mxCell id="Zcm5tQwCMB2YyKj0-IPv-38" value="" style="aspect=fixed;sketch=0;html=1;dashed=0;whitespace=wrap;verticalLabelPosition=bottom;verticalAlign=top;fillColor=#2875E2;strokeColor=#ffffff;points=[[0.005,0.63,0],[0.1,0.2,0],[0.9,0.2,0],[0.5,0,0],[0.995,0.63,0],[0.72,0.99,0],[0.5,1,0],[0.28,0.99,0]];shape=mxgraph.kubernetes.icon2;prIcon=group;container=0;" parent="1" vertex="1">
          <mxGeometry x="915" y="-130" width="50" height="48" as="geometry" />
        </mxCell>
        <mxCell id="2ktrdMOb3Cd3oE9HsooV-47" style="edgeStyle=orthogonalEdgeStyle;shape=connector;rounded=0;orthogonalLoop=1;jettySize=auto;html=1;strokeColor=default;align=center;verticalAlign=middle;fontFamily=Helvetica;fontSize=12;fontColor=default;labelBackgroundColor=default;startSize=8;endArrow=classic;endSize=8;" edge="1" parent="1" source="Zcm5tQwCMB2YyKj0-IPv-39" target="2ktrdMOb3Cd3oE9HsooV-46">
          <mxGeometry relative="1" as="geometry" />
        </mxCell>
        <mxCell id="Zcm5tQwCMB2YyKj0-IPv-39" style="vsdxID=5;fillColor=none;gradientColor=none;shape=stencil(vVPLEoIgFP0aljgEVuPa6j+YRGUica6U9vdhUKk4LWzG3X0cOPdcOIilTclrgShpDOiLaGVmSsQOiFJZlQKksRFiR8TSXIMoQN+qzOU175F9dNX3/obOnSP9CUoeLktIFL8KJ4flcLZN8NhtRJiDwxsf7VwhQHjAhniCDvNONhi04UbqakSuOBQCWy6cK16MWk0rRB2U/XRKVgMlSRwl+1nyhWI+s0+Xs4KYgNvPtlBKuJvVniX4En+9yfxWVpDx2yc2+Bosl0o5fw77U0PakjMzOz4B);strokeColor=#ff5958;spacingTop=-3;spacingBottom=-3;spacingLeft=-3;spacingRight=-3;points=[];labelBackgroundColor=none;rounded=0;html=1;whiteSpace=wrap;container=0;" parent="1" vertex="1">
          <mxGeometry x="864" y="-140" width="152" height="130" as="geometry" />
        </mxCell>
        <mxCell id="Zcm5tQwCMB2YyKj0-IPv-40" value="&lt;div style=&quot;font-size: 1px&quot;&gt;&lt;font style=&quot;font-size:22.58px;font-family:Arial;color:#000000;direction:ltr;letter-spacing:0px;line-height:120%;opacity:1&quot;&gt;Браузер&amp;nbsp;&lt;/font&gt;&lt;/div&gt;&lt;div style=&quot;font-size: 1px&quot;&gt;&lt;font style=&quot;font-size:22.58px;font-family:Arial;color:#000000;direction:ltr;letter-spacing:0px;line-height:120%;opacity:1&quot;&gt;пользователя&lt;/font&gt;&lt;/div&gt;" style="verticalAlign=bottom;align=center;overflow=width;vsdxID=6;fillColor=none;gradientColor=none;strokeColor=none;spacingTop=-3;spacingBottom=-3;spacingLeft=-3;spacingRight=-3;points=[];labelBackgroundColor=none;rounded=0;html=1;whiteSpace=wrap;container=0;" parent="1" vertex="1">
          <mxGeometry x="864" y="-73" width="152" height="53" as="geometry" />
        </mxCell>
        <mxCell id="Zcm5tQwCMB2YyKj0-IPv-56" value="" style="group" parent="1" vertex="1" connectable="0">
          <mxGeometry x="200" y="580" width="330" height="480" as="geometry" />
        </mxCell>
        <mxCell id="Zcm5tQwCMB2YyKj0-IPv-18" style="vsdxID=6;fillColor=none;gradientColor=none;shape=stencil(vVNdD4IgFP01POIQms1nq//BEpVF4q6U9u/DoFJxPdjm2/04cO65cBDL2oo3AlHSGtAX0cncVIgdEKWyrgRIYyPEjohlhQZRgr7VucsbPiCH6Krvww29O0eGE5Q8XJaSaPcqnByWw9k2wWNZRFMHhzc+SlwhQHhATDxBj3kvWwzacCN1PSFXHEqBLRcuFC8nrbYTognKfjol65GSNIn28SL5SjGf2efL2UBMwO1nWykl3M1mzxJ8ib/eZHkrG8j47RMbfA1WSKWcP8f9uSFtyZmZHZ8=);strokeColor=#5282ff;spacingTop=-3;spacingBottom=-3;spacingLeft=-3;spacingRight=-3;points=[];labelBackgroundColor=none;rounded=0;html=1;whiteSpace=wrap;container=0;" parent="Zcm5tQwCMB2YyKj0-IPv-56" vertex="1">
          <mxGeometry width="320" height="479.9999999999999" as="geometry" />
        </mxCell>
        <mxCell id="Zcm5tQwCMB2YyKj0-IPv-29" value="" style="shape=image;verticalLabelPosition=bottom;verticalAlign=top;imageAspect=0;aspect=fixed;image=data:image/svg+xml,PHN2ZyB4bWxucz0iaHR0cDovL3d3dy53My5vcmcvMjAwMC9zdmciIHdpZHRoPSIzMiIgaGVpZ2h0PSIzMiIgdmlld0JveD0iMCAwIDMyIDMyIiBmaWxsPSJub25lIj4mI3hhOzxwYXRoIGQ9Ik0wIDE2QzAgNy4xNjM0NCA3LjE2MzQ0IDAgMTYgMFYwQzI0LjgzNjYgMCAzMiA3LjE2MzQ0IDMyIDE2VjE2QzMyIDI0LjgzNjYgMjQuODM2NiAzMiAxNiAzMlYzMkM3LjE2MzQ0IDMyIDAgMjQuODM2NiAwIDE2VjE2WiIgZmlsbD0iIzUyODJGRiIvPiYjeGE7PHBhdGggZD0iTTI0IDE1VjEzSDIyVjExQzIyIDEwLjQgMjEuNiAxMCAyMSAxMEgxOVY4SDE3VjEwSDE1VjhIMTNWMTBIMTFDMTAuNCAxMCAxMCAxMC40IDEwIDExVjEzSDhWMTVIMTBWMTdIOFYxOUgxMFYyMUMxMCAyMS42IDEwLjQgMjIgMTEgMjJIMTNWMjRIMTVWMjJIMTdWMjRIMTlWMjJIMjFDMjEuNiAyMiAyMiAyMS42IDIyIDIxVjE5SDI0VjE3SDIyVjE1SDI0Wk0xOSAxOUgxM1YxM0gxOVYxOVoiIGZpbGw9IndoaXRlIi8+JiN4YTs8L3N2Zz4=;container=0;" parent="Zcm5tQwCMB2YyKj0-IPv-56" vertex="1">
          <mxGeometry x="23.35515151515151" y="436.55286964325774" width="25.09090909090909" height="25.09090909090909" as="geometry" />
        </mxCell>
        <mxCell id="Zcm5tQwCMB2YyKj0-IPv-20" value="&lt;div style=&quot;font-size: 1px&quot;&gt;&lt;font style=&quot;font-size:22.58px;font-family:Arial;color:#000000;direction:ltr;letter-spacing:0px;line-height:120%;opacity:1&quot;&gt;VM 1&lt;br&gt;&lt;/font&gt;&lt;/div&gt;" style="verticalAlign=middle;align=center;overflow=width;vsdxID=7;fillColor=none;gradientColor=none;shape=stencil(nZBLDoAgDERP0z3SIyjew0SURgSD+Lu9kMZoXLhwN9O+tukAlrNpJg1SzDH4QW/URgNYgZTkjA4UkwJUgGXng+6DX1zLfmoymdXo17xh5zmRJ6Q42BWCfc2oJfdAr+Yv+AP9Cb7OJ3H/2JG1HNGz/84klThPVCc=);strokeColor=none;points=[];labelBackgroundColor=none;rounded=0;html=1;whiteSpace=wrap;container=0;" parent="Zcm5tQwCMB2YyKj0-IPv-56" vertex="1">
          <mxGeometry x="33.36" y="430" width="93.29" height="38.2" as="geometry" />
        </mxCell>
        <mxCell id="2ktrdMOb3Cd3oE9HsooV-64" value="" style="group" vertex="1" connectable="0" parent="Zcm5tQwCMB2YyKj0-IPv-56">
          <mxGeometry x="10" y="239.44" width="130" height="47.67999999999995" as="geometry" />
        </mxCell>
        <mxCell id="2ktrdMOb3Cd3oE9HsooV-62" value="&lt;div style=&quot;font-size: 1px&quot;&gt;&lt;font style=&quot;font-size:22.58px;font-family:Arial;color:#000000;direction:ltr;letter-spacing:0px;line-height:120%;opacity:1&quot;&gt;Patroni&lt;/font&gt;&lt;/div&gt;" style="verticalAlign=bottom;align=center;overflow=width;vsdxID=6;fillColor=none;gradientColor=none;strokeColor=none;spacingTop=-3;spacingBottom=-3;spacingLeft=-3;spacingRight=-3;points=[];labelBackgroundColor=none;rounded=0;html=1;whiteSpace=wrap;fontFamily=Helvetica;fontSize=12;fontColor=default;" vertex="1" parent="2ktrdMOb3Cd3oE9HsooV-64">
          <mxGeometry x="44" y="6" width="82" height="28" as="geometry" />
        </mxCell>
        <mxCell id="2ktrdMOb3Cd3oE9HsooV-61" style="vsdxID=5;fillColor=none;gradientColor=none;shape=stencil(vVPLEoIgFP0aljgEVuPa6j+YRGUica6U9vdhUKk4LWzG3X0cOPdcOIilTclrgShpDOiLaGVmSsQOiFJZlQKksRFiR8TSXIMoQN+qzOU175F9dNX3/obOnSP9CUoeLktIFL8KJ4flcLZN8NhtRJiDwxsf7VwhQHjAhniCDvNONhi04UbqakSuOBQCWy6cK16MWk0rRB2U/XRKVgMlSRwl+1nyhWI+s0+Xs4KYgNvPtlBKuJvVniX4En+9yfxWVpDx2yc2+Bosl0o5fw77U0PakjMzOz4B);strokeColor=#ff5958;spacingTop=-3;spacingBottom=-3;spacingLeft=-3;spacingRight=-3;points=[];labelBackgroundColor=none;rounded=0;html=1;whiteSpace=wrap;fontFamily=Helvetica;fontSize=12;fontColor=default;" vertex="1" parent="2ktrdMOb3Cd3oE9HsooV-64">
          <mxGeometry width="130" height="47.68" as="geometry" />
        </mxCell>
        <mxCell id="2ktrdMOb3Cd3oE9HsooV-59" value="" style="shape=image;verticalLabelPosition=bottom;verticalAlign=top;imageAspect=0;aspect=fixed;image=data:image/svg+xml,PHN2ZyB4bWxucz0iaHR0cDovL3d3dy53My5vcmcvMjAwMC9zdmciIHdpZHRoPSIzMiIgaGVpZ2h0PSIzMiIgdmlld0JveD0iMCAwIDMyIDMyIiBmaWxsPSJub25lIj4mI3hhOzxwYXRoIGQ9Ik0wIDE2QzAgNy4xNjM0NCA3LjE2MzQ0IDAgMTYgMFYwQzI0LjgzNjYgMCAzMiA3LjE2MzQ0IDMyIDE2VjE2QzMyIDI0LjgzNjYgMjQuODM2NiAzMiAxNiAzMlYzMkM3LjE2MzQ0IDMyIDAgMjQuODM2NiAwIDE2VjE2WiIgZmlsbD0iIzUyODJGRiIvPiYjeGE7PHBhdGggZD0iTTIzLjcxIDE1LjI5M0wyMC4yMTMgMTEuNzY2QzE5LjEzNiAxMC42NzUgMTcuNjQ2IDEwIDE2IDEwQzE0LjM1NCAxMCAxMi44NjQgMTAuNjc1IDExLjc4NyAxMS43NjZMOC4yOTAwMSAxNS4yOTNDNy45MDMwMSAxNS42ODQgNy45MDMwMSAxNi4zMTYgOC4yOTAwMSAxNi43MDdMMTEuNzk1IDIwLjI0M0MxMi44NzEgMjEuMzI4IDE0LjM1OCAyMiAxNiAyMkMxNy42NDIgMjIgMTkuMTI5IDIxLjMyOCAyMC4yMDUgMjAuMjQzTDIzLjcxIDE2LjcwN0MyNC4wOTcgMTYuMzE2IDI0LjA5NyAxNS42ODQgMjMuNzEgMTUuMjkzWk0xNiAyMEMxMy43OTQgMjAgMTIgMTguMjA2IDEyIDE2QzEyIDEzLjc5NCAxMy43OTQgMTIgMTYgMTJDMTguMjA2IDEyIDIwIDEzLjc5NCAyMCAxNkMyMCAxOC4yMDYgMTguMjA2IDIwIDE2IDIwWk0xOCAxNi4wMDFMMTYgMTguMDAxTDE0IDE2LjAwMUwxNiAxNC4wMDFMMTggMTYuMDAxWiIgZmlsbD0id2hpdGUiLz4mI3hhOzwvc3ZnPg==;fontFamily=Helvetica;fontSize=12;fontColor=default;labelBackgroundColor=default;" vertex="1" parent="2ktrdMOb3Cd3oE9HsooV-64">
          <mxGeometry x="10" y="6" width="32" height="32" as="geometry" />
        </mxCell>
        <mxCell id="2ktrdMOb3Cd3oE9HsooV-70" value="" style="group" vertex="1" connectable="0" parent="Zcm5tQwCMB2YyKj0-IPv-56">
          <mxGeometry x="10" y="339.44" width="130" height="47.67999999999995" as="geometry" />
        </mxCell>
        <mxCell id="2ktrdMOb3Cd3oE9HsooV-68" style="vsdxID=5;fillColor=none;gradientColor=none;shape=stencil(vVPLEoIgFP0aljgEVuPa6j+YRGUica6U9vdhUKk4LWzG3X0cOPdcOIilTclrgShpDOiLaGVmSsQOiFJZlQKksRFiR8TSXIMoQN+qzOU175F9dNX3/obOnSP9CUoeLktIFL8KJ4flcLZN8NhtRJiDwxsf7VwhQHjAhniCDvNONhi04UbqakSuOBQCWy6cK16MWk0rRB2U/XRKVgMlSRwl+1nyhWI+s0+Xs4KYgNvPtlBKuJvVniX4En+9yfxWVpDx2yc2+Bosl0o5fw77U0PakjMzOz4B);strokeColor=#ff5958;spacingTop=-3;spacingBottom=-3;spacingLeft=-3;spacingRight=-3;points=[];labelBackgroundColor=none;rounded=0;html=1;whiteSpace=wrap;fontFamily=Helvetica;fontSize=12;fontColor=default;" vertex="1" parent="2ktrdMOb3Cd3oE9HsooV-70">
          <mxGeometry width="130" height="47.68" as="geometry" />
        </mxCell>
        <mxCell id="2ktrdMOb3Cd3oE9HsooV-67" value="&lt;div style=&quot;font-size: 1px&quot;&gt;&lt;font style=&quot;font-size:22.58px;font-family:Arial;color:#000000;direction:ltr;letter-spacing:0px;line-height:120%;opacity:1&quot;&gt;ETCD&lt;/font&gt;&lt;/div&gt;" style="verticalAlign=bottom;align=center;overflow=width;vsdxID=6;fillColor=none;gradientColor=none;strokeColor=none;spacingTop=-3;spacingBottom=-3;spacingLeft=-3;spacingRight=-3;points=[];labelBackgroundColor=none;rounded=0;html=1;whiteSpace=wrap;fontFamily=Helvetica;fontSize=12;fontColor=default;" vertex="1" parent="2ktrdMOb3Cd3oE9HsooV-70">
          <mxGeometry x="45" y="10.840000000000032" width="82" height="28" as="geometry" />
        </mxCell>
        <mxCell id="2ktrdMOb3Cd3oE9HsooV-65" value="" style="aspect=fixed;sketch=0;html=1;dashed=0;whitespace=wrap;verticalLabelPosition=bottom;verticalAlign=top;fillColor=#2875E2;strokeColor=#ffffff;points=[[0.005,0.63,0],[0.1,0.2,0],[0.9,0.2,0],[0.5,0,0],[0.995,0.63,0],[0.72,0.99,0],[0.5,1,0],[0.28,0.99,0]];shape=mxgraph.kubernetes.icon2;prIcon=etcd;fontFamily=Helvetica;fontSize=12;fontColor=default;labelBackgroundColor=default;" vertex="1" parent="2ktrdMOb3Cd3oE9HsooV-70">
          <mxGeometry x="12.579999999999998" y="6.840000000000032" width="35.42" height="34" as="geometry" />
        </mxCell>
        <mxCell id="2ktrdMOb3Cd3oE9HsooV-71" style="edgeStyle=orthogonalEdgeStyle;shape=connector;rounded=0;orthogonalLoop=1;jettySize=auto;html=1;entryX=0.498;entryY=0.055;entryDx=0;entryDy=0;entryPerimeter=0;strokeColor=default;align=center;verticalAlign=middle;fontFamily=Helvetica;fontSize=12;fontColor=default;labelBackgroundColor=default;startSize=8;endArrow=classic;endSize=8;startArrow=classic;startFill=1;" edge="1" parent="Zcm5tQwCMB2YyKj0-IPv-56" source="2ktrdMOb3Cd3oE9HsooV-61" target="2ktrdMOb3Cd3oE9HsooV-68">
          <mxGeometry relative="1" as="geometry" />
        </mxCell>
        <mxCell id="2ktrdMOb3Cd3oE9HsooV-73" value="" style="group" vertex="1" connectable="0" parent="Zcm5tQwCMB2YyKj0-IPv-56">
          <mxGeometry x="157" y="239.44" width="130" height="47.67999999999995" as="geometry" />
        </mxCell>
        <mxCell id="2ktrdMOb3Cd3oE9HsooV-74" style="vsdxID=5;fillColor=none;gradientColor=none;shape=stencil(vVPLEoIgFP0aljgEVuPa6j+YRGUica6U9vdhUKk4LWzG3X0cOPdcOIilTclrgShpDOiLaGVmSsQOiFJZlQKksRFiR8TSXIMoQN+qzOU175F9dNX3/obOnSP9CUoeLktIFL8KJ4flcLZN8NhtRJiDwxsf7VwhQHjAhniCDvNONhi04UbqakSuOBQCWy6cK16MWk0rRB2U/XRKVgMlSRwl+1nyhWI+s0+Xs4KYgNvPtlBKuJvVniX4En+9yfxWVpDx2yc2+Bosl0o5fw77U0PakjMzOz4B);strokeColor=#ff5958;spacingTop=-3;spacingBottom=-3;spacingLeft=-3;spacingRight=-3;points=[];labelBackgroundColor=none;rounded=0;html=1;whiteSpace=wrap;fontFamily=Helvetica;fontSize=12;fontColor=default;" vertex="1" parent="2ktrdMOb3Cd3oE9HsooV-73">
          <mxGeometry width="130" height="47.68" as="geometry" />
        </mxCell>
        <mxCell id="2ktrdMOb3Cd3oE9HsooV-75" value="&lt;div style=&quot;font-size: 1px&quot;&gt;&lt;font style=&quot;font-size:22.58px;font-family:Arial;color:#000000;direction:ltr;letter-spacing:0px;line-height:120%;opacity:1&quot;&gt;PMM&lt;/font&gt;&lt;/div&gt;" style="verticalAlign=bottom;align=center;overflow=width;vsdxID=6;fillColor=none;gradientColor=none;strokeColor=none;spacingTop=-3;spacingBottom=-3;spacingLeft=-3;spacingRight=-3;points=[];labelBackgroundColor=none;rounded=0;html=1;whiteSpace=wrap;fontFamily=Helvetica;fontSize=12;fontColor=default;" vertex="1" parent="2ktrdMOb3Cd3oE9HsooV-73">
          <mxGeometry x="24" y="9.840000000000032" width="82" height="28" as="geometry" />
        </mxCell>
        <mxCell id="2ktrdMOb3Cd3oE9HsooV-157" style="edgeStyle=orthogonalEdgeStyle;shape=connector;rounded=0;orthogonalLoop=1;jettySize=auto;html=1;strokeColor=default;align=center;verticalAlign=middle;fontFamily=Helvetica;fontSize=12;fontColor=default;labelBackgroundColor=default;startSize=8;endArrow=classic;endSize=8;" edge="1" parent="Zcm5tQwCMB2YyKj0-IPv-56" source="Zcm5tQwCMB2YyKj0-IPv-27" target="2ktrdMOb3Cd3oE9HsooV-154">
          <mxGeometry relative="1" as="geometry">
            <Array as="points">
              <mxPoint x="300" y="156" />
            </Array>
          </mxGeometry>
        </mxCell>
        <mxCell id="Zcm5tQwCMB2YyKj0-IPv-27" style="vsdxID=5;fillColor=none;gradientColor=none;shape=stencil(vVPLEoIgFP0aljgEVuPa6j+YRGUica6U9vdhUKk4LWzG3X0cOPdcOIilTclrgShpDOiLaGVmSsQOiFJZlQKksRFiR8TSXIMoQN+qzOU175F9dNX3/obOnSP9CUoeLktIFL8KJ4flcLZN8NhtRJiDwxsf7VwhQHjAhniCDvNONhi04UbqakSuOBQCWy6cK16MWk0rRB2U/XRKVgMlSRwl+1nyhWI+s0+Xs4KYgNvPtlBKuJvVniX4En+9yfxWVpDx2yc2+Bosl0o5fw77U0PakjMzOz4B);strokeColor=#ff5958;spacingTop=-3;spacingBottom=-3;spacingLeft=-3;spacingRight=-3;points=[];labelBackgroundColor=none;rounded=0;html=1;whiteSpace=wrap;container=0;" parent="Zcm5tQwCMB2YyKj0-IPv-56" vertex="1">
          <mxGeometry x="160" y="103.54999999999995" width="130" height="105.5" as="geometry" />
        </mxCell>
        <mxCell id="Zcm5tQwCMB2YyKj0-IPv-28" value="&lt;div style=&quot;font-size: 1px&quot;&gt;&lt;font style=&quot;font-size:22.58px;font-family:Arial;color:#000000;direction:ltr;letter-spacing:0px;line-height:120%;opacity:1&quot;&gt;PosrgreSQL&lt;/font&gt;&lt;/div&gt;" style="verticalAlign=bottom;align=center;overflow=width;vsdxID=6;fillColor=none;gradientColor=none;strokeColor=none;spacingTop=-3;spacingBottom=-3;spacingLeft=-3;spacingRight=-3;points=[];labelBackgroundColor=none;rounded=0;html=1;whiteSpace=wrap;container=0;" parent="Zcm5tQwCMB2YyKj0-IPv-56" vertex="1">
          <mxGeometry x="160" y="148.54999999999995" width="130" height="53.21" as="geometry" />
        </mxCell>
        <mxCell id="Zcm5tQwCMB2YyKj0-IPv-30" value="" style="shape=image;verticalLabelPosition=bottom;verticalAlign=top;imageAspect=0;aspect=fixed;image=data:image/svg+xml,PHN2ZyB4bWxucz0iaHR0cDovL3d3dy53My5vcmcvMjAwMC9zdmciIHdpZHRoPSIzMiIgaGVpZ2h0PSIzMiIgdmlld0JveD0iMCAwIDMyIDMyIiBmaWxsPSJub25lIj4mI3hhOzxwYXRoIGQ9Ik0wIDE2QzAgNy4xNjM0NCA3LjE2MzQ0IDAgMTYgMFYwQzI0LjgzNjYgMCAzMiA3LjE2MzQ0IDMyIDE2VjE2QzMyIDI0LjgzNjYgMjQuODM2NiAzMiAxNiAzMlYzMkM3LjE2MzQ0IDMyIDAgMjQuODM2NiAwIDE2VjE2WiIgZmlsbD0iIzUyODJGRiIvPiYjeGE7PHBhdGggZmlsbC1ydWxlPSJldmVub2RkIiBjbGlwLXJ1bGU9ImV2ZW5vZGQiIGQ9Ik0xMyA4SDE4QzIxLjMgOCAyNCAxMC43IDI0IDE0VjI0SDIwVjIwSDIyVjE5SDE4LjZDMTUuNSAxOSAxMyAxNi41IDEzIDEzLjRWOFpNMTkgMTdIMjFWMTVIMTlWMTdaTTEyIDkuMDk5OThWMTMuNEMxMiAxNi44IDE0LjYgMTkuNyAxOCAyMC4xVjIwLjZDMTggMjIgMTUuOCAyMy4xIDEzIDIzLjFDMTAuMiAyMy4xIDggMjIgOCAyMC42VjExLjZDOCAxMC4zIDkuNyA5LjI5OTk4IDEyIDkuMDk5OThaIiBmaWxsPSJ3aGl0ZSIvPiYjeGE7PC9zdmc+;container=0;" parent="Zcm5tQwCMB2YyKj0-IPv-56" vertex="1">
          <mxGeometry x="204.5" y="107.54999999999995" width="36.26923076923077" height="36.26923076923077" as="geometry" />
        </mxCell>
        <mxCell id="2ktrdMOb3Cd3oE9HsooV-72" style="edgeStyle=orthogonalEdgeStyle;shape=connector;rounded=0;orthogonalLoop=1;jettySize=auto;html=1;entryX=-0.001;entryY=0.498;entryDx=0;entryDy=0;entryPerimeter=0;strokeColor=default;align=center;verticalAlign=middle;fontFamily=Helvetica;fontSize=12;fontColor=default;labelBackgroundColor=default;startSize=8;endArrow=classic;endSize=8;exitX=0.513;exitY=-0.018;exitDx=0;exitDy=0;exitPerimeter=0;startArrow=classic;startFill=1;" edge="1" parent="Zcm5tQwCMB2YyKj0-IPv-56" source="2ktrdMOb3Cd3oE9HsooV-61" target="Zcm5tQwCMB2YyKj0-IPv-27">
          <mxGeometry relative="1" as="geometry" />
        </mxCell>
        <mxCell id="2ktrdMOb3Cd3oE9HsooV-77" style="edgeStyle=orthogonalEdgeStyle;shape=connector;rounded=0;orthogonalLoop=1;jettySize=auto;html=1;strokeColor=default;align=center;verticalAlign=middle;fontFamily=Helvetica;fontSize=12;fontColor=default;labelBackgroundColor=default;startSize=8;endArrow=classic;endSize=8;dashed=1;" edge="1" parent="Zcm5tQwCMB2YyKj0-IPv-56" source="Zcm5tQwCMB2YyKj0-IPv-27" target="2ktrdMOb3Cd3oE9HsooV-74">
          <mxGeometry relative="1" as="geometry">
            <Array as="points">
              <mxPoint x="220" y="229" />
              <mxPoint x="222" y="229" />
            </Array>
          </mxGeometry>
        </mxCell>
        <mxCell id="2ktrdMOb3Cd3oE9HsooV-139" value="" style="group" vertex="1" connectable="0" parent="Zcm5tQwCMB2YyKj0-IPv-56">
          <mxGeometry x="160" y="10" width="130" height="47.67999999999995" as="geometry" />
        </mxCell>
        <mxCell id="2ktrdMOb3Cd3oE9HsooV-140" style="vsdxID=5;fillColor=none;gradientColor=none;shape=stencil(vVPLEoIgFP0aljgEVuPa6j+YRGUica6U9vdhUKk4LWzG3X0cOPdcOIilTclrgShpDOiLaGVmSsQOiFJZlQKksRFiR8TSXIMoQN+qzOU175F9dNX3/obOnSP9CUoeLktIFL8KJ4flcLZN8NhtRJiDwxsf7VwhQHjAhniCDvNONhi04UbqakSuOBQCWy6cK16MWk0rRB2U/XRKVgMlSRwl+1nyhWI+s0+Xs4KYgNvPtlBKuJvVniX4En+9yfxWVpDx2yc2+Bosl0o5fw77U0PakjMzOz4B);strokeColor=#ff5958;spacingTop=-3;spacingBottom=-3;spacingLeft=-3;spacingRight=-3;points=[];labelBackgroundColor=none;rounded=0;html=1;whiteSpace=wrap;fontFamily=Helvetica;fontSize=12;fontColor=default;" vertex="1" parent="2ktrdMOb3Cd3oE9HsooV-139">
          <mxGeometry width="130" height="47.68" as="geometry" />
        </mxCell>
        <mxCell id="2ktrdMOb3Cd3oE9HsooV-141" value="&lt;div style=&quot;font-size: 1px&quot;&gt;&lt;font style=&quot;font-size:22.58px;font-family:Arial;color:#000000;direction:ltr;letter-spacing:0px;line-height:120%;opacity:1&quot;&gt;HAProxy&lt;/font&gt;&lt;/div&gt;" style="verticalAlign=bottom;align=center;overflow=width;vsdxID=6;fillColor=none;gradientColor=none;strokeColor=none;spacingTop=-3;spacingBottom=-3;spacingLeft=-3;spacingRight=-3;points=[];labelBackgroundColor=none;rounded=0;html=1;whiteSpace=wrap;fontFamily=Helvetica;fontSize=12;fontColor=default;" vertex="1" parent="2ktrdMOb3Cd3oE9HsooV-139">
          <mxGeometry x="10" y="9.84" width="110" height="28" as="geometry" />
        </mxCell>
        <mxCell id="2ktrdMOb3Cd3oE9HsooV-142" style="edgeStyle=orthogonalEdgeStyle;shape=connector;rounded=0;orthogonalLoop=1;jettySize=auto;html=1;entryX=0.501;entryY=0.023;entryDx=0;entryDy=0;entryPerimeter=0;strokeColor=default;align=center;verticalAlign=middle;fontFamily=Helvetica;fontSize=12;fontColor=default;labelBackgroundColor=default;startSize=8;endArrow=classic;endSize=8;" edge="1" parent="Zcm5tQwCMB2YyKj0-IPv-56" source="2ktrdMOb3Cd3oE9HsooV-140" target="Zcm5tQwCMB2YyKj0-IPv-27">
          <mxGeometry relative="1" as="geometry" />
        </mxCell>
        <mxCell id="2ktrdMOb3Cd3oE9HsooV-153" value="" style="group" vertex="1" connectable="0" parent="Zcm5tQwCMB2YyKj0-IPv-56">
          <mxGeometry x="170" y="400" width="140" height="47.68" as="geometry" />
        </mxCell>
        <mxCell id="2ktrdMOb3Cd3oE9HsooV-154" style="vsdxID=5;fillColor=none;gradientColor=none;shape=stencil(vVPLEoIgFP0aljgEVuPa6j+YRGUica6U9vdhUKk4LWzG3X0cOPdcOIilTclrgShpDOiLaGVmSsQOiFJZlQKksRFiR8TSXIMoQN+qzOU175F9dNX3/obOnSP9CUoeLktIFL8KJ4flcLZN8NhtRJiDwxsf7VwhQHjAhniCDvNONhi04UbqakSuOBQCWy6cK16MWk0rRB2U/XRKVgMlSRwl+1nyhWI+s0+Xs4KYgNvPtlBKuJvVniX4En+9yfxWVpDx2yc2+Bosl0o5fw77U0PakjMzOz4B);strokeColor=#ff5958;spacingTop=-3;spacingBottom=-3;spacingLeft=-3;spacingRight=-3;points=[];labelBackgroundColor=none;rounded=0;html=1;whiteSpace=wrap;fontFamily=Helvetica;fontSize=12;fontColor=default;" vertex="1" parent="2ktrdMOb3Cd3oE9HsooV-153">
          <mxGeometry width="140" height="47.68000000000005" as="geometry" />
        </mxCell>
        <mxCell id="2ktrdMOb3Cd3oE9HsooV-155" value="&lt;div style=&quot;&quot;&gt;&lt;font face=&quot;Arial&quot;&gt;&lt;span style=&quot;font-size: 22.58px;&quot;&gt;pgBackRest&lt;/span&gt;&lt;/font&gt;&lt;/div&gt;" style="verticalAlign=bottom;align=center;overflow=width;vsdxID=6;fillColor=none;gradientColor=none;strokeColor=none;spacingTop=-3;spacingBottom=-3;spacingLeft=-3;spacingRight=-3;points=[];labelBackgroundColor=none;rounded=0;html=1;whiteSpace=wrap;fontFamily=Helvetica;fontSize=12;fontColor=default;" vertex="1" parent="2ktrdMOb3Cd3oE9HsooV-153">
          <mxGeometry x="10" y="10.84" width="126.77" height="28" as="geometry" />
        </mxCell>
        <mxCell id="2ktrdMOb3Cd3oE9HsooV-1" value="&lt;div style=&quot;font-size: 1px&quot;&gt;&lt;font style=&quot;font-size:22.58px;font-family:Arial;color:#000000;direction:ltr;letter-spacing:0px;line-height:120%;opacity:1&quot;&gt;Зона доступности 2&lt;br&gt;&lt;/font&gt;&lt;/div&gt;" style="verticalAlign=bottom;align=center;overflow=width;vsdxID=5;fillColor=#e3ebff;gradientColor=none;shape=stencil(vVNBDsIgEHwNRwxCjHqu+g9iaUtEaBa09fdSwdpi9dBDb8vOwOwsGcQyW/FaIEqsA3MRjcxdhdgBUSp1JUA6XyF2RCwrDIgSzE3n4VzzjtlVV3PvXmjDPdLdoOQRTrvtavNqnAKXw9mDELkBIhDJaxrJZIy/YRLfbjFvpcVgHHfS6JGu4lAK7GVwoXg5gmwjRP3VjoMpqQcm9tPKs0z0Y6crWcBHqt0PN8tJspXFfmNKdpaBH8tYwML/VPjiE6dCKhXSOMTT+PlWiC47PgE=);strokeColor=none;spacingTop=-3;spacingBottom=-3;spacingLeft=-3;spacingRight=-3;points=[];labelBackgroundColor=none;rounded=0;html=1;whiteSpace=wrap;container=0;" vertex="1" parent="1">
          <mxGeometry x="750" y="360" width="390.22" height="760" as="geometry" />
        </mxCell>
        <mxCell id="2ktrdMOb3Cd3oE9HsooV-2" style="edgeStyle=orthogonalEdgeStyle;rounded=0;orthogonalLoop=1;jettySize=auto;html=1;exitX=0.5;exitY=1.004;exitDx=0;exitDy=0;exitPerimeter=0;entryX=0.5;entryY=0.046;entryDx=0;entryDy=0;entryPerimeter=0;" edge="1" parent="1" source="2ktrdMOb3Cd3oE9HsooV-5" target="2ktrdMOb3Cd3oE9HsooV-134">
          <mxGeometry relative="1" as="geometry">
            <mxPoint x="1200" y="560" as="targetPoint" />
          </mxGeometry>
        </mxCell>
        <mxCell id="2ktrdMOb3Cd3oE9HsooV-3" value="TCP" style="edgeLabel;html=1;align=center;verticalAlign=middle;resizable=0;points=[];container=0;" vertex="1" connectable="0" parent="2ktrdMOb3Cd3oE9HsooV-2">
          <mxGeometry x="-0.0566" y="2" relative="1" as="geometry">
            <mxPoint as="offset" />
          </mxGeometry>
        </mxCell>
        <mxCell id="2ktrdMOb3Cd3oE9HsooV-4" value="" style="shape=image;verticalLabelPosition=bottom;verticalAlign=top;imageAspect=0;aspect=fixed;image=data:image/svg+xml,PHN2ZyB4bWxucz0iaHR0cDovL3d3dy53My5vcmcvMjAwMC9zdmciIHdpZHRoPSIzMiIgaGVpZ2h0PSIzMiIgdmlld0JveD0iMCAwIDMyIDMyIiBmaWxsPSJub25lIj4mI3hhOzxwYXRoIGQ9Ik0wIDE2QzAgNy4xNjM0NCA3LjE2MzQ0IDAgMTYgMFYwQzI0LjgzNjYgMCAzMiA3LjE2MzQ0IDMyIDE2VjE2QzMyIDI0LjgzNjYgMjQuODM2NiAzMiAxNiAzMlYzMkM3LjE2MzQ0IDMyIDAgMjQuODM2NiAwIDE2VjE2WiIgZmlsbD0iIzUyODJGRiIvPiYjeGE7PHBhdGggZD0iTTExLjk5NSAyNEw3LjAwMDk4IDE3LjczOEw4Ljc4MTk4IDkuOTI3TDE2IDYuNDUzTDIzLjIxOCA5LjkyOEwyNC45OTkgMTcuNzM5TDIwLjAwNSAyNEgxMS45OTVaTTIwIDEzLjE5NkwxNS45OTkgMTAuODk5TDEyIDEzLjE5NlYxOC4xTDE2IDIwLjQwMUwyMCAxOC4xVjEzLjE5NlpNMTguNzggMTMuODk2SDE4Ljc4N0wxNiAxNS40OTlMMTMuMjE0IDEzLjg5NUgxMy4yMTlMMTUuOTk5IDEyLjI5OUwxOC43OCAxMy44OTZaIiBmaWxsPSJ3aGl0ZSIvPiYjeGE7PC9zdmc+;container=0;" vertex="1" parent="1">
          <mxGeometry x="998.35" y="430" width="28.571428571428573" height="28.571428571428573" as="geometry" />
        </mxCell>
        <mxCell id="2ktrdMOb3Cd3oE9HsooV-5" style="vsdxID=5;fillColor=none;gradientColor=none;shape=stencil(vVPLEoIgFP0aljgEVuPa6j+YRGUica6U9vdhUKk4LWzG3X0cOPdcOIilTclrgShpDOiLaGVmSsQOiFJZlQKksRFiR8TSXIMoQN+qzOU175F9dNX3/obOnSP9CUoeLktIFL8KJ4flcLZN8NhtRJiDwxsf7VwhQHjAhniCDvNONhi04UbqakSuOBQCWy6cK16MWk0rRB2U/XRKVgMlSRwl+1nyhWI+s0+Xs4KYgNvPtlBKuJvVniX4En+9yfxWVpDx2yc2+Bosl0o5fw77U0PakjMzOz4B);strokeColor=#ff5958;spacingTop=-3;spacingBottom=-3;spacingLeft=-3;spacingRight=-3;points=[];labelBackgroundColor=none;rounded=0;html=1;whiteSpace=wrap;container=0;" vertex="1" parent="1">
          <mxGeometry x="950" y="416.86" width="130" height="100" as="geometry" />
        </mxCell>
        <mxCell id="2ktrdMOb3Cd3oE9HsooV-6" value="&lt;div style=&quot;font-size: 1px&quot;&gt;&lt;font style=&quot;font-size:22.58px;font-family:Arial;color:#000000;direction:ltr;letter-spacing:0px;line-height:120%;opacity:1&quot;&gt;InsureTech&lt;/font&gt;&lt;/div&gt;&lt;div style=&quot;font-size: 1px&quot;&gt;&lt;font style=&quot;font-size:22.58px;font-family:Arial;color:#000000;direction:ltr;letter-spacing:0px;line-height:120%;opacity:1&quot;&gt;namespace&lt;/font&gt;&lt;/div&gt;" style="verticalAlign=bottom;align=center;overflow=width;vsdxID=6;fillColor=none;gradientColor=none;strokeColor=none;spacingTop=-3;spacingBottom=-3;spacingLeft=-3;spacingRight=-3;points=[];labelBackgroundColor=none;rounded=0;html=1;whiteSpace=wrap;container=0;" vertex="1" parent="1">
          <mxGeometry x="950" y="460" width="130" height="54" as="geometry" />
        </mxCell>
        <mxCell id="2ktrdMOb3Cd3oE9HsooV-10" value="" style="group" vertex="1" connectable="0" parent="1">
          <mxGeometry x="780" y="580" width="340" height="480" as="geometry" />
        </mxCell>
        <mxCell id="2ktrdMOb3Cd3oE9HsooV-11" style="vsdxID=6;fillColor=none;gradientColor=none;shape=stencil(vVNdD4IgFP01POIQms1nq//BEpVF4q6U9u/DoFJxPdjm2/04cO65cBDL2oo3AlHSGtAX0cncVIgdEKWyrgRIYyPEjohlhQZRgr7VucsbPiCH6Krvww29O0eGE5Q8XJaSaPcqnByWw9k2wWNZRFMHhzc+SlwhQHhATDxBj3kvWwzacCN1PSFXHEqBLRcuFC8nrbYTognKfjol65GSNIn28SL5SjGf2efL2UBMwO1nWykl3M1mzxJ8ib/eZHkrG8j47RMbfA1WSKWcP8f9uSFtyZmZHZ8=);strokeColor=#5282ff;spacingTop=-3;spacingBottom=-3;spacingLeft=-3;spacingRight=-3;points=[];labelBackgroundColor=none;rounded=0;html=1;whiteSpace=wrap;container=0;" vertex="1" parent="2ktrdMOb3Cd3oE9HsooV-10">
          <mxGeometry width="340" height="479.9999999999999" as="geometry" />
        </mxCell>
        <mxCell id="2ktrdMOb3Cd3oE9HsooV-78" value="" style="shape=image;verticalLabelPosition=bottom;verticalAlign=top;imageAspect=0;aspect=fixed;image=data:image/svg+xml,PHN2ZyB4bWxucz0iaHR0cDovL3d3dy53My5vcmcvMjAwMC9zdmciIHdpZHRoPSIzMiIgaGVpZ2h0PSIzMiIgdmlld0JveD0iMCAwIDMyIDMyIiBmaWxsPSJub25lIj4mI3hhOzxwYXRoIGQ9Ik0wIDE2QzAgNy4xNjM0NCA3LjE2MzQ0IDAgMTYgMFYwQzI0LjgzNjYgMCAzMiA3LjE2MzQ0IDMyIDE2VjE2QzMyIDI0LjgzNjYgMjQuODM2NiAzMiAxNiAzMlYzMkM3LjE2MzQ0IDMyIDAgMjQuODM2NiAwIDE2VjE2WiIgZmlsbD0iIzUyODJGRiIvPiYjeGE7PHBhdGggZD0iTTI0IDE1VjEzSDIyVjExQzIyIDEwLjQgMjEuNiAxMCAyMSAxMEgxOVY4SDE3VjEwSDE1VjhIMTNWMTBIMTFDMTAuNCAxMCAxMCAxMC40IDEwIDExVjEzSDhWMTVIMTBWMTdIOFYxOUgxMFYyMUMxMCAyMS42IDEwLjQgMjIgMTEgMjJIMTNWMjRIMTVWMjJIMTdWMjRIMTlWMjJIMjFDMjEuNiAyMiAyMiAyMS42IDIyIDIxVjE5SDI0VjE3SDIyVjE1SDI0Wk0xOSAxOUgxM1YxM0gxOVYxOVoiIGZpbGw9IndoaXRlIi8+JiN4YTs8L3N2Zz4=;container=0;" vertex="1" parent="2ktrdMOb3Cd3oE9HsooV-10">
          <mxGeometry x="9.174848484848475" y="436.5528696432578" width="25.09090909090909" height="25.09090909090909" as="geometry" />
        </mxCell>
        <mxCell id="2ktrdMOb3Cd3oE9HsooV-79" value="&lt;div style=&quot;font-size: 1px&quot;&gt;&lt;font style=&quot;font-size:22.58px;font-family:Arial;color:#000000;direction:ltr;letter-spacing:0px;line-height:120%;opacity:1&quot;&gt;VM 2&lt;br&gt;&lt;/font&gt;&lt;/div&gt;" style="verticalAlign=middle;align=center;overflow=width;vsdxID=7;fillColor=none;gradientColor=none;shape=stencil(nZBLDoAgDERP0z3SIyjew0SURgSD+Lu9kMZoXLhwN9O+tukAlrNpJg1SzDH4QW/URgNYgZTkjA4UkwJUgGXng+6DX1zLfmoymdXo17xh5zmRJ6Q42BWCfc2oJfdAr+Yv+AP9Cb7OJ3H/2JG1HNGz/84klThPVCc=);strokeColor=none;points=[];labelBackgroundColor=none;rounded=0;html=1;whiteSpace=wrap;container=0;" vertex="1" parent="2ktrdMOb3Cd3oE9HsooV-10">
          <mxGeometry x="19.804999999999986" y="430" width="99.120625" height="38.2" as="geometry" />
        </mxCell>
        <mxCell id="2ktrdMOb3Cd3oE9HsooV-94" value="" style="group" vertex="1" connectable="0" parent="2ktrdMOb3Cd3oE9HsooV-10">
          <mxGeometry x="9.179999999999986" y="249.10999999999999" width="138.125" height="47.67999999999995" as="geometry" />
        </mxCell>
        <mxCell id="2ktrdMOb3Cd3oE9HsooV-95" value="&lt;div style=&quot;font-size: 1px&quot;&gt;&lt;font style=&quot;font-size:22.58px;font-family:Arial;color:#000000;direction:ltr;letter-spacing:0px;line-height:120%;opacity:1&quot;&gt;Patroni&lt;/font&gt;&lt;/div&gt;" style="verticalAlign=bottom;align=center;overflow=width;vsdxID=6;fillColor=none;gradientColor=none;strokeColor=none;spacingTop=-3;spacingBottom=-3;spacingLeft=-3;spacingRight=-3;points=[];labelBackgroundColor=none;rounded=0;html=1;whiteSpace=wrap;fontFamily=Helvetica;fontSize=12;fontColor=default;" vertex="1" parent="2ktrdMOb3Cd3oE9HsooV-94">
          <mxGeometry x="46.75" y="6" width="87.125" height="28" as="geometry" />
        </mxCell>
        <mxCell id="2ktrdMOb3Cd3oE9HsooV-96" style="vsdxID=5;fillColor=none;gradientColor=none;shape=stencil(vVPLEoIgFP0aljgEVuPa6j+YRGUica6U9vdhUKk4LWzG3X0cOPdcOIilTclrgShpDOiLaGVmSsQOiFJZlQKksRFiR8TSXIMoQN+qzOU175F9dNX3/obOnSP9CUoeLktIFL8KJ4flcLZN8NhtRJiDwxsf7VwhQHjAhniCDvNONhi04UbqakSuOBQCWy6cK16MWk0rRB2U/XRKVgMlSRwl+1nyhWI+s0+Xs4KYgNvPtlBKuJvVniX4En+9yfxWVpDx2yc2+Bosl0o5fw77U0PakjMzOz4B);strokeColor=#ff5958;spacingTop=-3;spacingBottom=-3;spacingLeft=-3;spacingRight=-3;points=[];labelBackgroundColor=none;rounded=0;html=1;whiteSpace=wrap;fontFamily=Helvetica;fontSize=12;fontColor=default;" vertex="1" parent="2ktrdMOb3Cd3oE9HsooV-94">
          <mxGeometry width="138.125" height="47.68" as="geometry" />
        </mxCell>
        <mxCell id="2ktrdMOb3Cd3oE9HsooV-97" value="" style="shape=image;verticalLabelPosition=bottom;verticalAlign=top;imageAspect=0;aspect=fixed;image=data:image/svg+xml,PHN2ZyB4bWxucz0iaHR0cDovL3d3dy53My5vcmcvMjAwMC9zdmciIHdpZHRoPSIzMiIgaGVpZ2h0PSIzMiIgdmlld0JveD0iMCAwIDMyIDMyIiBmaWxsPSJub25lIj4mI3hhOzxwYXRoIGQ9Ik0wIDE2QzAgNy4xNjM0NCA3LjE2MzQ0IDAgMTYgMFYwQzI0LjgzNjYgMCAzMiA3LjE2MzQ0IDMyIDE2VjE2QzMyIDI0LjgzNjYgMjQuODM2NiAzMiAxNiAzMlYzMkM3LjE2MzQ0IDMyIDAgMjQuODM2NiAwIDE2VjE2WiIgZmlsbD0iIzUyODJGRiIvPiYjeGE7PHBhdGggZD0iTTIzLjcxIDE1LjI5M0wyMC4yMTMgMTEuNzY2QzE5LjEzNiAxMC42NzUgMTcuNjQ2IDEwIDE2IDEwQzE0LjM1NCAxMCAxMi44NjQgMTAuNjc1IDExLjc4NyAxMS43NjZMOC4yOTAwMSAxNS4yOTNDNy45MDMwMSAxNS42ODQgNy45MDMwMSAxNi4zMTYgOC4yOTAwMSAxNi43MDdMMTEuNzk1IDIwLjI0M0MxMi44NzEgMjEuMzI4IDE0LjM1OCAyMiAxNiAyMkMxNy42NDIgMjIgMTkuMTI5IDIxLjMyOCAyMC4yMDUgMjAuMjQzTDIzLjcxIDE2LjcwN0MyNC4wOTcgMTYuMzE2IDI0LjA5NyAxNS42ODQgMjMuNzEgMTUuMjkzWk0xNiAyMEMxMy43OTQgMjAgMTIgMTguMjA2IDEyIDE2QzEyIDEzLjc5NCAxMy43OTQgMTIgMTYgMTJDMTguMjA2IDEyIDIwIDEzLjc5NCAyMCAxNkMyMCAxOC4yMDYgMTguMjA2IDIwIDE2IDIwWk0xOCAxNi4wMDFMMTYgMTguMDAxTDE0IDE2LjAwMUwxNiAxNC4wMDFMMTggMTYuMDAxWiIgZmlsbD0id2hpdGUiLz4mI3hhOzwvc3ZnPg==;fontFamily=Helvetica;fontSize=12;fontColor=default;labelBackgroundColor=default;" vertex="1" parent="2ktrdMOb3Cd3oE9HsooV-94">
          <mxGeometry x="10.625" y="6" width="32" height="32" as="geometry" />
        </mxCell>
        <mxCell id="2ktrdMOb3Cd3oE9HsooV-98" value="" style="group" vertex="1" connectable="0" parent="2ktrdMOb3Cd3oE9HsooV-10">
          <mxGeometry x="9.179999999999986" y="339.11" width="138.125" height="47.67999999999995" as="geometry" />
        </mxCell>
        <mxCell id="2ktrdMOb3Cd3oE9HsooV-99" style="vsdxID=5;fillColor=none;gradientColor=none;shape=stencil(vVPLEoIgFP0aljgEVuPa6j+YRGUica6U9vdhUKk4LWzG3X0cOPdcOIilTclrgShpDOiLaGVmSsQOiFJZlQKksRFiR8TSXIMoQN+qzOU175F9dNX3/obOnSP9CUoeLktIFL8KJ4flcLZN8NhtRJiDwxsf7VwhQHjAhniCDvNONhi04UbqakSuOBQCWy6cK16MWk0rRB2U/XRKVgMlSRwl+1nyhWI+s0+Xs4KYgNvPtlBKuJvVniX4En+9yfxWVpDx2yc2+Bosl0o5fw77U0PakjMzOz4B);strokeColor=#ff5958;spacingTop=-3;spacingBottom=-3;spacingLeft=-3;spacingRight=-3;points=[];labelBackgroundColor=none;rounded=0;html=1;whiteSpace=wrap;fontFamily=Helvetica;fontSize=12;fontColor=default;" vertex="1" parent="2ktrdMOb3Cd3oE9HsooV-98">
          <mxGeometry width="138.125" height="47.68" as="geometry" />
        </mxCell>
        <mxCell id="2ktrdMOb3Cd3oE9HsooV-100" value="&lt;div style=&quot;font-size: 1px&quot;&gt;&lt;font style=&quot;font-size:22.58px;font-family:Arial;color:#000000;direction:ltr;letter-spacing:0px;line-height:120%;opacity:1&quot;&gt;ETCD&lt;/font&gt;&lt;/div&gt;" style="verticalAlign=bottom;align=center;overflow=width;vsdxID=6;fillColor=none;gradientColor=none;strokeColor=none;spacingTop=-3;spacingBottom=-3;spacingLeft=-3;spacingRight=-3;points=[];labelBackgroundColor=none;rounded=0;html=1;whiteSpace=wrap;fontFamily=Helvetica;fontSize=12;fontColor=default;" vertex="1" parent="2ktrdMOb3Cd3oE9HsooV-98">
          <mxGeometry x="47.8125" y="10.840000000000032" width="87.125" height="28" as="geometry" />
        </mxCell>
        <mxCell id="2ktrdMOb3Cd3oE9HsooV-101" value="" style="aspect=fixed;sketch=0;html=1;dashed=0;whitespace=wrap;verticalLabelPosition=bottom;verticalAlign=top;fillColor=#2875E2;strokeColor=#ffffff;points=[[0.005,0.63,0],[0.1,0.2,0],[0.9,0.2,0],[0.5,0,0],[0.995,0.63,0],[0.72,0.99,0],[0.5,1,0],[0.28,0.99,0]];shape=mxgraph.kubernetes.icon2;prIcon=etcd;fontFamily=Helvetica;fontSize=12;fontColor=default;labelBackgroundColor=default;" vertex="1" parent="2ktrdMOb3Cd3oE9HsooV-98">
          <mxGeometry x="13.366249999999997" y="6.840000000000032" width="35.42" height="34" as="geometry" />
        </mxCell>
        <mxCell id="2ktrdMOb3Cd3oE9HsooV-102" style="edgeStyle=orthogonalEdgeStyle;shape=connector;rounded=0;orthogonalLoop=1;jettySize=auto;html=1;entryX=0.498;entryY=0.055;entryDx=0;entryDy=0;entryPerimeter=0;strokeColor=default;align=center;verticalAlign=middle;fontFamily=Helvetica;fontSize=12;fontColor=default;labelBackgroundColor=default;startSize=8;endArrow=classic;endSize=8;startArrow=classic;startFill=1;" edge="1" parent="2ktrdMOb3Cd3oE9HsooV-10" source="2ktrdMOb3Cd3oE9HsooV-96" target="2ktrdMOb3Cd3oE9HsooV-99">
          <mxGeometry relative="1" as="geometry" />
        </mxCell>
        <mxCell id="2ktrdMOb3Cd3oE9HsooV-103" value="" style="group" vertex="1" connectable="0" parent="2ktrdMOb3Cd3oE9HsooV-10">
          <mxGeometry x="166.17999999999998" y="249.10999999999999" width="138.125" height="47.67999999999995" as="geometry" />
        </mxCell>
        <mxCell id="2ktrdMOb3Cd3oE9HsooV-104" style="vsdxID=5;fillColor=none;gradientColor=none;shape=stencil(vVPLEoIgFP0aljgEVuPa6j+YRGUica6U9vdhUKk4LWzG3X0cOPdcOIilTclrgShpDOiLaGVmSsQOiFJZlQKksRFiR8TSXIMoQN+qzOU175F9dNX3/obOnSP9CUoeLktIFL8KJ4flcLZN8NhtRJiDwxsf7VwhQHjAhniCDvNONhi04UbqakSuOBQCWy6cK16MWk0rRB2U/XRKVgMlSRwl+1nyhWI+s0+Xs4KYgNvPtlBKuJvVniX4En+9yfxWVpDx2yc2+Bosl0o5fw77U0PakjMzOz4B);strokeColor=#ff5958;spacingTop=-3;spacingBottom=-3;spacingLeft=-3;spacingRight=-3;points=[];labelBackgroundColor=none;rounded=0;html=1;whiteSpace=wrap;fontFamily=Helvetica;fontSize=12;fontColor=default;" vertex="1" parent="2ktrdMOb3Cd3oE9HsooV-103">
          <mxGeometry width="138.125" height="47.68" as="geometry" />
        </mxCell>
        <mxCell id="2ktrdMOb3Cd3oE9HsooV-105" value="&lt;div style=&quot;font-size: 1px&quot;&gt;&lt;font style=&quot;font-size:22.58px;font-family:Arial;color:#000000;direction:ltr;letter-spacing:0px;line-height:120%;opacity:1&quot;&gt;PMM&lt;/font&gt;&lt;/div&gt;" style="verticalAlign=bottom;align=center;overflow=width;vsdxID=6;fillColor=none;gradientColor=none;strokeColor=none;spacingTop=-3;spacingBottom=-3;spacingLeft=-3;spacingRight=-3;points=[];labelBackgroundColor=none;rounded=0;html=1;whiteSpace=wrap;fontFamily=Helvetica;fontSize=12;fontColor=default;" vertex="1" parent="2ktrdMOb3Cd3oE9HsooV-103">
          <mxGeometry x="25.5" y="9.840000000000032" width="87.125" height="28" as="geometry" />
        </mxCell>
        <mxCell id="2ktrdMOb3Cd3oE9HsooV-119" style="edgeStyle=orthogonalEdgeStyle;shape=connector;rounded=0;orthogonalLoop=1;jettySize=auto;html=1;strokeColor=default;align=center;verticalAlign=middle;fontFamily=Helvetica;fontSize=12;fontColor=default;labelBackgroundColor=default;startSize=8;endArrow=classic;endSize=8;startArrow=classic;startFill=1;" edge="1" parent="2ktrdMOb3Cd3oE9HsooV-10" source="2ktrdMOb3Cd3oE9HsooV-7" target="2ktrdMOb3Cd3oE9HsooV-96">
          <mxGeometry relative="1" as="geometry" />
        </mxCell>
        <mxCell id="2ktrdMOb3Cd3oE9HsooV-120" style="edgeStyle=orthogonalEdgeStyle;shape=connector;rounded=0;orthogonalLoop=1;jettySize=auto;html=1;strokeColor=default;align=center;verticalAlign=middle;fontFamily=Helvetica;fontSize=12;fontColor=default;labelBackgroundColor=default;startSize=8;endArrow=classic;endSize=8;dashed=1;" edge="1" parent="2ktrdMOb3Cd3oE9HsooV-10" source="2ktrdMOb3Cd3oE9HsooV-7" target="2ktrdMOb3Cd3oE9HsooV-104">
          <mxGeometry relative="1" as="geometry" />
        </mxCell>
        <mxCell id="2ktrdMOb3Cd3oE9HsooV-7" style="vsdxID=5;fillColor=none;gradientColor=none;shape=stencil(vVPLEoIgFP0aljgEVuPa6j+YRGUica6U9vdhUKk4LWzG3X0cOPdcOIilTclrgShpDOiLaGVmSsQOiFJZlQKksRFiR8TSXIMoQN+qzOU175F9dNX3/obOnSP9CUoeLktIFL8KJ4flcLZN8NhtRJiDwxsf7VwhQHjAhniCDvNONhi04UbqakSuOBQCWy6cK16MWk0rRB2U/XRKVgMlSRwl+1nyhWI+s0+Xs4KYgNvPtlBKuJvVniX4En+9yfxWVpDx2yc2+Bosl0o5fw77U0PakjMzOz4B);strokeColor=#ff5958;spacingTop=-3;spacingBottom=-3;spacingLeft=-3;spacingRight=-3;points=[];labelBackgroundColor=none;rounded=0;html=1;whiteSpace=wrap;container=0;" vertex="1" parent="2ktrdMOb3Cd3oE9HsooV-10">
          <mxGeometry x="165.17999999999998" y="103.22" width="138.125" height="105.5" as="geometry" />
        </mxCell>
        <mxCell id="2ktrdMOb3Cd3oE9HsooV-8" value="&lt;div style=&quot;font-size: 1px&quot;&gt;&lt;font style=&quot;font-size:22.58px;font-family:Arial;color:#000000;direction:ltr;letter-spacing:0px;line-height:120%;opacity:1&quot;&gt;PosrgreSQL&lt;/font&gt;&lt;/div&gt;" style="verticalAlign=bottom;align=center;overflow=width;vsdxID=6;fillColor=none;gradientColor=none;strokeColor=none;spacingTop=-3;spacingBottom=-3;spacingLeft=-3;spacingRight=-3;points=[];labelBackgroundColor=none;rounded=0;html=1;whiteSpace=wrap;container=0;" vertex="1" parent="2ktrdMOb3Cd3oE9HsooV-10">
          <mxGeometry x="166.17999999999998" y="148.22" width="138.125" height="53.21" as="geometry" />
        </mxCell>
        <mxCell id="2ktrdMOb3Cd3oE9HsooV-9" value="" style="shape=image;verticalLabelPosition=bottom;verticalAlign=top;imageAspect=0;aspect=fixed;image=data:image/svg+xml,PHN2ZyB4bWxucz0iaHR0cDovL3d3dy53My5vcmcvMjAwMC9zdmciIHdpZHRoPSIzMiIgaGVpZ2h0PSIzMiIgdmlld0JveD0iMCAwIDMyIDMyIiBmaWxsPSJub25lIj4mI3hhOzxwYXRoIGQ9Ik0wIDE2QzAgNy4xNjM0NCA3LjE2MzQ0IDAgMTYgMFYwQzI0LjgzNjYgMCAzMiA3LjE2MzQ0IDMyIDE2VjE2QzMyIDI0LjgzNjYgMjQuODM2NiAzMiAxNiAzMlYzMkM3LjE2MzQ0IDMyIDAgMjQuODM2NiAwIDE2VjE2WiIgZmlsbD0iIzUyODJGRiIvPiYjeGE7PHBhdGggZmlsbC1ydWxlPSJldmVub2RkIiBjbGlwLXJ1bGU9ImV2ZW5vZGQiIGQ9Ik0xMyA4SDE4QzIxLjMgOCAyNCAxMC43IDI0IDE0VjI0SDIwVjIwSDIyVjE5SDE4LjZDMTUuNSAxOSAxMyAxNi41IDEzIDEzLjRWOFpNMTkgMTdIMjFWMTVIMTlWMTdaTTEyIDkuMDk5OThWMTMuNEMxMiAxNi44IDE0LjYgMTkuNyAxOCAyMC4xVjIwLjZDMTggMjIgMTUuOCAyMy4xIDEzIDIzLjFDMTAuMiAyMy4xIDggMjIgOCAyMC42VjExLjZDOCAxMC4zIDkuNyA5LjI5OTk4IDEyIDkuMDk5OThaIiBmaWxsPSJ3aGl0ZSIvPiYjeGE7PC9zdmc+;container=0;" vertex="1" parent="2ktrdMOb3Cd3oE9HsooV-10">
          <mxGeometry x="213.46124999999998" y="107.22" width="36.26923076923077" height="36.26923076923077" as="geometry" />
        </mxCell>
        <mxCell id="2ktrdMOb3Cd3oE9HsooV-133" value="" style="group" vertex="1" connectable="0" parent="2ktrdMOb3Cd3oE9HsooV-10">
          <mxGeometry x="166.625" y="10" width="138.125" height="47.67999999999995" as="geometry" />
        </mxCell>
        <mxCell id="2ktrdMOb3Cd3oE9HsooV-134" style="vsdxID=5;fillColor=none;gradientColor=none;shape=stencil(vVPLEoIgFP0aljgEVuPa6j+YRGUica6U9vdhUKk4LWzG3X0cOPdcOIilTclrgShpDOiLaGVmSsQOiFJZlQKksRFiR8TSXIMoQN+qzOU175F9dNX3/obOnSP9CUoeLktIFL8KJ4flcLZN8NhtRJiDwxsf7VwhQHjAhniCDvNONhi04UbqakSuOBQCWy6cK16MWk0rRB2U/XRKVgMlSRwl+1nyhWI+s0+Xs4KYgNvPtlBKuJvVniX4En+9yfxWVpDx2yc2+Bosl0o5fw77U0PakjMzOz4B);strokeColor=#ff5958;spacingTop=-3;spacingBottom=-3;spacingLeft=-3;spacingRight=-3;points=[];labelBackgroundColor=none;rounded=0;html=1;whiteSpace=wrap;fontFamily=Helvetica;fontSize=12;fontColor=default;" vertex="1" parent="2ktrdMOb3Cd3oE9HsooV-133">
          <mxGeometry width="138.125" height="47.68" as="geometry" />
        </mxCell>
        <mxCell id="2ktrdMOb3Cd3oE9HsooV-135" value="&lt;div style=&quot;font-size: 1px&quot;&gt;&lt;font style=&quot;font-size:22.58px;font-family:Arial;color:#000000;direction:ltr;letter-spacing:0px;line-height:120%;opacity:1&quot;&gt;HAProxy&lt;/font&gt;&lt;/div&gt;" style="verticalAlign=bottom;align=center;overflow=width;vsdxID=6;fillColor=none;gradientColor=none;strokeColor=none;spacingTop=-3;spacingBottom=-3;spacingLeft=-3;spacingRight=-3;points=[];labelBackgroundColor=none;rounded=0;html=1;whiteSpace=wrap;fontFamily=Helvetica;fontSize=12;fontColor=default;" vertex="1" parent="2ktrdMOb3Cd3oE9HsooV-133">
          <mxGeometry x="10.625" y="9.84" width="116.875" height="28" as="geometry" />
        </mxCell>
        <mxCell id="2ktrdMOb3Cd3oE9HsooV-136" style="edgeStyle=orthogonalEdgeStyle;shape=connector;rounded=0;orthogonalLoop=1;jettySize=auto;html=1;entryX=0.51;entryY=-0.007;entryDx=0;entryDy=0;entryPerimeter=0;strokeColor=default;align=center;verticalAlign=middle;fontFamily=Helvetica;fontSize=12;fontColor=default;labelBackgroundColor=default;startSize=8;endArrow=classic;endSize=8;" edge="1" parent="2ktrdMOb3Cd3oE9HsooV-10" source="2ktrdMOb3Cd3oE9HsooV-134" target="2ktrdMOb3Cd3oE9HsooV-7">
          <mxGeometry relative="1" as="geometry" />
        </mxCell>
        <mxCell id="2ktrdMOb3Cd3oE9HsooV-159" value="" style="group" vertex="1" connectable="0" parent="2ktrdMOb3Cd3oE9HsooV-10">
          <mxGeometry x="175.3125" y="400" width="148.75" height="47.68" as="geometry" />
        </mxCell>
        <mxCell id="2ktrdMOb3Cd3oE9HsooV-160" style="vsdxID=5;fillColor=none;gradientColor=none;shape=stencil(vVPLEoIgFP0aljgEVuPa6j+YRGUica6U9vdhUKk4LWzG3X0cOPdcOIilTclrgShpDOiLaGVmSsQOiFJZlQKksRFiR8TSXIMoQN+qzOU175F9dNX3/obOnSP9CUoeLktIFL8KJ4flcLZN8NhtRJiDwxsf7VwhQHjAhniCDvNONhi04UbqakSuOBQCWy6cK16MWk0rRB2U/XRKVgMlSRwl+1nyhWI+s0+Xs4KYgNvPtlBKuJvVniX4En+9yfxWVpDx2yc2+Bosl0o5fw77U0PakjMzOz4B);strokeColor=#ff5958;spacingTop=-3;spacingBottom=-3;spacingLeft=-3;spacingRight=-3;points=[];labelBackgroundColor=none;rounded=0;html=1;whiteSpace=wrap;fontFamily=Helvetica;fontSize=12;fontColor=default;" vertex="1" parent="2ktrdMOb3Cd3oE9HsooV-159">
          <mxGeometry width="148.75" height="47.68000000000005" as="geometry" />
        </mxCell>
        <mxCell id="2ktrdMOb3Cd3oE9HsooV-161" value="&lt;div style=&quot;&quot;&gt;&lt;font face=&quot;Arial&quot;&gt;&lt;span style=&quot;font-size: 22.58px;&quot;&gt;pgBackRest&lt;/span&gt;&lt;/font&gt;&lt;/div&gt;" style="verticalAlign=bottom;align=center;overflow=width;vsdxID=6;fillColor=none;gradientColor=none;strokeColor=none;spacingTop=-3;spacingBottom=-3;spacingLeft=-3;spacingRight=-3;points=[];labelBackgroundColor=none;rounded=0;html=1;whiteSpace=wrap;fontFamily=Helvetica;fontSize=12;fontColor=default;" vertex="1" parent="2ktrdMOb3Cd3oE9HsooV-159">
          <mxGeometry x="10.625" y="10.84" width="134.693125" height="28" as="geometry" />
        </mxCell>
        <mxCell id="2ktrdMOb3Cd3oE9HsooV-165" style="edgeStyle=orthogonalEdgeStyle;shape=connector;rounded=0;orthogonalLoop=1;jettySize=auto;html=1;entryX=0.932;entryY=0.018;entryDx=0;entryDy=0;entryPerimeter=0;strokeColor=default;align=center;verticalAlign=middle;fontFamily=Helvetica;fontSize=12;fontColor=default;labelBackgroundColor=default;startSize=8;endArrow=classic;endSize=8;" edge="1" parent="2ktrdMOb3Cd3oE9HsooV-10" source="2ktrdMOb3Cd3oE9HsooV-7" target="2ktrdMOb3Cd3oE9HsooV-160">
          <mxGeometry relative="1" as="geometry">
            <Array as="points">
              <mxPoint x="314" y="156" />
            </Array>
          </mxGeometry>
        </mxCell>
        <mxCell id="Zcm5tQwCMB2YyKj0-IPv-57" value="" style="group" parent="1" vertex="1" connectable="0">
          <mxGeometry x="190" y="400" width="320" height="133.71" as="geometry" />
        </mxCell>
        <mxCell id="Zcm5tQwCMB2YyKj0-IPv-8" value="" style="shape=image;verticalLabelPosition=bottom;verticalAlign=top;imageAspect=0;aspect=fixed;image=data:image/svg+xml,PHN2ZyB4bWxucz0iaHR0cDovL3d3dy53My5vcmcvMjAwMC9zdmciIHdpZHRoPSIzMiIgaGVpZ2h0PSIzMiIgdmlld0JveD0iMCAwIDMyIDMyIiBmaWxsPSJub25lIj4mI3hhOzxwYXRoIGQ9Ik0wIDE2QzAgNy4xNjM0NCA3LjE2MzQ0IDAgMTYgMFYwQzI0LjgzNjYgMCAzMiA3LjE2MzQ0IDMyIDE2VjE2QzMyIDI0LjgzNjYgMjQuODM2NiAzMiAxNiAzMlYzMkM3LjE2MzQ0IDMyIDAgMjQuODM2NiAwIDE2VjE2WiIgZmlsbD0iIzUyODJGRiIvPiYjeGE7PHBhdGggZD0iTTExLjk5NSAyNEw3LjAwMDk4IDE3LjczOEw4Ljc4MTk4IDkuOTI3TDE2IDYuNDUzTDIzLjIxOCA5LjkyOEwyNC45OTkgMTcuNzM5TDIwLjAwNSAyNEgxMS45OTVaTTIwIDEzLjE5NkwxNS45OTkgMTAuODk5TDEyIDEzLjE5NlYxOC4xTDE2IDIwLjQwMUwyMCAxOC4xVjEzLjE5NlpNMTguNzggMTMuODk2SDE4Ljc4N0wxNiAxNS40OTlMMTMuMjE0IDEzLjg5NUgxMy4yMTlMMTUuOTk5IDEyLjI5OUwxOC43OCAxMy44OTZaIiBmaWxsPSJ3aGl0ZSIvPiYjeGE7PC9zdmc+;container=0;" parent="Zcm5tQwCMB2YyKj0-IPv-57" vertex="1">
          <mxGeometry x="43.99515151515152" y="86.14999999999996" width="27.69545454545455" height="27.69545454545455" as="geometry" />
        </mxCell>
        <mxCell id="Zcm5tQwCMB2YyKj0-IPv-6" value="&lt;div style=&quot;font-size: 1px&quot;&gt;&lt;font style=&quot;font-size:22.58px;font-family:Arial;color:#000000;direction:ltr;letter-spacing:0px;line-height:120%;opacity:1&quot;&gt;Kubernetes&lt;br&gt;&lt;/font&gt;&lt;/div&gt;&lt;div style=&quot;font-size: 1px&quot;&gt;&lt;font style=&quot;font-size:22.58px;font-family:Arial;color:#000000;direction:ltr;letter-spacing:0px;line-height:120%;opacity:1&quot;&gt;cluster 1&lt;/font&gt;&lt;/div&gt;" style="verticalAlign=middle;align=center;overflow=width;vsdxID=7;fillColor=none;gradientColor=none;shape=stencil(nZBLDoAgDERP0z3SIyjew0SURgSD+Lu9kMZoXLhwN9O+tukAlrNpJg1SzDH4QW/URgNYgZTkjA4UkwJUgGXng+6DX1zLfmoymdXo17xh5zmRJ6Q42BWCfc2oJfdAr+Yv+AP9Cb7OJ3H/2JG1HNGz/84klThPVCc=);strokeColor=none;points=[];labelBackgroundColor=none;rounded=0;html=1;whiteSpace=wrap;container=0;" parent="Zcm5tQwCMB2YyKj0-IPv-57" vertex="1">
          <mxGeometry x="9.696969696969697" width="116.36363636363637" height="86.13999999999999" as="geometry" />
        </mxCell>
        <mxCell id="Zcm5tQwCMB2YyKj0-IPv-5" style="vsdxID=6;fillColor=none;gradientColor=none;shape=stencil(vVNdD4IgFP01POIQms1nq//BEpVF4q6U9u/DoFJxPdjm2/04cO65cBDL2oo3AlHSGtAX0cncVIgdEKWyrgRIYyPEjohlhQZRgr7VucsbPiCH6Krvww29O0eGE5Q8XJaSaPcqnByWw9k2wWNZRFMHhzc+SlwhQHhATDxBj3kvWwzacCN1PSFXHEqBLRcuFC8nrbYTognKfjol65GSNIn28SL5SjGf2efL2UBMwO1nWykl3M1mzxJ8ib/eZHkrG8j47RMbfA1WSKWcP8f9uSFtyZmZHZ8=);strokeColor=#5282ff;spacingTop=-3;spacingBottom=-3;spacingLeft=-3;spacingRight=-3;points=[];labelBackgroundColor=none;rounded=0;html=1;whiteSpace=wrap;container=0;" parent="Zcm5tQwCMB2YyKj0-IPv-57" vertex="1">
          <mxGeometry width="320" height="133.70999999999998" as="geometry" />
        </mxCell>
        <mxCell id="2ktrdMOb3Cd3oE9HsooV-17" style="vsdxID=6;fillColor=none;gradientColor=none;shape=stencil(vVNdD4IgFP01POIQms1nq//BEpVF4q6U9u/DoFJxPdjm2/04cO65cBDL2oo3AlHSGtAX0cncVIgdEKWyrgRIYyPEjohlhQZRgr7VucsbPiCH6Krvww29O0eGE5Q8XJaSaPcqnByWw9k2wWNZRFMHhzc+SlwhQHhATDxBj3kvWwzacCN1PSFXHEqBLRcuFC8nrbYTognKfjol65GSNIn28SL5SjGf2efL2UBMwO1nWykl3M1mzxJ8ib/eZHkrG8j47RMbfA1WSKWcP8f9uSFtyZmZHZ8=);strokeColor=#5282ff;spacingTop=-3;spacingBottom=-3;spacingLeft=-3;spacingRight=-3;points=[];labelBackgroundColor=none;rounded=0;html=1;whiteSpace=wrap;container=0;" vertex="1" parent="1">
          <mxGeometry x="785.11" y="403.15000000000003" width="320" height="133.70999999999998" as="geometry" />
        </mxCell>
        <mxCell id="2ktrdMOb3Cd3oE9HsooV-15" value="" style="shape=image;verticalLabelPosition=bottom;verticalAlign=top;imageAspect=0;aspect=fixed;image=data:image/svg+xml,PHN2ZyB4bWxucz0iaHR0cDovL3d3dy53My5vcmcvMjAwMC9zdmciIHdpZHRoPSIzMiIgaGVpZ2h0PSIzMiIgdmlld0JveD0iMCAwIDMyIDMyIiBmaWxsPSJub25lIj4mI3hhOzxwYXRoIGQ9Ik0wIDE2QzAgNy4xNjM0NCA3LjE2MzQ0IDAgMTYgMFYwQzI0LjgzNjYgMCAzMiA3LjE2MzQ0IDMyIDE2VjE2QzMyIDI0LjgzNjYgMjQuODM2NiAzMiAxNiAzMlYzMkM3LjE2MzQ0IDMyIDAgMjQuODM2NiAwIDE2VjE2WiIgZmlsbD0iIzUyODJGRiIvPiYjeGE7PHBhdGggZD0iTTExLjk5NSAyNEw3LjAwMDk4IDE3LjczOEw4Ljc4MTk4IDkuOTI3TDE2IDYuNDUzTDIzLjIxOCA5LjkyOEwyNC45OTkgMTcuNzM5TDIwLjAwNSAyNEgxMS45OTVaTTIwIDEzLjE5NkwxNS45OTkgMTAuODk5TDEyIDEzLjE5NlYxOC4xTDE2IDIwLjQwMUwyMCAxOC4xVjEzLjE5NlpNMTguNzggMTMuODk2SDE4Ljc4N0wxNiAxNS40OTlMMTMuMjE0IDEzLjg5NUgxMy4yMTlMMTUuOTk5IDEyLjI5OUwxOC43OCAxMy44OTZaIiBmaWxsPSJ3aGl0ZSIvPiYjeGE7PC9zdmc+;container=0;" vertex="1" parent="1">
          <mxGeometry x="844.2951515151515" y="492.3" width="27.69545454545455" height="27.69545454545455" as="geometry" />
        </mxCell>
        <mxCell id="2ktrdMOb3Cd3oE9HsooV-16" value="&lt;div style=&quot;font-size: 1px&quot;&gt;&lt;font style=&quot;font-size:22.58px;font-family:Arial;color:#000000;direction:ltr;letter-spacing:0px;line-height:120%;opacity:1&quot;&gt;Kubernetes&lt;br&gt;&lt;/font&gt;&lt;/div&gt;&lt;div style=&quot;font-size: 1px&quot;&gt;&lt;font style=&quot;font-size:22.58px;font-family:Arial;color:#000000;direction:ltr;letter-spacing:0px;line-height:120%;opacity:1&quot;&gt;cluster 2&lt;/font&gt;&lt;/div&gt;" style="verticalAlign=middle;align=center;overflow=width;vsdxID=7;fillColor=none;gradientColor=none;shape=stencil(nZBLDoAgDERP0z3SIyjew0SURgSD+Lu9kMZoXLhwN9O+tukAlrNpJg1SzDH4QW/URgNYgZTkjA4UkwJUgGXng+6DX1zLfmoymdXo17xh5zmRJ6Q42BWCfc2oJfdAr+Yv+AP9Cb7OJ3H/2JG1HNGz/84klThPVCc=);strokeColor=none;points=[];labelBackgroundColor=none;rounded=0;html=1;whiteSpace=wrap;container=0;" vertex="1" parent="1">
          <mxGeometry x="799.9569696969697" y="400" width="116.36363636363637" height="86.13999999999999" as="geometry" />
        </mxCell>
        <mxCell id="2ktrdMOb3Cd3oE9HsooV-18" value="&lt;div style=&quot;font-size: 1px&quot;&gt;&lt;font style=&quot;font-size:22.58px;font-family:Arial;color:#000000;direction:ltr;letter-spacing:0px;line-height:120%;opacity:1&quot;&gt;Зона доступности 3&lt;br&gt;&lt;/font&gt;&lt;/div&gt;" style="verticalAlign=bottom;align=center;overflow=width;vsdxID=5;fillColor=#e3ebff;gradientColor=none;shape=stencil(vVNBDsIgEHwNRwxCjHqu+g9iaUtEaBa09fdSwdpi9dBDb8vOwOwsGcQyW/FaIEqsA3MRjcxdhdgBUSp1JUA6XyF2RCwrDIgSzE3n4VzzjtlVV3PvXmjDPdLdoOQRTrvtavNqnAKXw9mDELkBIhDJaxrJZIy/YRLfbjFvpcVgHHfS6JGu4lAK7GVwoXg5gmwjRP3VjoMpqQcm9tPKs0z0Y6crWcBHqt0PN8tJspXFfmNKdpaBH8tYwML/VPjiE6dCKhXSOMTT+PlWiC47PgE=);strokeColor=none;spacingTop=-3;spacingBottom=-3;spacingLeft=-3;spacingRight=-3;points=[];labelBackgroundColor=none;rounded=0;html=1;whiteSpace=wrap;container=0;" vertex="1" parent="1">
          <mxGeometry x="1310" y="360" width="390.22" height="760" as="geometry" />
        </mxCell>
        <mxCell id="2ktrdMOb3Cd3oE9HsooV-19" style="edgeStyle=orthogonalEdgeStyle;rounded=0;orthogonalLoop=1;jettySize=auto;html=1;exitX=0.5;exitY=1.004;exitDx=0;exitDy=0;exitPerimeter=0;entryX=0.484;entryY=-0.016;entryDx=0;entryDy=0;entryPerimeter=0;" edge="1" source="2ktrdMOb3Cd3oE9HsooV-22" target="2ktrdMOb3Cd3oE9HsooV-144" parent="1">
          <mxGeometry relative="1" as="geometry">
            <mxPoint x="1760" y="590" as="targetPoint" />
          </mxGeometry>
        </mxCell>
        <mxCell id="2ktrdMOb3Cd3oE9HsooV-20" value="TCP" style="edgeLabel;html=1;align=center;verticalAlign=middle;resizable=0;points=[];container=0;" vertex="1" connectable="0" parent="2ktrdMOb3Cd3oE9HsooV-19">
          <mxGeometry x="-0.0566" y="2" relative="1" as="geometry">
            <mxPoint as="offset" />
          </mxGeometry>
        </mxCell>
        <mxCell id="2ktrdMOb3Cd3oE9HsooV-21" value="" style="shape=image;verticalLabelPosition=bottom;verticalAlign=top;imageAspect=0;aspect=fixed;image=data:image/svg+xml,PHN2ZyB4bWxucz0iaHR0cDovL3d3dy53My5vcmcvMjAwMC9zdmciIHdpZHRoPSIzMiIgaGVpZ2h0PSIzMiIgdmlld0JveD0iMCAwIDMyIDMyIiBmaWxsPSJub25lIj4mI3hhOzxwYXRoIGQ9Ik0wIDE2QzAgNy4xNjM0NCA3LjE2MzQ0IDAgMTYgMFYwQzI0LjgzNjYgMCAzMiA3LjE2MzQ0IDMyIDE2VjE2QzMyIDI0LjgzNjYgMjQuODM2NiAzMiAxNiAzMlYzMkM3LjE2MzQ0IDMyIDAgMjQuODM2NiAwIDE2VjE2WiIgZmlsbD0iIzUyODJGRiIvPiYjeGE7PHBhdGggZD0iTTExLjk5NSAyNEw3LjAwMDk4IDE3LjczOEw4Ljc4MTk4IDkuOTI3TDE2IDYuNDUzTDIzLjIxOCA5LjkyOEwyNC45OTkgMTcuNzM5TDIwLjAwNSAyNEgxMS45OTVaTTIwIDEzLjE5NkwxNS45OTkgMTAuODk5TDEyIDEzLjE5NlYxOC4xTDE2IDIwLjQwMUwyMCAxOC4xVjEzLjE5NlpNMTguNzggMTMuODk2SDE4Ljc4N0wxNiAxNS40OTlMMTMuMjE0IDEzLjg5NUgxMy4yMTlMMTUuOTk5IDEyLjI5OUwxOC43OCAxMy44OTZaIiBmaWxsPSJ3aGl0ZSIvPiYjeGE7PC9zdmc+;container=0;" vertex="1" parent="1">
          <mxGeometry x="1558.35" y="430" width="28.571428571428573" height="28.571428571428573" as="geometry" />
        </mxCell>
        <mxCell id="2ktrdMOb3Cd3oE9HsooV-22" style="vsdxID=5;fillColor=none;gradientColor=none;shape=stencil(vVPLEoIgFP0aljgEVuPa6j+YRGUica6U9vdhUKk4LWzG3X0cOPdcOIilTclrgShpDOiLaGVmSsQOiFJZlQKksRFiR8TSXIMoQN+qzOU175F9dNX3/obOnSP9CUoeLktIFL8KJ4flcLZN8NhtRJiDwxsf7VwhQHjAhniCDvNONhi04UbqakSuOBQCWy6cK16MWk0rRB2U/XRKVgMlSRwl+1nyhWI+s0+Xs4KYgNvPtlBKuJvVniX4En+9yfxWVpDx2yc2+Bosl0o5fw77U0PakjMzOz4B);strokeColor=#ff5958;spacingTop=-3;spacingBottom=-3;spacingLeft=-3;spacingRight=-3;points=[];labelBackgroundColor=none;rounded=0;html=1;whiteSpace=wrap;container=0;" vertex="1" parent="1">
          <mxGeometry x="1510" y="416.86" width="130" height="100" as="geometry" />
        </mxCell>
        <mxCell id="2ktrdMOb3Cd3oE9HsooV-23" value="&lt;div style=&quot;font-size: 1px&quot;&gt;&lt;font style=&quot;font-size:22.58px;font-family:Arial;color:#000000;direction:ltr;letter-spacing:0px;line-height:120%;opacity:1&quot;&gt;InsureTech&lt;/font&gt;&lt;/div&gt;&lt;div style=&quot;font-size: 1px&quot;&gt;&lt;font style=&quot;font-size:22.58px;font-family:Arial;color:#000000;direction:ltr;letter-spacing:0px;line-height:120%;opacity:1&quot;&gt;namespace&lt;/font&gt;&lt;/div&gt;" style="verticalAlign=bottom;align=center;overflow=width;vsdxID=6;fillColor=none;gradientColor=none;strokeColor=none;spacingTop=-3;spacingBottom=-3;spacingLeft=-3;spacingRight=-3;points=[];labelBackgroundColor=none;rounded=0;html=1;whiteSpace=wrap;container=0;" vertex="1" parent="1">
          <mxGeometry x="1510" y="460" width="130" height="54" as="geometry" />
        </mxCell>
        <mxCell id="2ktrdMOb3Cd3oE9HsooV-27" value="" style="group" vertex="1" connectable="0" parent="1">
          <mxGeometry x="1340" y="580" width="340" height="480" as="geometry" />
        </mxCell>
        <mxCell id="2ktrdMOb3Cd3oE9HsooV-28" style="vsdxID=6;fillColor=none;gradientColor=none;shape=stencil(vVNdD4IgFP01POIQms1nq//BEpVF4q6U9u/DoFJxPdjm2/04cO65cBDL2oo3AlHSGtAX0cncVIgdEKWyrgRIYyPEjohlhQZRgr7VucsbPiCH6Krvww29O0eGE5Q8XJaSaPcqnByWw9k2wWNZRFMHhzc+SlwhQHhATDxBj3kvWwzacCN1PSFXHEqBLRcuFC8nrbYTognKfjol65GSNIn28SL5SjGf2efL2UBMwO1nWykl3M1mzxJ8ib/eZHkrG8j47RMbfA1WSKWcP8f9uSFtyZmZHZ8=);strokeColor=#5282ff;spacingTop=-3;spacingBottom=-3;spacingLeft=-3;spacingRight=-3;points=[];labelBackgroundColor=none;rounded=0;html=1;whiteSpace=wrap;container=0;" vertex="1" parent="2ktrdMOb3Cd3oE9HsooV-27">
          <mxGeometry width="340" height="479.9999999999999" as="geometry" />
        </mxCell>
        <mxCell id="2ktrdMOb3Cd3oE9HsooV-92" value="" style="shape=image;verticalLabelPosition=bottom;verticalAlign=top;imageAspect=0;aspect=fixed;image=data:image/svg+xml,PHN2ZyB4bWxucz0iaHR0cDovL3d3dy53My5vcmcvMjAwMC9zdmciIHdpZHRoPSIzMiIgaGVpZ2h0PSIzMiIgdmlld0JveD0iMCAwIDMyIDMyIiBmaWxsPSJub25lIj4mI3hhOzxwYXRoIGQ9Ik0wIDE2QzAgNy4xNjM0NCA3LjE2MzQ0IDAgMTYgMFYwQzI0LjgzNjYgMCAzMiA3LjE2MzQ0IDMyIDE2VjE2QzMyIDI0LjgzNjYgMjQuODM2NiAzMiAxNiAzMlYzMkM3LjE2MzQ0IDMyIDAgMjQuODM2NiAwIDE2VjE2WiIgZmlsbD0iIzUyODJGRiIvPiYjeGE7PHBhdGggZD0iTTI0IDE1VjEzSDIyVjExQzIyIDEwLjQgMjEuNiAxMCAyMSAxMEgxOVY4SDE3VjEwSDE1VjhIMTNWMTBIMTFDMTAuNCAxMCAxMCAxMC40IDEwIDExVjEzSDhWMTVIMTBWMTdIOFYxOUgxMFYyMUMxMCAyMS42IDEwLjQgMjIgMTEgMjJIMTNWMjRIMTVWMjJIMTdWMjRIMTlWMjJIMjFDMjEuNiAyMiAyMiAyMS42IDIyIDIxVjE5SDI0VjE3SDIyVjE1SDI0Wk0xOSAxOUgxM1YxM0gxOVYxOVoiIGZpbGw9IndoaXRlIi8+JiN4YTs8L3N2Zz4=;container=0;" vertex="1" parent="2ktrdMOb3Cd3oE9HsooV-27">
          <mxGeometry x="-0.005151515151510466" y="446.55286964325774" width="25.09090909090909" height="25.09090909090909" as="geometry" />
        </mxCell>
        <mxCell id="2ktrdMOb3Cd3oE9HsooV-93" value="&lt;div style=&quot;font-size: 1px&quot;&gt;&lt;font style=&quot;font-size:22.58px;font-family:Arial;color:#000000;direction:ltr;letter-spacing:0px;line-height:120%;opacity:1&quot;&gt;VM 3&lt;br&gt;&lt;/font&gt;&lt;/div&gt;" style="verticalAlign=middle;align=center;overflow=width;vsdxID=7;fillColor=none;gradientColor=none;shape=stencil(nZBLDoAgDERP0z3SIyjew0SURgSD+Lu9kMZoXLhwN9O+tukAlrNpJg1SzDH4QW/URgNYgZTkjA4UkwJUgGXng+6DX1zLfmoymdXo17xh5zmRJ6Q42BWCfc2oJfdAr+Yv+AP9Cb7OJ3H/2JG1HNGz/84klThPVCc=);strokeColor=none;points=[];labelBackgroundColor=none;rounded=0;html=1;whiteSpace=wrap;container=0;" vertex="1" parent="2ktrdMOb3Cd3oE9HsooV-27">
          <mxGeometry x="10.625" y="440" width="99.120625" height="38.2" as="geometry" />
        </mxCell>
        <mxCell id="2ktrdMOb3Cd3oE9HsooV-110" value="" style="group" vertex="1" connectable="0" parent="2ktrdMOb3Cd3oE9HsooV-27">
          <mxGeometry x="14.875" y="338.89" width="138.125" height="47.67999999999995" as="geometry" />
        </mxCell>
        <mxCell id="2ktrdMOb3Cd3oE9HsooV-111" style="vsdxID=5;fillColor=none;gradientColor=none;shape=stencil(vVPLEoIgFP0aljgEVuPa6j+YRGUica6U9vdhUKk4LWzG3X0cOPdcOIilTclrgShpDOiLaGVmSsQOiFJZlQKksRFiR8TSXIMoQN+qzOU175F9dNX3/obOnSP9CUoeLktIFL8KJ4flcLZN8NhtRJiDwxsf7VwhQHjAhniCDvNONhi04UbqakSuOBQCWy6cK16MWk0rRB2U/XRKVgMlSRwl+1nyhWI+s0+Xs4KYgNvPtlBKuJvVniX4En+9yfxWVpDx2yc2+Bosl0o5fw77U0PakjMzOz4B);strokeColor=#ff5958;spacingTop=-3;spacingBottom=-3;spacingLeft=-3;spacingRight=-3;points=[];labelBackgroundColor=none;rounded=0;html=1;whiteSpace=wrap;fontFamily=Helvetica;fontSize=12;fontColor=default;" vertex="1" parent="2ktrdMOb3Cd3oE9HsooV-110">
          <mxGeometry width="138.125" height="47.68" as="geometry" />
        </mxCell>
        <mxCell id="2ktrdMOb3Cd3oE9HsooV-112" value="&lt;div style=&quot;font-size: 1px&quot;&gt;&lt;font style=&quot;font-size:22.58px;font-family:Arial;color:#000000;direction:ltr;letter-spacing:0px;line-height:120%;opacity:1&quot;&gt;ETCD&lt;/font&gt;&lt;/div&gt;" style="verticalAlign=bottom;align=center;overflow=width;vsdxID=6;fillColor=none;gradientColor=none;strokeColor=none;spacingTop=-3;spacingBottom=-3;spacingLeft=-3;spacingRight=-3;points=[];labelBackgroundColor=none;rounded=0;html=1;whiteSpace=wrap;fontFamily=Helvetica;fontSize=12;fontColor=default;" vertex="1" parent="2ktrdMOb3Cd3oE9HsooV-110">
          <mxGeometry x="47.8125" y="10.840000000000032" width="87.125" height="28" as="geometry" />
        </mxCell>
        <mxCell id="2ktrdMOb3Cd3oE9HsooV-113" value="" style="aspect=fixed;sketch=0;html=1;dashed=0;whitespace=wrap;verticalLabelPosition=bottom;verticalAlign=top;fillColor=#2875E2;strokeColor=#ffffff;points=[[0.005,0.63,0],[0.1,0.2,0],[0.9,0.2,0],[0.5,0,0],[0.995,0.63,0],[0.72,0.99,0],[0.5,1,0],[0.28,0.99,0]];shape=mxgraph.kubernetes.icon2;prIcon=etcd;fontFamily=Helvetica;fontSize=12;fontColor=default;labelBackgroundColor=default;" vertex="1" parent="2ktrdMOb3Cd3oE9HsooV-110">
          <mxGeometry x="13.366249999999997" y="6.840000000000032" width="35.42" height="34" as="geometry" />
        </mxCell>
        <mxCell id="2ktrdMOb3Cd3oE9HsooV-106" value="" style="group" vertex="1" connectable="0" parent="2ktrdMOb3Cd3oE9HsooV-27">
          <mxGeometry x="14.875" y="238.89" width="138.125" height="47.67999999999995" as="geometry" />
        </mxCell>
        <mxCell id="2ktrdMOb3Cd3oE9HsooV-107" value="&lt;div style=&quot;font-size: 1px&quot;&gt;&lt;font style=&quot;font-size:22.58px;font-family:Arial;color:#000000;direction:ltr;letter-spacing:0px;line-height:120%;opacity:1&quot;&gt;Patroni&lt;/font&gt;&lt;/div&gt;" style="verticalAlign=bottom;align=center;overflow=width;vsdxID=6;fillColor=none;gradientColor=none;strokeColor=none;spacingTop=-3;spacingBottom=-3;spacingLeft=-3;spacingRight=-3;points=[];labelBackgroundColor=none;rounded=0;html=1;whiteSpace=wrap;fontFamily=Helvetica;fontSize=12;fontColor=default;" vertex="1" parent="2ktrdMOb3Cd3oE9HsooV-106">
          <mxGeometry x="46.75" y="6" width="87.125" height="28" as="geometry" />
        </mxCell>
        <mxCell id="2ktrdMOb3Cd3oE9HsooV-108" style="vsdxID=5;fillColor=none;gradientColor=none;shape=stencil(vVPLEoIgFP0aljgEVuPa6j+YRGUica6U9vdhUKk4LWzG3X0cOPdcOIilTclrgShpDOiLaGVmSsQOiFJZlQKksRFiR8TSXIMoQN+qzOU175F9dNX3/obOnSP9CUoeLktIFL8KJ4flcLZN8NhtRJiDwxsf7VwhQHjAhniCDvNONhi04UbqakSuOBQCWy6cK16MWk0rRB2U/XRKVgMlSRwl+1nyhWI+s0+Xs4KYgNvPtlBKuJvVniX4En+9yfxWVpDx2yc2+Bosl0o5fw77U0PakjMzOz4B);strokeColor=#ff5958;spacingTop=-3;spacingBottom=-3;spacingLeft=-3;spacingRight=-3;points=[];labelBackgroundColor=none;rounded=0;html=1;whiteSpace=wrap;fontFamily=Helvetica;fontSize=12;fontColor=default;" vertex="1" parent="2ktrdMOb3Cd3oE9HsooV-106">
          <mxGeometry width="138.125" height="47.68" as="geometry" />
        </mxCell>
        <mxCell id="2ktrdMOb3Cd3oE9HsooV-109" value="" style="shape=image;verticalLabelPosition=bottom;verticalAlign=top;imageAspect=0;aspect=fixed;image=data:image/svg+xml,PHN2ZyB4bWxucz0iaHR0cDovL3d3dy53My5vcmcvMjAwMC9zdmciIHdpZHRoPSIzMiIgaGVpZ2h0PSIzMiIgdmlld0JveD0iMCAwIDMyIDMyIiBmaWxsPSJub25lIj4mI3hhOzxwYXRoIGQ9Ik0wIDE2QzAgNy4xNjM0NCA3LjE2MzQ0IDAgMTYgMFYwQzI0LjgzNjYgMCAzMiA3LjE2MzQ0IDMyIDE2VjE2QzMyIDI0LjgzNjYgMjQuODM2NiAzMiAxNiAzMlYzMkM3LjE2MzQ0IDMyIDAgMjQuODM2NiAwIDE2VjE2WiIgZmlsbD0iIzUyODJGRiIvPiYjeGE7PHBhdGggZD0iTTIzLjcxIDE1LjI5M0wyMC4yMTMgMTEuNzY2QzE5LjEzNiAxMC42NzUgMTcuNjQ2IDEwIDE2IDEwQzE0LjM1NCAxMCAxMi44NjQgMTAuNjc1IDExLjc4NyAxMS43NjZMOC4yOTAwMSAxNS4yOTNDNy45MDMwMSAxNS42ODQgNy45MDMwMSAxNi4zMTYgOC4yOTAwMSAxNi43MDdMMTEuNzk1IDIwLjI0M0MxMi44NzEgMjEuMzI4IDE0LjM1OCAyMiAxNiAyMkMxNy42NDIgMjIgMTkuMTI5IDIxLjMyOCAyMC4yMDUgMjAuMjQzTDIzLjcxIDE2LjcwN0MyNC4wOTcgMTYuMzE2IDI0LjA5NyAxNS42ODQgMjMuNzEgMTUuMjkzWk0xNiAyMEMxMy43OTQgMjAgMTIgMTguMjA2IDEyIDE2QzEyIDEzLjc5NCAxMy43OTQgMTIgMTYgMTJDMTguMjA2IDEyIDIwIDEzLjc5NCAyMCAxNkMyMCAxOC4yMDYgMTguMjA2IDIwIDE2IDIwWk0xOCAxNi4wMDFMMTYgMTguMDAxTDE0IDE2LjAwMUwxNiAxNC4wMDFMMTggMTYuMDAxWiIgZmlsbD0id2hpdGUiLz4mI3hhOzwvc3ZnPg==;fontFamily=Helvetica;fontSize=12;fontColor=default;labelBackgroundColor=default;" vertex="1" parent="2ktrdMOb3Cd3oE9HsooV-106">
          <mxGeometry x="10.625" y="6" width="32" height="32" as="geometry" />
        </mxCell>
        <mxCell id="2ktrdMOb3Cd3oE9HsooV-114" style="edgeStyle=orthogonalEdgeStyle;shape=connector;rounded=0;orthogonalLoop=1;jettySize=auto;html=1;entryX=0.498;entryY=0.055;entryDx=0;entryDy=0;entryPerimeter=0;strokeColor=default;align=center;verticalAlign=middle;fontFamily=Helvetica;fontSize=12;fontColor=default;labelBackgroundColor=default;startSize=8;endArrow=classic;endSize=8;startArrow=classic;startFill=1;" edge="1" parent="2ktrdMOb3Cd3oE9HsooV-27" source="2ktrdMOb3Cd3oE9HsooV-108" target="2ktrdMOb3Cd3oE9HsooV-111">
          <mxGeometry relative="1" as="geometry" />
        </mxCell>
        <mxCell id="2ktrdMOb3Cd3oE9HsooV-115" value="" style="group" vertex="1" connectable="0" parent="2ktrdMOb3Cd3oE9HsooV-27">
          <mxGeometry x="172.875" y="238.89" width="138.125" height="47.67999999999995" as="geometry" />
        </mxCell>
        <mxCell id="2ktrdMOb3Cd3oE9HsooV-116" style="vsdxID=5;fillColor=none;gradientColor=none;shape=stencil(vVPLEoIgFP0aljgEVuPa6j+YRGUica6U9vdhUKk4LWzG3X0cOPdcOIilTclrgShpDOiLaGVmSsQOiFJZlQKksRFiR8TSXIMoQN+qzOU175F9dNX3/obOnSP9CUoeLktIFL8KJ4flcLZN8NhtRJiDwxsf7VwhQHjAhniCDvNONhi04UbqakSuOBQCWy6cK16MWk0rRB2U/XRKVgMlSRwl+1nyhWI+s0+Xs4KYgNvPtlBKuJvVniX4En+9yfxWVpDx2yc2+Bosl0o5fw77U0PakjMzOz4B);strokeColor=#ff5958;spacingTop=-3;spacingBottom=-3;spacingLeft=-3;spacingRight=-3;points=[];labelBackgroundColor=none;rounded=0;html=1;whiteSpace=wrap;fontFamily=Helvetica;fontSize=12;fontColor=default;" vertex="1" parent="2ktrdMOb3Cd3oE9HsooV-115">
          <mxGeometry width="138.125" height="47.68" as="geometry" />
        </mxCell>
        <mxCell id="2ktrdMOb3Cd3oE9HsooV-117" value="&lt;div style=&quot;font-size: 1px&quot;&gt;&lt;font style=&quot;font-size:22.58px;font-family:Arial;color:#000000;direction:ltr;letter-spacing:0px;line-height:120%;opacity:1&quot;&gt;PMM&lt;/font&gt;&lt;/div&gt;" style="verticalAlign=bottom;align=center;overflow=width;vsdxID=6;fillColor=none;gradientColor=none;strokeColor=none;spacingTop=-3;spacingBottom=-3;spacingLeft=-3;spacingRight=-3;points=[];labelBackgroundColor=none;rounded=0;html=1;whiteSpace=wrap;fontFamily=Helvetica;fontSize=12;fontColor=default;" vertex="1" parent="2ktrdMOb3Cd3oE9HsooV-115">
          <mxGeometry x="25.5" y="9.840000000000032" width="87.125" height="28" as="geometry" />
        </mxCell>
        <mxCell id="2ktrdMOb3Cd3oE9HsooV-121" style="edgeStyle=orthogonalEdgeStyle;shape=connector;rounded=0;orthogonalLoop=1;jettySize=auto;html=1;strokeColor=default;align=center;verticalAlign=middle;fontFamily=Helvetica;fontSize=12;fontColor=default;labelBackgroundColor=default;startSize=8;endArrow=classic;endSize=8;startArrow=classic;startFill=1;" edge="1" parent="2ktrdMOb3Cd3oE9HsooV-27" source="2ktrdMOb3Cd3oE9HsooV-24" target="2ktrdMOb3Cd3oE9HsooV-108">
          <mxGeometry relative="1" as="geometry" />
        </mxCell>
        <mxCell id="2ktrdMOb3Cd3oE9HsooV-24" style="vsdxID=5;fillColor=none;gradientColor=none;shape=stencil(vVPLEoIgFP0aljgEVuPa6j+YRGUica6U9vdhUKk4LWzG3X0cOPdcOIilTclrgShpDOiLaGVmSsQOiFJZlQKksRFiR8TSXIMoQN+qzOU175F9dNX3/obOnSP9CUoeLktIFL8KJ4flcLZN8NhtRJiDwxsf7VwhQHjAhniCDvNONhi04UbqakSuOBQCWy6cK16MWk0rRB2U/XRKVgMlSRwl+1nyhWI+s0+Xs4KYgNvPtlBKuJvVniX4En+9yfxWVpDx2yc2+Bosl0o5fw77U0PakjMzOz4B);strokeColor=#ff5958;spacingTop=-3;spacingBottom=-3;spacingLeft=-3;spacingRight=-3;points=[];labelBackgroundColor=none;rounded=0;html=1;whiteSpace=wrap;container=0;" vertex="1" parent="2ktrdMOb3Cd3oE9HsooV-27">
          <mxGeometry x="172.875" y="103" width="138.125" height="105.5" as="geometry" />
        </mxCell>
        <mxCell id="2ktrdMOb3Cd3oE9HsooV-25" value="&lt;div style=&quot;font-size: 1px&quot;&gt;&lt;font style=&quot;font-size:22.58px;font-family:Arial;color:#000000;direction:ltr;letter-spacing:0px;line-height:120%;opacity:1&quot;&gt;PosrgreSQL&lt;/font&gt;&lt;/div&gt;" style="verticalAlign=bottom;align=center;overflow=width;vsdxID=6;fillColor=none;gradientColor=none;strokeColor=none;spacingTop=-3;spacingBottom=-3;spacingLeft=-3;spacingRight=-3;points=[];labelBackgroundColor=none;rounded=0;html=1;whiteSpace=wrap;container=0;" vertex="1" parent="2ktrdMOb3Cd3oE9HsooV-27">
          <mxGeometry x="172.875" y="148" width="138.125" height="53.21" as="geometry" />
        </mxCell>
        <mxCell id="2ktrdMOb3Cd3oE9HsooV-26" value="" style="shape=image;verticalLabelPosition=bottom;verticalAlign=top;imageAspect=0;aspect=fixed;image=data:image/svg+xml,PHN2ZyB4bWxucz0iaHR0cDovL3d3dy53My5vcmcvMjAwMC9zdmciIHdpZHRoPSIzMiIgaGVpZ2h0PSIzMiIgdmlld0JveD0iMCAwIDMyIDMyIiBmaWxsPSJub25lIj4mI3hhOzxwYXRoIGQ9Ik0wIDE2QzAgNy4xNjM0NCA3LjE2MzQ0IDAgMTYgMFYwQzI0LjgzNjYgMCAzMiA3LjE2MzQ0IDMyIDE2VjE2QzMyIDI0LjgzNjYgMjQuODM2NiAzMiAxNiAzMlYzMkM3LjE2MzQ0IDMyIDAgMjQuODM2NiAwIDE2VjE2WiIgZmlsbD0iIzUyODJGRiIvPiYjeGE7PHBhdGggZmlsbC1ydWxlPSJldmVub2RkIiBjbGlwLXJ1bGU9ImV2ZW5vZGQiIGQ9Ik0xMyA4SDE4QzIxLjMgOCAyNCAxMC43IDI0IDE0VjI0SDIwVjIwSDIyVjE5SDE4LjZDMTUuNSAxOSAxMyAxNi41IDEzIDEzLjRWOFpNMTkgMTdIMjFWMTVIMTlWMTdaTTEyIDkuMDk5OThWMTMuNEMxMiAxNi44IDE0LjYgMTkuNyAxOCAyMC4xVjIwLjZDMTggMjIgMTUuOCAyMy4xIDEzIDIzLjFDMTAuMiAyMy4xIDggMjIgOCAyMC42VjExLjZDOCAxMC4zIDkuNyA5LjI5OTk4IDEyIDkuMDk5OThaIiBmaWxsPSJ3aGl0ZSIvPiYjeGE7PC9zdmc+;container=0;" vertex="1" parent="2ktrdMOb3Cd3oE9HsooV-27">
          <mxGeometry x="220.15625" y="111.73" width="36.26923076923077" height="36.26923076923077" as="geometry" />
        </mxCell>
        <mxCell id="2ktrdMOb3Cd3oE9HsooV-122" style="edgeStyle=orthogonalEdgeStyle;shape=connector;rounded=0;orthogonalLoop=1;jettySize=auto;html=1;entryX=0.496;entryY=0.028;entryDx=0;entryDy=0;entryPerimeter=0;strokeColor=default;align=center;verticalAlign=middle;fontFamily=Helvetica;fontSize=12;fontColor=default;labelBackgroundColor=default;startSize=8;endArrow=classic;endSize=8;dashed=1;" edge="1" parent="2ktrdMOb3Cd3oE9HsooV-27" source="2ktrdMOb3Cd3oE9HsooV-24" target="2ktrdMOb3Cd3oE9HsooV-116">
          <mxGeometry relative="1" as="geometry" />
        </mxCell>
        <mxCell id="2ktrdMOb3Cd3oE9HsooV-143" value="" style="group" vertex="1" connectable="0" parent="2ktrdMOb3Cd3oE9HsooV-27">
          <mxGeometry x="171.356875" y="10" width="138.125" height="47.67999999999995" as="geometry" />
        </mxCell>
        <mxCell id="2ktrdMOb3Cd3oE9HsooV-144" style="vsdxID=5;fillColor=none;gradientColor=none;shape=stencil(vVPLEoIgFP0aljgEVuPa6j+YRGUica6U9vdhUKk4LWzG3X0cOPdcOIilTclrgShpDOiLaGVmSsQOiFJZlQKksRFiR8TSXIMoQN+qzOU175F9dNX3/obOnSP9CUoeLktIFL8KJ4flcLZN8NhtRJiDwxsf7VwhQHjAhniCDvNONhi04UbqakSuOBQCWy6cK16MWk0rRB2U/XRKVgMlSRwl+1nyhWI+s0+Xs4KYgNvPtlBKuJvVniX4En+9yfxWVpDx2yc2+Bosl0o5fw77U0PakjMzOz4B);strokeColor=#ff5958;spacingTop=-3;spacingBottom=-3;spacingLeft=-3;spacingRight=-3;points=[];labelBackgroundColor=none;rounded=0;html=1;whiteSpace=wrap;fontFamily=Helvetica;fontSize=12;fontColor=default;" vertex="1" parent="2ktrdMOb3Cd3oE9HsooV-143">
          <mxGeometry width="138.125" height="47.68" as="geometry" />
        </mxCell>
        <mxCell id="2ktrdMOb3Cd3oE9HsooV-145" value="&lt;div style=&quot;font-size: 1px&quot;&gt;&lt;font style=&quot;font-size:22.58px;font-family:Arial;color:#000000;direction:ltr;letter-spacing:0px;line-height:120%;opacity:1&quot;&gt;HAProxy&lt;/font&gt;&lt;/div&gt;" style="verticalAlign=bottom;align=center;overflow=width;vsdxID=6;fillColor=none;gradientColor=none;strokeColor=none;spacingTop=-3;spacingBottom=-3;spacingLeft=-3;spacingRight=-3;points=[];labelBackgroundColor=none;rounded=0;html=1;whiteSpace=wrap;fontFamily=Helvetica;fontSize=12;fontColor=default;" vertex="1" parent="2ktrdMOb3Cd3oE9HsooV-143">
          <mxGeometry x="10.625" y="9.84" width="116.875" height="28" as="geometry" />
        </mxCell>
        <mxCell id="2ktrdMOb3Cd3oE9HsooV-146" style="edgeStyle=orthogonalEdgeStyle;shape=connector;rounded=0;orthogonalLoop=1;jettySize=auto;html=1;entryX=0.488;entryY=0.022;entryDx=0;entryDy=0;entryPerimeter=0;strokeColor=default;align=center;verticalAlign=middle;fontFamily=Helvetica;fontSize=12;fontColor=default;labelBackgroundColor=default;startSize=8;endArrow=classic;endSize=8;" edge="1" parent="2ktrdMOb3Cd3oE9HsooV-27" source="2ktrdMOb3Cd3oE9HsooV-144" target="2ktrdMOb3Cd3oE9HsooV-24">
          <mxGeometry relative="1" as="geometry" />
        </mxCell>
        <mxCell id="2ktrdMOb3Cd3oE9HsooV-162" value="" style="group" vertex="1" connectable="0" parent="2ktrdMOb3Cd3oE9HsooV-27">
          <mxGeometry x="177" y="410" width="148.75" height="47.68" as="geometry" />
        </mxCell>
        <mxCell id="2ktrdMOb3Cd3oE9HsooV-163" style="vsdxID=5;fillColor=none;gradientColor=none;shape=stencil(vVPLEoIgFP0aljgEVuPa6j+YRGUica6U9vdhUKk4LWzG3X0cOPdcOIilTclrgShpDOiLaGVmSsQOiFJZlQKksRFiR8TSXIMoQN+qzOU175F9dNX3/obOnSP9CUoeLktIFL8KJ4flcLZN8NhtRJiDwxsf7VwhQHjAhniCDvNONhi04UbqakSuOBQCWy6cK16MWk0rRB2U/XRKVgMlSRwl+1nyhWI+s0+Xs4KYgNvPtlBKuJvVniX4En+9yfxWVpDx2yc2+Bosl0o5fw77U0PakjMzOz4B);strokeColor=#ff5958;spacingTop=-3;spacingBottom=-3;spacingLeft=-3;spacingRight=-3;points=[];labelBackgroundColor=none;rounded=0;html=1;whiteSpace=wrap;fontFamily=Helvetica;fontSize=12;fontColor=default;" vertex="1" parent="2ktrdMOb3Cd3oE9HsooV-162">
          <mxGeometry width="148.75" height="47.68000000000005" as="geometry" />
        </mxCell>
        <mxCell id="2ktrdMOb3Cd3oE9HsooV-164" value="&lt;div style=&quot;&quot;&gt;&lt;font face=&quot;Arial&quot;&gt;&lt;span style=&quot;font-size: 22.58px;&quot;&gt;pgBackRest&lt;/span&gt;&lt;/font&gt;&lt;/div&gt;" style="verticalAlign=bottom;align=center;overflow=width;vsdxID=6;fillColor=none;gradientColor=none;strokeColor=none;spacingTop=-3;spacingBottom=-3;spacingLeft=-3;spacingRight=-3;points=[];labelBackgroundColor=none;rounded=0;html=1;whiteSpace=wrap;fontFamily=Helvetica;fontSize=12;fontColor=default;" vertex="1" parent="2ktrdMOb3Cd3oE9HsooV-162">
          <mxGeometry x="10.625" y="10.84" width="134.693125" height="28" as="geometry" />
        </mxCell>
        <mxCell id="2ktrdMOb3Cd3oE9HsooV-166" style="edgeStyle=orthogonalEdgeStyle;shape=connector;rounded=0;orthogonalLoop=1;jettySize=auto;html=1;entryX=0.963;entryY=-0.025;entryDx=0;entryDy=0;entryPerimeter=0;strokeColor=default;align=center;verticalAlign=middle;fontFamily=Helvetica;fontSize=12;fontColor=default;labelBackgroundColor=default;startSize=8;endArrow=classic;endSize=8;" edge="1" parent="2ktrdMOb3Cd3oE9HsooV-27" source="2ktrdMOb3Cd3oE9HsooV-24" target="2ktrdMOb3Cd3oE9HsooV-163">
          <mxGeometry relative="1" as="geometry">
            <Array as="points">
              <mxPoint x="320" y="156" />
              <mxPoint x="320" y="409" />
            </Array>
          </mxGeometry>
        </mxCell>
        <mxCell id="2ktrdMOb3Cd3oE9HsooV-31" style="vsdxID=6;fillColor=none;gradientColor=none;shape=stencil(vVNdD4IgFP01POIQms1nq//BEpVF4q6U9u/DoFJxPdjm2/04cO65cBDL2oo3AlHSGtAX0cncVIgdEKWyrgRIYyPEjohlhQZRgr7VucsbPiCH6Krvww29O0eGE5Q8XJaSaPcqnByWw9k2wWNZRFMHhzc+SlwhQHhATDxBj3kvWwzacCN1PSFXHEqBLRcuFC8nrbYTognKfjol65GSNIn28SL5SjGf2efL2UBMwO1nWykl3M1mzxJ8ib/eZHkrG8j47RMbfA1WSKWcP8f9uSFtyZmZHZ8=);strokeColor=#5282ff;spacingTop=-3;spacingBottom=-3;spacingLeft=-3;spacingRight=-3;points=[];labelBackgroundColor=none;rounded=0;html=1;whiteSpace=wrap;container=0;" vertex="1" parent="1">
          <mxGeometry x="1345.1100000000001" y="403.15000000000003" width="320" height="133.70999999999998" as="geometry" />
        </mxCell>
        <mxCell id="2ktrdMOb3Cd3oE9HsooV-32" value="" style="shape=image;verticalLabelPosition=bottom;verticalAlign=top;imageAspect=0;aspect=fixed;image=data:image/svg+xml,PHN2ZyB4bWxucz0iaHR0cDovL3d3dy53My5vcmcvMjAwMC9zdmciIHdpZHRoPSIzMiIgaGVpZ2h0PSIzMiIgdmlld0JveD0iMCAwIDMyIDMyIiBmaWxsPSJub25lIj4mI3hhOzxwYXRoIGQ9Ik0wIDE2QzAgNy4xNjM0NCA3LjE2MzQ0IDAgMTYgMFYwQzI0LjgzNjYgMCAzMiA3LjE2MzQ0IDMyIDE2VjE2QzMyIDI0LjgzNjYgMjQuODM2NiAzMiAxNiAzMlYzMkM3LjE2MzQ0IDMyIDAgMjQuODM2NiAwIDE2VjE2WiIgZmlsbD0iIzUyODJGRiIvPiYjeGE7PHBhdGggZD0iTTExLjk5NSAyNEw3LjAwMDk4IDE3LjczOEw4Ljc4MTk4IDkuOTI3TDE2IDYuNDUzTDIzLjIxOCA5LjkyOEwyNC45OTkgMTcuNzM5TDIwLjAwNSAyNEgxMS45OTVaTTIwIDEzLjE5NkwxNS45OTkgMTAuODk5TDEyIDEzLjE5NlYxOC4xTDE2IDIwLjQwMUwyMCAxOC4xVjEzLjE5NlpNMTguNzggMTMuODk2SDE4Ljc4N0wxNiAxNS40OTlMMTMuMjE0IDEzLjg5NUgxMy4yMTlMMTUuOTk5IDEyLjI5OUwxOC43OCAxMy44OTZaIiBmaWxsPSJ3aGl0ZSIvPiYjeGE7PC9zdmc+;container=0;" vertex="1" parent="1">
          <mxGeometry x="1404.2951515151515" y="492.3" width="27.69545454545455" height="27.69545454545455" as="geometry" />
        </mxCell>
        <mxCell id="2ktrdMOb3Cd3oE9HsooV-33" value="&lt;div style=&quot;font-size: 1px&quot;&gt;&lt;font style=&quot;font-size:22.58px;font-family:Arial;color:#000000;direction:ltr;letter-spacing:0px;line-height:120%;opacity:1&quot;&gt;Kubernetes&lt;br&gt;&lt;/font&gt;&lt;/div&gt;&lt;div style=&quot;font-size: 1px&quot;&gt;&lt;font style=&quot;font-size:22.58px;font-family:Arial;color:#000000;direction:ltr;letter-spacing:0px;line-height:120%;opacity:1&quot;&gt;cluster 3&lt;/font&gt;&lt;/div&gt;" style="verticalAlign=middle;align=center;overflow=width;vsdxID=7;fillColor=none;gradientColor=none;shape=stencil(nZBLDoAgDERP0z3SIyjew0SURgSD+Lu9kMZoXLhwN9O+tukAlrNpJg1SzDH4QW/URgNYgZTkjA4UkwJUgGXng+6DX1zLfmoymdXo17xh5zmRJ6Q42BWCfc2oJfdAr+Yv+AP9Cb7OJ3H/2JG1HNGz/84klThPVCc=);strokeColor=none;points=[];labelBackgroundColor=none;rounded=0;html=1;whiteSpace=wrap;container=0;" vertex="1" parent="1">
          <mxGeometry x="1359.9569696969697" y="400" width="116.36363636363637" height="86.13999999999999" as="geometry" />
        </mxCell>
        <mxCell id="2ktrdMOb3Cd3oE9HsooV-35" style="edgeStyle=orthogonalEdgeStyle;rounded=0;orthogonalLoop=1;jettySize=auto;html=1;fontSize=12;startSize=8;endSize=8;exitX=0.5;exitY=1;exitDx=0;exitDy=0;exitPerimeter=0;" edge="1" parent="1" source="Zcm5tQwCMB2YyKj0-IPv-39">
          <mxGeometry relative="1" as="geometry">
            <mxPoint x="910" y="30" as="sourcePoint" />
            <mxPoint x="427" y="400" as="targetPoint" />
            <Array as="points">
              <mxPoint x="940" y="190" />
              <mxPoint x="427" y="190" />
            </Array>
          </mxGeometry>
        </mxCell>
        <mxCell id="2ktrdMOb3Cd3oE9HsooV-41" value="Active failover" style="edgeLabel;html=1;align=center;verticalAlign=middle;resizable=0;points=[];fontSize=12;fontFamily=Helvetica;fontColor=default;labelBackgroundColor=default;" vertex="1" connectable="0" parent="2ktrdMOb3Cd3oE9HsooV-35">
          <mxGeometry x="0.0599" y="-4" relative="1" as="geometry">
            <mxPoint as="offset" />
          </mxGeometry>
        </mxCell>
        <mxCell id="2ktrdMOb3Cd3oE9HsooV-36" style="edgeStyle=none;curved=1;rounded=0;orthogonalLoop=1;jettySize=auto;html=1;fontSize=12;startSize=8;endSize=8;exitX=0.501;exitY=1.003;exitDx=0;exitDy=0;exitPerimeter=0;entryX=0.487;entryY=-0.003;entryDx=0;entryDy=0;entryPerimeter=0;" edge="1" parent="1" source="Zcm5tQwCMB2YyKj0-IPv-39" target="2ktrdMOb3Cd3oE9HsooV-17">
          <mxGeometry relative="1" as="geometry">
            <mxPoint x="990" y="20" as="sourcePoint" />
            <mxPoint x="941" y="400" as="targetPoint" />
          </mxGeometry>
        </mxCell>
        <mxCell id="2ktrdMOb3Cd3oE9HsooV-42" value="Active failover" style="edgeLabel;html=1;align=center;verticalAlign=middle;resizable=0;points=[];fontSize=12;fontFamily=Helvetica;fontColor=default;labelBackgroundColor=default;" vertex="1" connectable="0" parent="2ktrdMOb3Cd3oE9HsooV-36">
          <mxGeometry x="0.4222" y="-2" relative="1" as="geometry">
            <mxPoint as="offset" />
          </mxGeometry>
        </mxCell>
        <mxCell id="2ktrdMOb3Cd3oE9HsooV-40" style="edgeStyle=orthogonalEdgeStyle;shape=connector;rounded=0;orthogonalLoop=1;jettySize=auto;html=1;entryX=0.482;entryY=-0.002;entryDx=0;entryDy=0;entryPerimeter=0;strokeColor=default;align=center;verticalAlign=middle;fontFamily=Helvetica;fontSize=12;fontColor=default;labelBackgroundColor=default;startSize=8;endArrow=classic;endSize=8;exitX=0.501;exitY=1.005;exitDx=0;exitDy=0;exitPerimeter=0;jumpStyle=arc;" edge="1" parent="1" source="Zcm5tQwCMB2YyKj0-IPv-39" target="2ktrdMOb3Cd3oE9HsooV-31">
          <mxGeometry relative="1" as="geometry">
            <mxPoint x="940" as="sourcePoint" />
            <Array as="points">
              <mxPoint x="940" y="190" />
              <mxPoint x="1499" y="190" />
            </Array>
          </mxGeometry>
        </mxCell>
        <mxCell id="2ktrdMOb3Cd3oE9HsooV-43" value="Active failover" style="edgeLabel;html=1;align=center;verticalAlign=middle;resizable=0;points=[];fontSize=12;fontFamily=Helvetica;fontColor=default;labelBackgroundColor=default;" vertex="1" connectable="0" parent="2ktrdMOb3Cd3oE9HsooV-40">
          <mxGeometry x="-0.1337" y="-2" relative="1" as="geometry">
            <mxPoint as="offset" />
          </mxGeometry>
        </mxCell>
        <mxCell id="2ktrdMOb3Cd3oE9HsooV-44" value="" style="shape=image;verticalLabelPosition=bottom;verticalAlign=top;imageAspect=0;aspect=fixed;image=data:image/svg+xml,PHN2ZyB4bWxucz0iaHR0cDovL3d3dy53My5vcmcvMjAwMC9zdmciIHdpZHRoPSIzMiIgaGVpZ2h0PSIzMiIgdmlld0JveD0iMCAwIDMyIDMyIiBmaWxsPSJub25lIj4mI3hhOzxwYXRoIGQ9Ik0wIDE2QzAgNy4xNjM0NCA3LjE2MzQ0IDAgMTYgMFYwQzI0LjgzNjYgMCAzMiA3LjE2MzQ0IDMyIDE2VjE2QzMyIDI0LjgzNjYgMjQuODM2NiAzMiAxNiAzMlYzMkM3LjE2MzQ0IDMyIDAgMjQuODM2NiAwIDE2VjE2WiIgZmlsbD0iIzUyODJGRiIvPiYjeGE7PHBhdGggZD0iTTE3IDE3SDE5LjNDMTkuNyAxNy42IDIwLjMgMTggMjEgMThDMjIuMSAxOCAyMyAxNy4xIDIzIDE2QzIzIDE0LjkgMjIuMSAxNCAyMSAxNEMyMC4zIDE0IDE5LjYgMTQuNCAxOS4zIDE1SDE3VjExSDE5LjNDMTkuNyAxMS42IDIwLjMgMTIgMjEgMTJDMjIuMSAxMiAyMyAxMS4xIDIzIDEwQzIzIDguOSAyMi4xIDggMjEgOEMyMC4zIDggMTkuNiA4LjQgMTkuMyA5SDE3QzE1LjkgOSAxNSA5LjkgMTUgMTFWMTUuM0wxMCAxMlYxNUg3VjE3SDEwVjIwTDE1IDE2LjdWMjFDMTUgMjIuMSAxNS45IDIzIDE3IDIzSDE5LjNDMTkuNyAyMy42IDIwLjMgMjQgMjEgMjRDMjIuMSAyNCAyMyAyMy4xIDIzIDIyQzIzIDIwLjkgMjIuMSAyMCAyMSAyMEMyMC4zIDIwIDE5LjYgMjAuNCAxOS4zIDIxSDE3VjE3WiIgZmlsbD0id2hpdGUiLz4mI3hhOzwvc3ZnPg==;fontFamily=Helvetica;fontSize=12;fontColor=default;labelBackgroundColor=default;" vertex="1" parent="1">
          <mxGeometry x="1375.11" y="-91" width="32" height="32" as="geometry" />
        </mxCell>
        <mxCell id="2ktrdMOb3Cd3oE9HsooV-45" value="" style="shape=image;verticalLabelPosition=bottom;verticalAlign=top;imageAspect=0;aspect=fixed;image=data:image/svg+xml,PHN2ZyB4bWxucz0iaHR0cDovL3d3dy53My5vcmcvMjAwMC9zdmciIGZpbGw9Im5vbmUiIHZpZXdCb3g9IjAgMCAzMiAzMiIgaGVpZ2h0PSIzMiIgd2lkdGg9IjMyIj4mI3hhOzxyZWN0IGZpbGw9IiM1MjgyRkYiIHJ4PSIxNiIgaGVpZ2h0PSIzMiIgd2lkdGg9IjMyIi8+JiN4YTs8cGF0aCBmaWxsPSJ3aGl0ZSIgZD0iTTggMjAuMDAyVjExSDEwLjE1QzExLjE3NSAxMSAxMS45MDcgMTEuMjI4IDEyLjM0MyAxMS42ODVDMTIuNzgxIDEyLjE0MyAxMyAxMi45MDcgMTMgMTMuOTc4VjE2LjQ5OEMxMy4wMDQgMTcuODUyIDEyLjgxMiAxOC43NzMgMTIuNDI1IDE5LjI2NEMxMi4wNCAxOS43NTQgMTEuMzExIDIwLjAwMSAxMC4yNCAyMC4wMDFMOCAyMC4wMDJaTTE0IDIwLjAwMlYxMUgxNkwxNy42OTIgMTcuNTk3VjExSDE5VjIwLjAwMUgxN0wxNS4zMSAxMy4zMzlWMjAuMDAxTDE0IDIwLjAwMlpNMjAuNDU1IDE5LjQxNUMyMC4xNTIgMTkuMDI0IDIwIDE4LjM4NiAyMCAxNy41MDRWMTcuMTYySDIxLjI4OFYxNy40MjJDMjEuMjgxIDE3Ljg0NCAyMS4zMzggMTguMTYgMjEuNDU4IDE4LjM3QzIxLjU3NiAxOC41ODEgMjEuNzU4IDE4LjY4NiAyMi4wMDEgMTguNjg2QzIyLjEwNzMgMTguNjkxNyAyMi4yMTMgMTguNjY4MSAyMi4zMDY4IDE4LjYxNzhDMjIuNDAwNiAxOC41Njc2IDIyLjQ3ODkgMTguNDkyNiAyMi41MzMgMTguNDAxQzIyLjY1MSAxOC4yMTEgMjIuNzA4IDE3LjkyNSAyMi43MDggMTcuNTQxQzIyLjcwOCAxNy4yNTYgMjIuNjM4IDE3LjAxMSAyMi40OTMgMTYuODAzQzIyLjM1MiAxNi41OTcgMjIuMTA0IDE2LjM3OCAyMS43NDggMTYuMTQ3QzIxLjEyOCAxNS43NDYgMjAuNjkzIDE1LjM1MyAyMC40NDcgMTQuOTYzQzIwLjE5OSAxNC41OCAyMC4wNzUgMTQuMTAzIDIwLjA3NSAxMy41MzNDMjAuMDc1IDEyLjY4NyAyMC4yNDEgMTIuMDUzIDIwLjU3MyAxMS42MzJDMjAuOTA3IDExLjIxMSAyMS40MDcgMTEgMjIuMDc1IDExQzIyLjc2MSAxMSAyMy4yNDUgMTEuMTk2IDIzLjUyOCAxMS41ODhDMjMuNzk1IDExLjk2IDIzLjkyNCAxMi41NTggMjMuOTIxIDEzLjM4NEwyMy45MjMgMTMuNTc2VjEzLjgzNkgyMi42MzVWMTMuNTc2QzIyLjY0MSAxMy4xMTQgMjIuNTk5IDEyLjc4OCAyMi41MDggMTIuNTk3QzIyLjQxOCAxMi40MDggMjIuMjYgMTIuMzEzIDIyLjAzNSAxMi4zMTNDMjEuOTM1NCAxMi4zMDc0IDIxLjgzNjEgMTIuMzI4OCAyMS43NDc3IDEyLjM3NTJDMjEuNjU5MyAxMi40MjE1IDIxLjU4NTEgMTIuNDkwOSAyMS41MzMgMTIuNTc2QzIxLjQyMSAxMi43NTIgMjEuMzY3IDEzLjAxNSAyMS4zNjcgMTMuMzY2QzIxLjM2NyAxMy42MzggMjEuNDMyIDEzLjg3MSAyMS41NjUgMTQuMDY2QzIxLjY5MyAxNC4yNiAyMS45MjMgMTQuNDYyIDIyLjI1MiAxNC42NzJDMjIuODk5IDE1LjA5NCAyMy4zNTIgMTUuNTA1IDIzLjYxMSAxNS45MDVDMjMuODcxIDE2LjMwNiAyNCAxNi43OTcgMjQgMTcuMzhDMjQgMTguMjU0IDIzLjgzMyAxOC45MSAyMy41MDEgMTkuMzQ1QzIzLjE2OCAxOS43ODEgMjIuNjY4IDE5Ljk5OSAyMiAxOS45OTlDMjEuMjcyIDE5Ljk5OSAyMC43NTYgMTkuODA0IDIwLjQ1NSAxOS40MTVaTTExLjEgMTguMjk1QzExLjI3NiAxOC4wNTggMTEuMzY1IDE3LjYwMiAxMS4zNjUgMTYuOTI2VjEzLjk1NEMxMS4zNjUgMTMuMzQ0IDExLjI2NyAxMi45MjUgMTEuMDY4IDEyLjY5NkMxMC44NzEgMTIuNDY2IDEwLjUwOCAxMi4zNTIgOS45OCAxMi4zNTJIOS42MzZWMTguNjQ4SDEwLjA2NkMxMC41NzcgMTguNjQ4IDEwLjkyMyAxOC41MyAxMS4xIDE4LjI5NlYxOC4yOTVaIi8+JiN4YTs8L3N2Zz4=;fontFamily=Helvetica;fontSize=12;fontColor=default;labelBackgroundColor=default;" vertex="1" parent="1">
          <mxGeometry x="1260" y="-91" width="32" height="32" as="geometry" />
        </mxCell>
        <mxCell id="2ktrdMOb3Cd3oE9HsooV-48" style="edgeStyle=orthogonalEdgeStyle;shape=connector;rounded=0;orthogonalLoop=1;jettySize=auto;html=1;entryX=0.36;entryY=0.003;entryDx=0;entryDy=0;entryPerimeter=0;strokeColor=default;align=center;verticalAlign=middle;fontFamily=Helvetica;fontSize=12;fontColor=default;labelBackgroundColor=default;startSize=8;endArrow=classic;endSize=8;" edge="1" parent="1" source="2ktrdMOb3Cd3oE9HsooV-46" target="Zcm5tQwCMB2YyKj0-IPv-5">
          <mxGeometry relative="1" as="geometry">
            <Array as="points">
              <mxPoint x="1336" y="-230" />
              <mxPoint x="305" y="-230" />
            </Array>
          </mxGeometry>
        </mxCell>
        <mxCell id="2ktrdMOb3Cd3oE9HsooV-52" value="Health check" style="edgeLabel;html=1;align=center;verticalAlign=middle;resizable=0;points=[];fontSize=12;fontFamily=Helvetica;fontColor=default;labelBackgroundColor=default;" vertex="1" connectable="0" parent="2ktrdMOb3Cd3oE9HsooV-48">
          <mxGeometry x="-0.2201" y="1" relative="1" as="geometry">
            <mxPoint as="offset" />
          </mxGeometry>
        </mxCell>
        <mxCell id="2ktrdMOb3Cd3oE9HsooV-50" style="edgeStyle=orthogonalEdgeStyle;shape=connector;rounded=0;orthogonalLoop=1;jettySize=auto;html=1;entryX=0.868;entryY=0.002;entryDx=0;entryDy=0;entryPerimeter=0;strokeColor=default;align=center;verticalAlign=middle;fontFamily=Helvetica;fontSize=12;fontColor=default;labelBackgroundColor=default;startSize=8;endArrow=classic;endSize=8;jumpStyle=arc;" edge="1" parent="1" source="2ktrdMOb3Cd3oE9HsooV-46" target="2ktrdMOb3Cd3oE9HsooV-17">
          <mxGeometry relative="1" as="geometry">
            <Array as="points">
              <mxPoint x="1335" y="70" />
              <mxPoint x="1063" y="70" />
            </Array>
          </mxGeometry>
        </mxCell>
        <mxCell id="2ktrdMOb3Cd3oE9HsooV-53" value="Health check" style="edgeLabel;html=1;align=center;verticalAlign=middle;resizable=0;points=[];fontSize=12;fontFamily=Helvetica;fontColor=default;labelBackgroundColor=default;" vertex="1" connectable="0" parent="2ktrdMOb3Cd3oE9HsooV-50">
          <mxGeometry x="-0.3156" y="-2" relative="1" as="geometry">
            <mxPoint as="offset" />
          </mxGeometry>
        </mxCell>
        <mxCell id="2ktrdMOb3Cd3oE9HsooV-51" style="edgeStyle=orthogonalEdgeStyle;shape=connector;rounded=0;orthogonalLoop=1;jettySize=auto;html=1;entryX=0.768;entryY=0.011;entryDx=0;entryDy=0;entryPerimeter=0;strokeColor=default;align=center;verticalAlign=middle;fontFamily=Helvetica;fontSize=12;fontColor=default;labelBackgroundColor=default;startSize=8;endArrow=classic;endSize=8;" edge="1" parent="1" source="2ktrdMOb3Cd3oE9HsooV-46" target="2ktrdMOb3Cd3oE9HsooV-31">
          <mxGeometry relative="1" as="geometry">
            <Array as="points">
              <mxPoint x="1591" y="-75" />
            </Array>
          </mxGeometry>
        </mxCell>
        <mxCell id="2ktrdMOb3Cd3oE9HsooV-54" value="Health check" style="edgeLabel;html=1;align=center;verticalAlign=middle;resizable=0;points=[];fontSize=12;fontFamily=Helvetica;fontColor=default;labelBackgroundColor=default;" vertex="1" connectable="0" parent="2ktrdMOb3Cd3oE9HsooV-51">
          <mxGeometry x="-0.6879" y="3" relative="1" as="geometry">
            <mxPoint as="offset" />
          </mxGeometry>
        </mxCell>
        <mxCell id="2ktrdMOb3Cd3oE9HsooV-56" style="vsdxID=5;spacingTop=7;spacingBottom=-3;spacingLeft=2;spacingRight=-3;points=[];labelBackgroundColor=none;rounded=0;html=1;whiteSpace=wrap;fontFamily=Helvetica;fontSize=12;align=center;" vertex="1" parent="1">
          <mxGeometry x="-530" y="-16.85" width="550" height="420" as="geometry" />
        </mxCell>
        <mxCell id="2ktrdMOb3Cd3oE9HsooV-57" value="&lt;div style=&quot;font-size: 1px&quot;&gt;&lt;p style=&quot;text-align:left;margin-left:0;margin-right:0;margin-top:0px;margin-bottom:0px;text-indent:0;vertical-align:middle;direction:ltr;&quot;&gt;&lt;font style=&quot;font-size:39.51px;font-family:Arial;color:#000000;direction:ltr;letter-spacing:0px;line-height:120%;opacity:1&quot;&gt;Обоснование&lt;/font&gt;&lt;/p&gt;&lt;/div&gt;" style="verticalAlign=middle;align=left;overflow=width;vsdxID=6;fillColor=none;gradientColor=none;fillOpacity=85;shape=stencil(pX3bsiPHsd3X8LWjrlmZj45j+z8UFnWoOLKooChb/nuvVXuAbmQ2uhqbehDJGRQ6UZ2Xlfef6n/885c//ePnn0r65++//fpfP//fv/75919+qv/9p1L++vdffv7tr7/j336q/+On+h9/+fW3n//zt1//9fc/f/33P/7ET/Lf/vev/4ff8O+vc2nTykMl/b8ffzD/639+ffZvf/374bO6jfztz1bdynj/+bFV/UOfb1sv7z9etix/5OMLasItfvr5i5u8/uzr28xpG+X1d+pm7787fh5/0vvFgbxp+4MH2pZfDvyvf/329Rvyjw+ULZmptlFzaQ8u2v9yVJNkKm10S+nHl/+7PP++mmb8r7dRHhdXnsSIyqjaTK39eMP/rodv/vH5+vxtdri99N/OqK1bkmIpg9hh3VGbwAZilkYuUrIjtW5NutYMmqTiJ9srtbZZSTm3YvieYebprZu1V3p5YkUuGL9rH1Yk5YT7c/f77qEPmvuWU7OhqVSr3V0vWKFYw/neUzdHbt+6uuvN2+gremVLvaQEeq33EZjBcIPDtEjF/Zk6amVryVrNFe9HsqO2gRl0jIGL0FqeN/EkWDbpjmC5ccGyKa6wgs/KeLL+4y9tAyNYbpbxc0ZK/nrHlsBGZCTwTEqpvNJcMt5e6wb2LmZt5/56OP9KMzTdkuR3T/3x91C2qYpmqVmlxDtW/E7wjNYk8nwHT5Jt69aLmuHwD537cseO3gqFoes7rq2LQgng3dZXaiv0Sx2CVyoQ9XbGwtahPfgOwDqv1NaOXzP4atoQSfGC+9YcU9Sx5bXQgQtBUM2tFne7NBUGVZXByVK8Omtby0nAMPgCUOtvF4fVRscX4wX80MNHDaGe2Bdz8E6htZY0NWk9ib/c0+ftCg2Kzow/R9IIlHYRbQJBxPfHm4X6beFmbXm1ZYPCUUulayviqB1baQ2iVvE2zVMLIw9ZAiOZtn7QhA+CqTzI2k0UghsJzpv52wV3OHqDNXye+Z59/qOfd3ghe3BBYPQCXMKF4wikGeLVMpSC0xQK2astNzAH7HdKNdx5ylQzyit39w3aqT7wFjVRH3tuLpvnD/zJUlWArQbUgXTIe+lBt1FbaC5ZR6/goRRtNCSzNhlGwoOySLXaMKmQzCh8Y/zk2ePHhVyqippJ5oAJaQ5OnD9wVxUDOno0ge5KFlUFcRftMjR9eWrxXa9lT20JzByIhU2XBFmvA3ZfA5jAK5VCy4oXKuINR4f1x9E0tFpzwgeTowqQ16jCoYy8bcZZeSUXjJvHmt6TRz54F8QCLYATKtRw3vmvHH4sfqSUVLS3oC9gRfFOuvQMrUHIEk1H9gBItrK847ZBF0NPjaSQuMDAtBC4+UEVhn+mwMFgqA6B/NLKHrHVTajIWwHrPwzp0XwURzA+vzYfgCZCJTAmSnEq4vyRu37Q2qHGMn5rrgESE702Yv+k0PfFPMYEy3oIDy2+xD/QSgU2AiYWsMA7HDDPWiBVHQB+eCxxqgzLk6HMCCZyF2iXYD3UkepU77n5WKlrp991S80faPl4IFwGj9CFImI5wa+4ipEEN1WSRP2u+PYBFQWGpSLy+JXwaQAcw6Y2wMX9fH1+f3ZynZca06D3INCEjql56cA7AL0Z/hf+PrqLeEe9KbhtFPzTuYsLBwxg3GPBGw5YAY+C921kKOlUgjwvHLAC8erQttZr6eJuN0MF1qLQFBMrmlPyOKvmb3eTlQmdsZKaVCvYOOUo0YKXprjK2nuBGrLiSIYGA0fQKwfLeJoNHgAQnGjP1AjJX3Lb4wf7H6XlLZ8+c/dn4ALjl4xGww4hDQQLZHoMAlYwledimLUKDIPv0ZEfHHcg+MmEB0u68nNpvqpCawJtFHU3XKnjOzxVvGKIZTBNeLEDLyhD09BORNMPJ1ogB/Ai8HscUMHh7LiCuHnNxvCPYJ/x4ro5vxxYv9aMZ8EflJyi1EHhDmAC/lQYJ0fslUtzInM3XBpIOeRJ4XvBcGcPUi5dGrAnpRBKCyBmRFYYm/QKqYOfAG/SaTNQ5iw+EFxeWlDcXu8KJxUKwIc8wEuQQpDSpFrUvieqe/fDoW/AQTZUvd08mIkDG3vfyxmjtW1xxsgAbT80RjiCnzogEVK0BdUDSbYJaKFMhX8/wusDHAMeg7AXHw08R6e7JXrosQ8AMRgNnktveH/JhvdGTwH4bohgEDt1O/RAeVrGW77GmVTc8DUohp1uTwZLFO/pX/kaOAk4ZFUA4VJ2nMbf2aSAdU2sOBSMkxYdjbpC7lBSlbiiJrryI7pxsOMGZF8LFLpGm9kHwMiAdzTSziUvzgZel+YGhV4DKuF5J8eMqi1V+rvH7syCW4f6gFYHUwQwNX8zkABYSSx4G4ClNUmGQutiI16yh1HAwctLxlvttMYDGLw5fmC4lGoSOgl3JBGYkJkS9WhTRje9DaI3AVEk2MqZ/+YvOfLwPLKWuHO5yYvHliuJvRsijkqC97yMaZ9qpYO/QX8PuroZ/bmo0s5V4kGRAN3A7sqA+Jl5N/Sghe/r+rXqftX1NW9PEf1xQLdcjgdenwAlUKo/MF4O+GuszBONbFBBxcQrhLwxJ1NbAmoiuzpQWpl7YMQC4pPpzXvD3phHGuAsKJ3Hlz/uEIeLD1vL44/ev3caHMgQFEGG9xojq6CGMWsgFa9vcZIhIcZOhWHZYB0uMZNFam9gJvBhHgZhToDBn2AmqNOWVQFDIJVOooiXJBukFX6COXEq8pD3F7y0pJRXD3rhBIJezwdlo/s3+DjJxUdHSt8sw61vEKjmWAD3Rl0IEYOzJRb9v/4IT7+48EuNdfbIx99lnAdutkzPcERXCkC+MWqNC+45pgOIOOFCtWaw61m8vsLxGB6RFR7FqQ4fCq8T5rG6kORXggIQAVIGto5QX4DQGA3AB4J6LdNtKVLV8JN8NId8FDOGsvRMIEi5Q/LHKCNo10RPSqffMuj7eXIVOAK2oNXWnzD5bjwAcuaswY14wBRtSLQxsZd2LrsZD6BOaVbghcGVbT1GXPD3sAbWcwP/5xATgCrL3uyWx++4oBov4ovaXMczkr/b3AE3E6quKp0Nc0JH3Qy93XtW2ihHcCcY+8qUJT7B696yZSd14HrxSsJZl7Qb6qdFO4D509eiicaj19ayE9M8Nv4xwGbvRVOAx3wpiRi44f+H09UMlwCnjlFxMXDXwg9MwUDnG1qQfITLaUXhUycfoiFcrczpFctwLYNegZs7mCBhiMfjeb5OrVDozOdANwW0aY9alyNyG8uwEt7ahDnAv0kc17995i6nEAmF4wLArzFEQ+QGpw56UDvAbAyFjZBAmEnlFc1jq0JACMqgv2MoDLoHLkoGbCfzB7uYB5AqlDcwf4puSNoGc7110I/RE3Xo8wcwN3V5ze+eekjZJUY/pXbA5OdTy+EXZ6sNwKOfBMI0V1is0fe89vGKY8Ju6TSRHMWLmyFbOc/XMawHLi/5THvjjRNnGG/Qx8EunWjbnPa+5UNTcmC9lNFET+uVC015VXhZoBaXdxKzg2EVJTCFPXek4mzzQKmuuZcZVt4KUygjndwtFH+CdgCj9HywxzvFVkHvaJrovwQQmljPNNO3ADht91x2U5PcDTun4Exzrx0J53mUTV4PLCrUWJiQ/+ABvKt2cUB2yf3mgUU9IZjF1RV8fGBFUrzWjw8srnV9wL1p255FJk99eB1P5BEBA8P4Zmm+mmyR3MLhRmQOlxDMHWHLZWarpRBlX2a2GjEIpFVBc45A9jKx1eBJwGfpkNQ6mgPeCyDbytacQb8BZBvLGQF48OOfquMmiG2AJwNIgAZKT4o2L7NaOOzdsDtZrdY3+CWARCxX9AB2kdHCWYUzSb9FNQDYRUZrHnZq8EZG6/yZNzNaODyIpifj5lh48z6dhZPtpOxmZcYb8xzwawbx70kg/DKdhTdKxKIs3ZTqo8tXuSwykjfi61xWI7uULgVIRtQ5uKtcFg4TVMGhAUIKofCruMyJmN2IyzTGSfFdMLG+2vgyKtOY7TCGt2t/xpdupbFackTeyGFBV1a8YNwJZKz593+RwzrX0DdyWEdrcDuuecOEvNoc3GINFRjXNodHoPdYENx6+zCBhcN4L0ovE7BLntx3K4fVUqgQv5HDAoNVFucYoB5s4f7IO2ksHCb8hq8Bh8NXgF6h7zNhuAG/KX1j8OdneLY+SnmFvxuTOrCgYKpchif1KoWFk+YT5jdSWI0RZUguU22pOAV+mb/CyW5wOotB7IGuPROs8lc4Hw3OMn319qk301fz9xbwrMG7YRTI155dZbB4x7FYbpnB4kuFcw5bKHBVfCXXIoM1eakAxbGSPXlqF+mrE/69k746lZebqau3gnoze3WiHu5kr96qpJsJrHN9eDN7ddS/t7X8DaXttPzw6a6F79LgEn7UFhUPMKJ6UdndQ+X44gm97lG5bx5Y+JC9+AKQjw9kgDO5vCWpnzwhvriPD6xe3PrAKy/hxfVXXz5t6eo1lL1+7PzzXiBxojZjCgyQ0Cc8GMtnWT1A+Iw4O3uNsyyzhRcENCkeXABOArxZrn0UCY4XftlwdhAGd4UMcaq1ypAXzWA3D2KFVgFKvLKLLFqVDqUFOwcwnqT4qnHmD6sw+iRS9/jWk+DkOwjkhoa2bZYVABPAQmRP7PkDy/NsZSwt1dR8wIC/E+aR9VrqFXO81aVXAEnpBJBVWVb9SiVsKRyywayDKR1oD4UUrwQm3lpmO12w1OAhpqYaK2/gpvtrxfHqbPUry56p5EOu7B6X8wRznoX9RepNOy6z02PPDDDAeHsnzZilbAlW1LJPyEAEAODgqRqgTIk/zwJ6eilMeMc1cFGANfCNTy91fx9FAU86/orA1MdZwaaJ3WIDL3LQl/NS2QcsK2wvoCtuwwERnK6O3mf50oVUJqZi4eFaU8U/zYP+Nw99kJy3lLRBiwjE0uf8N7wwSHsuuA72PHqKsw+8P1vBLtUIEAQ7C4XNfl7pQR5ZFE6Pium5FsjtUHtsW7QWstIwGKlZZuBsFv+2QK6vBluy+9oIuK78l8+O/OhEPbcYe1X3Nz/fH2DkPDC7PQvNv/d5sxfvKDbb1/aHPr+gJ/2BD1/f5OLDsdfuFV9ZekHboeiqbtldTF4oSTZEw5zDGVAVX8FnsOe0Dglu6KjV15WxpFPpjBW27rzKhMmWKCxwiBkQdRqS/TMOlNt4uYvzMrjMMCDMB4CHdKcjjUVLbNxMig9q6J2HvjJ4ITDKVNyOWtvs+D8XgLXQtwkpX9Cq9LBt0EJYVh/dfvO88jjLZmJgmSLSsw/F6zZYdJlEARXcxY7QSoAXUVZOsGyzeRcf7i37eh0wAfxB2PEG0yTiSIX7Zx100ltk+YMzPWBYuAk2Erznnn0ETjZ3rdrX/f3vnvi497xNBqDdGI/W1p1aZhoBn0BUftZ3/PjLgcuTzHZSeJM13KsDgqM9lOIVDySOa+iVkSEvXANaCQiDdWasg/IcAKPKhpJEDnIu72CGs/QO8J7Mt4nZps7WjLzOFWR60cA0wDop+YT/+fP2ZIu0JrDWyuBeaHLEzwRm7Ww3hEm3kwa8IvFmbzRxK5yTQljfx6HtLz/fZWVBkfKxwxlzqkmwABRBLypOcWmizoMRL+xL9zX+NVRUgGXbjQ7HkwfmnefrgBbtANxZI6kDeqQpW3zd1aowrlor2AtA3Fft1tCfi8+P67jH2DuQT4/EnzYYcVJhdCZ39T8NmLaDfAis7dNTdiVXgfzgH7fINQYDoZyCMqOF1TGNBmmkklrxDGSqCat/E4uwvEbuGxE9/DL8EEnuNdArg4x0+l/D98kYy7OkZZAqLDwKtsPxNz+/7OFNHCXAZBbcl6CRzx94y9D1TZgUFYGe78Ozdw6VctbWdVk0y/DADWwALeeQNTEEBDQNYG+mT6P20DoH2gCTOz1nDGwYm7nhqD2Ds8d+WJ9zTjEYGfthF5DqFYMN3z+r5TEi4xyC5V3/vjnw0XwEqCMgALxL/m3OoVc7swxvlmvV4YutBpCCjMJYL9t1wvV5qACludRkNAWDTY6lCjs7vd6FMjPgBNaVyvAvm7+F8xoSAGF1sIZaX2HUO5PnJQpRtBEr62s0AQz5cFpD7x4onD9wt7+d3XTCKE1z7j9+JBsZobVw68XlITRE9XGtwdk7QQqcTAMRGUQD4VrxrcYupi49eQgGFh2NOQpgRSWcCAaNUiTUG+JHWI3QU+7Y9dRIrETCuTFtk1eRWDhJ+VAm/80DWh9x4HdCJ1sF+CIss9mm6dDZ/IIMxAL/B659kDuZaaNBvdWbi34pK+tw4RnKO4njD5z0Q8O0PMzuheBdDYnCF2Rjjh48W8PUjLF9QQ9OPhoeQnAAVwccZmF7dsyBk344wnhWwV6QCjUyGGttLadSXkkdcyYGu/1hE4JHCdYCj7LIRrKvpYe8ZqaJGvVd8bNTNFQKjnpjjoMy7mMw+5y34IoOBqN2c04YS7v8rbLIA45baqyPjLNTCHvxMtowOCHeS8uHXE59fj4tQa/OKvnEqTTmq04gImMAopAiE494DR5l58y4Dj3g8AuFqwHA0YRXn1Zl1Xv0J4KnHpq/3FChlQDHA9dBF7aXaTiw6gzmD+xsncg+wDpPw3eE012eQ+MO7xrOEYAjbGx50nkwBhS8WdKTPKDSUDQ+ZJ3xYHuC0N8aTIZ7uyVMh7DgOUFOatBMrDUFKdBKAE1OMw1WfVVl0hr+b2w+fzDqk1i7MS+JE5wGXVxjKDfUCMMhB8iCd0DvJgxfHIDHAu/RCrjTyRDUWp/Zjp7qsy/soJx86xf07no4DsNMQqjac02OC/AFVpmWgcf6TL8cSG2cREUBMh/uUk5VyXgvg3XkkdTk8AucvryMdg1W6mhWoPbhKSWO7wR+LYlvG+AbAephgu+rDsPhFwUXAEcwCkLfOXCBH2IIiBx8ABdgfY1rLsKxx0fcOzB8Ot6RdD6hEL8RZo1ZOA+qWTI2p6lIjGfIbA82plKGz2vh5gx/2WeJvXe4ZU891+fH63J4HscNGTAzay6KN+wkplov4MYSIppwAyFYStDXxMFpnOz8H1jy4DXs3UG+AJaf92ppBbJWby3gvo8PrMzG+sArFC3dDxlWe2ldC4wtvg1M7THj6g3n4chQAK0GY1M9poA3nMhYDIwnfYCjQ+tjI8DhsNXaawAV8N77LIqejevP4GZ9/jinZexZenDRjtK32hmehDUZvsUYL4ytmgzUwMcIw0c59gZqRucQUGcXFyF1pphfiV2H1DmkAABwusLqG4wXIXVm+GC/8Usl20lEHU4eAHDnyCLfApt9lJoh9RsDZFh2nefkuONwg0NYhDUUdPyZaXfUsrhP2aAsJSghxtQbOyHV8AXeo+NQumBr1i2wpw/c3QthzSCnm6rXl2W2CEGRDqgi85aGraqcM0RbFS42harIO+4F060cV1g7ixc+wXElz3l9lW/c8wC8BZ3zVnEHfs5ECZHUcSOhX2YfOfMNSRlg8BwwmOFlS1qXIaEvjRn/xKAZY6Q+/nAV/4+CdSf+PwdYsQcawEdPXIv38X/qj0qFpV/d3B5s0C9RDlKCfmndQU5mlr0jVB8o9IJaOO91tMF5XeZbMRjXYdeCMM1fQ3i0cEizwi9rg4DNEQt1b2zEgDOkYSoCjLGj1R71TG+BUd9eM9t0uC+tR9/al78JJj+plRwscBPCV0hU8Uqug2tYDYx3qb5QErIFo8J+DXgHPhNXnIobj77/S5ahGRPCeuFkRZ81+jIsUKpFY5N/Y5Noq3Bz2Bkb3eeraCBZ3NN7Ix7I6TgwHawg5jzhKJBXAUFIs3LiY4FTBomNbM4sjrEPVVsOvcMlpg/HSy/c59OWwHuZFT8NOuY5GuSg6WAggV8ZMWTyxXtWmWVo8ISFX+4HLuXQbsQk1/J63z1zB92Fc4mmljkZDzX1g3JIt6+ttwzkCUQu7DiR4cWyxJz3eugotTNcQPqt+9SLQzIIDmlhHXVhzOBEN5fKBD08hY+SQSyQdDrkTjZoSgvtc+Oo8TjU7DohREEFVgCEA77x0xQJKdknx9BRsRbUQvBcrd1gXLBLhk9ic8ZsZAW8H+jXylrGGqvZqDMZ6QQvAVL4+2WXIs0iM+PdF3sf8X3d2c7bk6CjV06B8yJCRe/CT6n1Wa/2zc8v6qfSLrHfPLCqoLJN2h87sCDp5FI/PnB9qzcOuHbhuo3XOIWugozzCLULs1++PQO2vxJ0wC1kl+0r17OBiJCVmwQK12z40B0zDvANMwNUXgfisM+FMly+EFMOnzeBH1kZv/SgjxqZQ3ZgIZKv/+Xsqi4zc8+qoEjsFULl+gNvvm9A1Ko4NkOwHK70CURlj6TAkOL/cLfecJeNXVulQr3OGVOO2FDLO25kxFuaQ+A5bY0F0o7WwXpR4UQroJDk1R+7ZRrnhTCC5wGqcuKHwFkdPUxLaM+2gpcw4+pez5/3YFnATdbQ8JG99EBpA8zOA0a9WFTUzbQyADkrAwKtzxE5u9E+dkW8axJVbsCBDI3Ro9Vmq1xmwGvsJfLlefR9L75x5AmLP9SGz4I9O2x3SnUJjtkDLISD7MLyMSBS0hqQhQDudN/LDPGgfYNnD6ea0Nhb7OvAyol0rSMrHB9RWXDGUemjBXqvIivQIkyz1wHvuXjkdlWrWNsm/mZvFCviWBKWKcL5f8ZEj8WKAziJAxl2DnmSeqqd97BKZnB3NsDVoLQOtmAXrjC6LdjxlQFxFqf72SVri9M5vIxNnJnddU58LwLdOMi+RRYJ0aEMzYAQ4MGLVOjMnn1Oo/Z99sZBgNd8llhBRQvWqnPcibph4gwE46d4amH+WLfUv5wER+ol6D6RiDugm3IotTeAJShyL8OXiHu2kHEYUWckype24Wey65brqYjLg7YR7yHUdRsr29LxLIXugwx7AWajIDuXMwt3fBC3sk2GQYHSWGdkXpHDBNAfhrPYIMt+GBwPB7GoN/T4+TP3nCHXjVmCKm++SmC24LOFlUWOvgNtsOqHKZrWgF28xsHlxuKcZasLXyfsnzLQPbw2nxVPNuc50EOLupztUYBK1Wc3B6eQsJadSziCeJ1gpLbebXQuJfnqgeVKMg/BjVjV9V4T8FKXLPBO/ezxDbCqGmuxR/M28lTp7cENzt2oXC7Wa6TWF4rc0ONrtezagV8/vXBMWvMbD8OBs1k0c20SW6x8yeV5QccDtHE9XmIxg+Kd9qD2ByskO6d0Azf428Ph6qPL5ZGbvYCYwhyBZBYkjBNHA3qWI3WyhOmabWyca8pBNCPUrbDFjE3tLPQezl63cVZXvkwu4FiHQ5Qae15CxX5nrwwAPSD9c2/IgVL+isa5ssmnbFiO3geriea43tBXP0LqGOy/rAc6f+TB2awV3p3C2EgOxDL1n6b71h2xSuSeGefkQJZ4r36QnN5YqtWmz8N8V+5eLynsW+fuPNWw3ofvn80+EPIGCBm4VTkHqnNGcufSxsCtfqGWtscEg0taWWkLlrLBeJufr0oDh3dIimWvmdsJruzUZJuupBIJnkl7ONRtr4U5cIFXTTcKCHBMGzQBh3GG1A2MN6MGfJe9SGRZQBBr9ImShymAjsAMmYpkL+w/kBqq2m8M2uUxWKAKKeDOiVdSrREXZdYCsVo3MoKwJgrgnktLXmklGjNO/IIJgycS77V4qDpuTAYh9zDH0pjXlOT1Fn0bYAJuegPfPsK6BzXLJqPZMTVOXDi4Sz2xv0FG9t1xUO5+PKqLtp31R7+anEV47kMDtfi0M37VD2bX15zeif1zoy3CgRP7B+s+OGwb/loN6IFfkLk6UllZ4yMsfWt4rZnzSKov7mYRWeYUXoNdCTOHItbB59eKum+aWYfFZrBQacxMhLC0rEnKPsQCk2McfjI4pLc4UjlDSIXje+rIYfwrWdC7rDf259LGJ1bsjem9OGIzh62ydAzIO/TM4yRFEP5z20cr7ZErdjHgVktL4u9VwkAAlh7eITU+cA+zsYErwytKWcOY2sZNepUQUg5LwA554NHY1QQZ9rP8+U68FyHrIVmd5QDGLQ65eJMCZKFFgGhb58CEwAO4N2417JLFU0ogyFFOZIIwL66FxnMXVD9TJEF8F4H4z+V9fWClUczj74io+/WB0+mOg1P0WQLqVD3rrsBMnV1T2ddqEFEXNulwInKTMAyDDn9inIDQx6o3pRI8aGvL9CVOdVZCcVTiPoVlD4IZgwvsJqrZ993hqEwJhvlp1Wk/K5tS4XB+Njg1AqoQscs3EAqPNa4Y0OQLr9l+ZVxTUVkL4I0+lz3jdTBM2kIofM5RFs4ELNwiHbWfb8RhJOOGqwLDQUDFOevllVhlu8Csu2CyINAKpQiDwoHJ7HONpaMs20jUgfVswqcPo4xlNI3WqKUfGM0vtcb5ol9uYIloiqE2FjN0jj6pIcasnBwOL6hXcpm/2bYX69fD5z/UKu7M+sBK5tcH3Jwl8VXFqzEYI8y1+PTAApZFkj4+sCJpfcDpXtu3LN17QvqwijcecB7lycCr0q4PhOEvXILJfQbWcAXO85in65wKCRTmB9U09ilDxqjCQh0NOw5SZhNZjXN1ovXVtsZfvXPbg8Axy2yZD+kjZe4V1gg+LwNojtrOvmFLbA0IJeHs78imHJOnYUZND349VLOtnKTT5+1mCM/JjOHVEgKO/JmDY7AYxK0+FwP9JKxExbXX4WM7PSogk/W4aRxjMxcDHzn2f+usl+fw/CLq47hgn17nOKLeamhTvvbmwK3dBXdueHNB6lYO3adieuOAU5dBTBcKmQMIx/WBk8F0o8+5aQk2SsNQ8Esc1llVxLW+ytRBrHPKTAnAHYdPEOa81b1a5VDntPLrcMzYEUaL33MscmLbOpfZNHWQvs/drX0kDoTgymtPLTufyuwE4EYSZ4B52lP7rKW+5P/zh+7JQvYusWwLGPhEDXKeRm10RNtZlmgwNcPCP/HZjB432+tYV1FQ6hjebW32hwU1qHPvIMBaL+Lb4MBJpnOdWzU/BAFHidIyl6/7ShqON3R3Oz9+Ka0nFkyuzfbHsrQ+4KT10Ld5Sx9I8lVwHx+w8lIOHQ60vebj3hMOk+S/eWChNUFSyX/swNDH9Lx3t/RRD1R8bx8fWMGt9YFXVpJQxSD5pXvx5JKeRflvDoShTtwYnlIbrFD3G4yFhduQZY7XluxUKU5W6HOWb1VfhgZ+YOooSaqt+3YpqSGGLfLo9HivlHAM1keHQst1H3MSNiqCHJM5BNtRWnEJHCnAvaG+UkYYGheu7eAGMwd4BObA6U9+fgV4cOvGGqTBDJCP5J0/sDxPdm5E6oBurJbyk0jxMwH4EvddZN8HyXftiZX1NjIKCqcxwObBT3bOLF/krJnrmYsVHbGcaJ8yEA2I8W43eQdfyRRZztmzQKyYc5x6ouwl7znQu9zNDQxdu5KBHaYR5k+V2x33rSLH18CZ2eyske5fAuA1kBCDDfsIisNL8BYXn9c7HMMthjJLxT1zczz7xOxZRh3e4uKHEMpzlwSXEzhi2yZDwfadVSgu/SkRIUtb72MRtgN+rShjFCQQe/LAgyQytTdw65lNSxKobXOLHMGQBzPkqJOrXcV/heWNYpXyWLqL2PFdCjsOuMKu9rB6gEpHW2Ve4rC4dr94FsXCucwltMlLrFu7weJrje+mJO2T/J6SlS+gAAtEzB8oLzHmMGiMGxQ7kw/cIx4GDwn7O+GhcfbF3pq9p98bGUFZNpi7HzbGNzp3w3BMiq+qHbGQgEBmFUfk0B/Dw+BqcoxDYE62yqSR2ixZdmKP21QgcVgJgt9g0uZUo8LlcT4ti4M+PSUn8f5AK8BqpybhGmE/ng5fMBhf5HyY5mfLMG/R2JoylxRHUhXaes5X6S0UPeBs0kBsmD0UiGX5JzNisGxnxJ4+cq8Ygd6CpCSm2rwYCQefGzcXcrNCINdrKHnsm7igtWyMa7NnWbKvzYQRHXByG/COVT/CgVU1ULJtrjzYpyY+aVVYf+6g5hvLoWidNe2v1I60LnObFf94yUxlhOmq/Er8BFrZZL72ZdBsdP4k5suKpxavDH+I3ygsqPCTNXPYKTFuBHNIT+M2UOJFX7U+uG+osa9h4A69dBVO7wKWBEGj10AsdHlPymHzaslfbI1jhsoNPqgbJ4MIeI+dp+Fmk80N3kweOMWPk5YYXJyNArHL4v3gHlx6mO92MrgnkMrilhl6MRm+QveysGxwBRrXwRIBhwpC2moObCAY7w4x4qRfCzD6OvpCrU4kzcht1xrmuw3utiLPsozDMwGFL09gpaX7qC4HejNwAMRZs9cDI2Y/7ujY0wfueaVBOZ/r2n19Lg2fcF1oygxev5LKLovCmVljprhLoNU39t4o0qb4VSaje+JQx1dS3/QLHpqUpnXWfOjNv9FkQebxQdJ1lwXrUhMDVwBN1e8MW7RZUEdwSyDjVT10GV73WIwWyhXWPRYsV8yNGUvx5c6LDgsIj3KBO0wWtw0FUpl8nluTcmreGxsloFUb6yQEq0A52WNwWk/25LJ0gvMK+6yS8aaLviPwWGVnt9+cYLg5BsoBiaAmfHnpyLHwKT+89EtiORON+RLui3SyZVD3nK/DDfc+rj847LcXqnsNTECxLhQB4LThN27wpNdZFpeKB1JPH7hbAsY4OC63hzJ93g0BLF6HteALEuAqN+Cxla2HW1XvAtxolwc1PQlHLQMueUtAn6NxZCuYLhSskNNT53jFIX51JByJNL2uNNiRHOQqUJofKPFSDYhx1BNMU/ZY4PyBR5vFcAOuVr3LypZCzl3i2DJfUzhi1YakG6iF9dNz5TEbo73Lyt3YPUN3CpS5f/2y4b7TrEcNNWuMYwwuvwFrDJ9/GmHKunPOzkZ8Lv254P+5wKv2xZJDHqkcfAIvu/jcCSe/cVM7MUNkLyZA4bsbp86ouwpN7BJVbiuo0JgnToeXWl3PSJoFUJzD3IVV3GE6K98NbHvWOZQj2BkAOJi8VOYARj8e/ap+i3YmAqM11qhfa+EF9i+4SOcP3CU3c0cKYBNsiR+RI9yB0gEJWGzoL7Y8okvHm11ORh+cjGFM48ydDY4LuLS8EKsDNPjaIDoAHCRaWBPndyTMoszKYVEVdsgLRBw5rzf6Ds8fuFsZrsGhN1ZCESd/pMxIVMG1hvADTRywfyKMw8/0OL7EMdd1k+XFzuR7T5b7YbDiDuIA8IwBJXtu7jjwwCAjDzEJvTU0/TiRGjRizr6M8wQXzQMrWhvgD8gBwBlhPP6bJ+7i09hfPObG65jzZRc29/Am9ngHVeDHnLBiYXmxBD/gyDQLvx3H4lWWOa0cznmvftj5ucrbE6jcBqzK5uXmnWQJA2T0xEMKSnyllJ0WN79EfpFK0vbhIqF4YJHd0ierf/vAonp1Kpk/dkDtpePxZLo3G+U7V20r2NEXNcw1OgIF0Dnr36m5OTOCS6mEsNEz+JzaxeHFnBHpISqPOpVsfT23DMeK2NxbXVrxDA5XHc5UJdSWHWocjG9WjkAdchg7eXAAoeGUteyzedvxuEVFpzeiAEDdhd6vcomRJ9e4CR7mtxuTL14e4TqxGWsO1fBRdRztHF/Fhe5pn7252zY/fZYHlspD6VKMxM0l6qMAb55YnkfZtEflQiMTiG2w2/zORnjo9fIIxtksdumGGP3z0JN72stQdXdA9z1ybw6c3Ac3fsNHJ3fkkzlMtFF4PyNz8Xu4kWGVxWVw8DxYsa+xdFzCznIVr/vjTIe+7gifPXksS2GimiXHjlqYMUJEJirBTh6vsEObUxuZbu3eiW9MKsOqUOK631FPvexfX4sFtyfk5q64t2wMPITLhZ1vzKtzhseo3t+g5HAwMzPr3lZBZdXCRn12aPcYJbW4Jceic+S451Pjc+PAq3lT8RVvy+EKPALdixcO/eKHo16O82F5EqCncil98WMxL2f5sPD781k+LE1nGIxtzyNMN7+a5cOqeK79woPTviZzjzq8H+TDUbjfGORj8HMBgTh9jXVzjtSrQT7sMYRhYVyBNWqO1OtBPuTZcKvLEjScMo5olc7RMp8N8iGa5KJyCBETH6/UXg3y4cFvDPI5f97OH+8H+eAk5yzAQ+FeUz8b53KQj0W/784gn1ngyOlvjQntjwb5GBcQC3fTzuVfjtiLGDO5x1G6DjFzgSLziXBSwTBxUuB1kJndLcq9eqzl9JOnFkHmE+m6sXUQuARmj/sYodN9r81i66BOpxlSl3Lw+64G+exdyh8N8uFuMQYp2GrTfc3X9SCfc728X/rFIJ+jFTjkb65dqRumw9maEWYKLm0Nj3AeRhZoRd+icDHIR78quQAumAOKszMvpvhoXPlwI0E0a30F7vicTR9k9/0QH85VZLE/Tmmv3ju4HOJzIg13hvhQAIX7Ujj4NQyLuhziw5Jq4ba30VL2I5ivh/iwKS7GbJYd53xXXNwxmztCU9/lEB/GkHTGHxOcgE8m+MyTQR6WE3zOH/hgkKvxPfNXDpob1eLzmZfje06u9c74nvki+Q/OI42VAu+n98zVcJyH0xhjcoReTe85A0Y3pveci0e+emC5kMhy+InvhvecKIA7w3vOVc7ud7yf3HOu5fbE+/vJPUeVel9xr/Xwq+K2w1C6W24INMEz5fjNA8tlZcaW/FG5RzEOoFpsKsNZTv1lXQZnfbgLv9pUNmM97sJvbCozbirjuJZmjHU4Yq82lRG8FU4qaczVxTV27zeV2fc2lTEgBc+XK6MBeTy6v9pUZtxURo+Kf+2jMZebyux7m8qMrccmw7gKKQzov9pURpDbSuf8/eRH/VxuKbPvbSmbc1G47YG+ZkhxX20pM24pU9ayAqyEifBXxU72nS1lOPQsT7gnufHAdaiYQTYLBy5RIO9A5m7Nyp26oajpar+Fza2VMPOVDQrBCrxfU2bfW1NmTFkody0loJKwiXuxqIzsVb5GD9vO0Yeip7eLysjRcVzWcgYVRahxcxO+VXqoIL7cU2YceGRf1RmhUuByT5l9b08ZVVNnLbOxQD1Ot3m/p4y6kEnTTqfKaabLNWVUv47QG1vKSGjhSHbOkW7+Tq/WlM33QUBrjAb5cTFXO8rsOzvKHs7zzUSSfbqkjMuWXPPZakmZcUkZ3Qd2jz/f1Q2Xz+ZeMEJvLnDQsPL1Yk2ZfW9NmTF3WWgl4BGVUGx5uahsjucCbwArZl8PdLmn7AiVdvd9sacs4qvViwuQ7+MDK8OxPoB/+ceffv/l6z/+8te//e2fv//263/9fPz7v/z628//+duv//r7n59/9M9f/vSPn/Ff/x8=);strokeColor=none;spacingTop=-3;spacingBottom=-3;spacingLeft=-3;spacingRight=-3;points=[];labelBackgroundColor=none;rounded=0;html=1;whiteSpace=wrap;fontFamily=Helvetica;fontSize=12;fontColor=default;" vertex="1" parent="2ktrdMOb3Cd3oE9HsooV-56">
          <mxGeometry y="8.795811518324609" width="547.4056603773586" height="120.94240837696336" as="geometry" />
        </mxCell>
        <mxCell id="2ktrdMOb3Cd3oE9HsooV-58" value="&lt;div style=&quot;&quot;&gt;&lt;p style=&quot;font-size: 12px;&quot;&gt;Горизонтальное масштабирование лучше подойдет для значительного роста нагрузки.&lt;/p&gt;&lt;p style=&quot;font-size: 12px;&quot;&gt;Так как по требованию бизнеса необходимо обеспечить бесперебойную работу сервиса в разных регионах страны, то несколько ЦОД с разным географическим расположением будут предпочтительным.&lt;/p&gt;&lt;p style=&quot;&quot;&gt;&lt;span style=&quot;font-size: 12px;&quot;&gt;Несколько кластеров выбраны в силу снижения зависимости от сетевой инфраструктуры между ЦОД, так как они будут расположены далеко друг от друга. При этом, балансировка осуществляется через&amp;nbsp;&lt;/span&gt;&lt;span style=&quot;background-color: transparent;&quot;&gt;Global Server Load Balancer.&lt;/span&gt;&lt;/p&gt;&lt;p style=&quot;font-size: 1px; margin: 0px; vertical-align: top; direction: ltr;&quot;&gt;&lt;font style=&quot;font-size: 22.58px; font-family: Arial; direction: ltr; letter-spacing: 0px; line-height: 120%; opacity: 1; color: rgb(0, 0, 0);&quot;&gt;&lt;/font&gt;&lt;/p&gt;&lt;p style=&quot;font-size: 12px;&quot;&gt;Фейловер стратегия Acitve-Active, так как все кластеры должны быть доступны всегда и принимать трафик, в большей степени, от ближайшего клиента. Плюс явно указанные требования к доступности 99,9%.&lt;/p&gt;&lt;p style=&quot;font-size: 12px;&quot;&gt;База данных реплицируется на основе Patroni. Бэкап выполняется черзез pgBackRest и складывается на внешнем хранилище. Шардирование, при указаннных объемах (50Гб) данных избыточно.&lt;/p&gt;&lt;/div&gt;" style="verticalAlign=top;align=left;overflow=width;vsdxID=7;fillColor=none;gradientColor=none;fillOpacity=85;shape=stencil(rL3bsjRNcqZ1NX1aFvvNITbAfYwxAskAaaxHA5q7533y61VZ5R6VkbV+1CBEf+krvSI9fO+v/y3/p//2z//5v/7T31L4b//+93/7P//p//2X//Lv//y3/D//LaV/+dd//qe//8u/6//6W/5f/pb/0//+b3//p//j7//23//1v/z5//+v/5kn+b/+73/7f/gL//GHLjxahyiF//HzX6R6/Bf/65/H/69/+deXx+uj5r/yeNT7Lp4vjx7/2vOPMj4/rn+df+nxa27cWX77/PVhbh9//7Lt0ds7N/lRy+c/757Pj5g+P94fpf6Vx8sjzNfH/7f//vc/3McfghZ77mXE1Hss/6CNP+/qMebRS4ip1Tn/8af/I/3QDv1DmCGPNuvPoaUf2pJq7C3Pmmuf8x9/+j/yn38ej/AjUvmHIL0cW/ifFsyOh771DGnM2WtOltlQotgIqbY6Quj5nduho5kpzdlqnCW/c5ses5RZRmtx8Et//vjJbq/v7EKxYXc+Yk461DA6/8c7ux/fmH6IS5ultqhPE+K0hxtj0LmGXFtJIRhu5yljz8MtO251i/QnYx85tNSGk4SextADoRd9TXu4Ik49l1wqXBlRKPqyyEmaI7Wpn/rOrWhLeme3PEbds6tvLUkIKZRR39mt+rm9llaqxDeHUB23+ieJZ2s8JZbeGW6PGCRgIUcJS5lzOIabkYb2GHnP8Pqlz5tYp65gGzUOCfLzwpw815bKzFO3zYqvLsbMUX9bnBwi7k/4nd/xmHHPb8olVl3tKabfmZ2PmvqYetusJT9/yym8UhYt16E3jZ/j+x/nLwkhSnTLSEiLl96n9J38593xzkduc0gEe+ujmMt2fLFRWxPLsUfPrlRHkVDP3movjt0hohmlyqQNJftONThuR9pwK2VU8kihlaH/FMft+o3n146t6paO3kr3p9uzVMqIVcdfQsiWXat4kazdbZOqj1U81TCKVbx8nZ6yXjekOPIc5nRlYmoMZYaoB0Z27EbdCtkJ7mlxp6tbYXTDfIxuuLU28EnyO4v8l59/9xCcTW6PmV8f94ddaiih6HKlFoxq05eQkcuyGHFK84dmD/uQ8lCK1IBsZXw/7iFzn8qQqDdpRafZ9MftYYfxt50oBxm3VKc4dkZZekKXSsa45Y4kG0U8HjmWLuqoOykTYbiVHesRI8dFiacaf4qyVcMQbNnFCoU+S9MfDlYLf3rlk6MkByPyWUp7ikE6f2xqUfcg6xF38/TP0Z3u7uKJnxpk7LFk0yjhIQuYUPplHD6RZXV0GesyZZijZVUfWp6J/LIR51IFD6PU2l6nrV/4tMijSmLlbEr6glNp/MwkCZAukAo3OqJKRYQw9J9DlsJw5+rch9a2zKZRUi/yTmfOxlyUh0ywzFrR/1mdBEgoJAIyFy0+xf3pl8llq3J7hx5B7J3Amvslgp0E6I7UNiSNp+d0emXr1z1vV+ihBTlz8tnM1ZJPFoJOU85lQo8Yj6H/fO6XM+07j0G6p+ehi9U7H9sKQIoDp1VXQ7JqBWCt854CIG9CllC/Zsho2mN9UbBPaZ3WX9jESVYnv6vwGKVW356/DsNiejxF43fPj8doF8+X02W+9ffrT3D12+c3MTYMjb9GUN4CqtUJffcC98m+Jtic0fZ5I0NyFMc3f3/+eBW/fb5d5jlSVDzyl56/5kcR7l96fPO5PDtfE3R5H9+c57fP7wTOCcTXBBuJ2D7/LqESgHeBVqBx9cV0HtM8ny+TTaJQxBjmKDJJzYWU8pxki0dNrRhfRoQh65/kXoVZndvVZXdkxOtsigGn8WXw19+tAzHHzqsVVW5VZlXczJjeWeU7hTFGHFPh+jw9vR92ZbAwhLJmuTwV9c14kuRFcgxvvS8MdFOkLs9Wvu2XEeWRomlDtjeTnHAMl5Hll+GHKmz48dKfDOcfW/Uao+2cBVJSI8j3r33kZhwwyULSfx/kfsVOXGjYzQ98CEKcloNhdzyiohFiSf0/0YU40M53btveCVu/8enatD6z/N4wcnw5n/TySxVQyC9OmcM3Ebu8VXmhioyDgvk+5+J4jQDvUnl8zipvuQUdY3FOY5KURMllIX1mw4ZDjkIuneinmMTYLk2qo8jGw72RJ+W6SOpSqLouuk/zy1SpPmBppCAkLalWd8B8uz6PTFXlgJOJIwluTH5MnvUukESZKfQXU5K0bjSEvmmdg2wpH1Ueq4kicEAjAU1vaZhDljgl/VwpOv3SccbM+YXUCrBLiSy49S+MT/nX+QaS+KO/ZA9feA3iR/GZvPr+1HZnLBmqwqVBylUPOX3m+dXJWfVgTEt5hPcizDvJUuQlr/q0MgG1GwEiRdEJhWbPtZ/R7ov2y3OgNEhRWXXSemzyP/PAHtjYQ7TFqBMpr63y0yUj7iw91FJMhkd+RI3cgiTrUlzORPKhAFSqsxX56UZ2NhmThW25kTIRVdfJpIKR/S5fcmkJpxyyIQWfWmy9eWbbIxbL7FaXyG5n8SpXQbHtiy548TIaaRMpyPiS2n9RJaMj5km319Qx5E7JfoYmJdX79IJ+uk/PeP/Vf1rJ+c7jMg5a+RGt02WPF2Eif/76+cXx6fbI2De5AuH0bE5TV3XFpIdJgiz8CI4vyhaWFmd0aRzRRLlqEhVrlNsZ/575hl3KX1SyuBUjp2+Vp82Pfao7nbIppXDkUhN1Q6vXMkUMHCJpTUoc2Ttq2Vz9G5YukPaXopkunffxfS+WWXo6j4DmeOdVgiHtrBsqBVwXPnBxuUf9N1sfuJDtbLLNseiG28OdXc5vC1Rcx0qniiiFLDESQ1YS9NFkjjnzll256lXM80pu1xZjczXMVZJNaOb58dak4E5DFJUiRuc3l+cvfqk5Si2Mo0InSzPtgQw8yCjdEWumPu2+YKklRjmtcoOqt/q+Ap1/oruLL0gJOuP3N2m07jwreUbyAjt+p5xT/xGloeWDpyFdGK023PmCOTyi0Yc3fEFR9UZWOsmp0iFbBbTzBXN8UE7IR6awrC61FHttHEmvEr1naJGf9K3Zc976gjlJNjjKESl0BBshyB2U8UxRIdZhJS3TSZpKFifqP2EYwdBlwYHEGZe1dKl6aF32cysY6zc+87idHG4ccpr0JawkizaSVVYEL301n7nj00xWyucjxlFLc+l6nfB0HlPYnnCkAhmJEeSP9YVdbzoqrl6TYXJ+SCZZp3/twzl4R99DovxEh0P0ByyJyu/8UvHcFRgkyJOqTYuwbbglgdBGiOj5enxbw2541KLoocltGhSpfJH3MoewuHu3cgiUUmbBKmbiZ3v5tmkEfUj9r5ZjlMOXHM/XaYRx5ue+SCNIrRL1DV34bOQY5YebUuYY3Dob6X5S6GciQcFkm1GyXrNPJLxYkDMOsxfPWKmt1XFWatgc7dZKcW1lkYs0vrvYAxVCl06ixcQGeuMxm5zxoXsiN+L0p86Lvao35ufHT9/XN48+J0pCTcqz+khoWVA9xa0rCqL8HM8OlXuR0OKG3IiEuJc5yp+M2GrH7WUoJFqFyHSfZDJbzjLxY0OqhRC2e50ZvM7cna2ocslNNqnELIfcWn99z0Y7Ejm/1FwmSOTl6EZqVS6rz1tRI5w1zhZ0g2ZYWNJi8lbPPMslz+uXPr2sqddNecijoOeHV/S56KdR4M/DcFwf/Mks+y/5ba4RbXHKN6IQvis+LA79eFZNX0IQUg5T1yb4/gfkKcllbLKTsRkHqzykknAadMD3JHgbfiwvTLx+Xbq6qPc6/BaqQQe7tUaf1NFTFCLp9yBnjgK4S7suNeFZUZZ7k7rcnFqCK3+/6t0vdPtGV7/r9tzOvNif/ya8Pvz+x3P/acQ5u5LDZUIMCsmWIsVBcuv96BC7UORdpIiPHH5s9VMu22PKeRv4JslGKpJ3nao8ragX9PmsxzwF8/m7T+fjhoOH1xpaHvS5dKNa49F2M1KXlOXoeG2KvBT6Sv7oZTGyKYUwSfrKO0R2nZpqLoEXf5oDLrmlFtWyvJ2e4/NinwxX2YcsLV9J5YbiD5gWSPl/uo324keapiT6uc6MobCxYK5npfHJct1qVkXskXYrHVaz0fzHV6YncUElzyrd0GyBSB9AEYH+tjQZjp3Vq1IP1hvdN/iKSooqwHB8+pLPKDCUIf3eZYGc2aIcpTi80Wpru9LTg153qekuXV3oSzOs5kc3Rivt/WZRyZ1v9ODMkHy9RdYxt0r4v7Cyoo2SzDijdFw4JekZsI6jU5R4tXXXVAa51azbbk5+JQWr3BShWNEl9U5hSC8byTf981l0rlUeUO0jWmZ71AHToh+mz5AiCOZ089toyCdBkJ5JipfwPac73Sz/ME1pMqxWbo5d8rzy4Lmrwfm0dNJXhQ8oNFhOf7NXLWbLcdzKQ32Qg5Bl1wWXmgwu07d+6akc5EJ2KqMz2GqsDqzWgdmSBz9cVCLa6nyYuNUNjQocWRF5irY8xAlmxXTUNp271eWEiEye7YzWK6h0ImepDAWTtXvNK1rvIM4dq8s3npmLHjJRfMMdsVdNJrHHMOUW0DL3zuyQGcDrlFYe3Spcb9HuuN8yTCOTYGkkQd85nczdDLIDiRS2dV6wSjX3Pz3V1dyybcaiPaI1aXcyFnKKpBq67FGgGmuldpu0qEwoyLbkrN+XHM/XGYvqcr53Mhbohk6xv3Z54MkxfJmuEHFsdHhGtKA1wvq1uIiyErpovo8++7I8ExO7fIXIKv35uXS65a1QUFbKTFyVMlx8LlqR4WC3omN+55fO5KPNIMdIN7Vn18rEM99yya1ssD633MhoE979oROlCzpQk3ASnB5TOqrIgDfS2tYt40rV3gmHpWJcDeAgf+e3Prah2Kd3PvWu1G2iobrJkwk+RNchHZ0Ycg56tZMKikYG6UfpF+meWazmzY9qOJbbujVudADnEqR8C1Vdy7I89dFIG9MaS++z1Wm6AG2SU5uSdBPvBsIy/fEgtwzX9/mbXm6dcSTDfgoPPRHptFJk23qx/H565atx021DWINt+Be1fKiub5NlHqXhmldtaTiO94qYHKBC30lEZBmOMhliV9eHSaZRh2NYXvqgyCiWxnMw6+Q5hqIrkBi50C9uzv1trgEiGI5NsHcdGbow0jTGtjffen0cvVWpkCZzF11crdCkzSahrIOEe/DnIW9K9zaiFo07RX9BSzKksrL0vUx3FMEInKKSG+6UPFF5TJ2ysvNOii6RpKbOw6O3vpSMUuRiyQEs1dyPQquYPBtZ0UTfkeXW26Ty47JcmqTG8JtcN6Y3LbfrN563+U+uIxfUuOW2yCNQ8Fbp6HcVQqxZdWe75TYfmRBmPmOxcxD6mpOetVJaI7Lz9miEo8Y29P+Ya8E1L4TcMnVluL4ZaN+Z7W+Typ+YXbzwNEdNql9qJUsYvHeiH8rJymmqroVUplBUuv/yq6Ofp+Vonf+3tfR8L7mp+lSlZ6N1prR2RKWLV4m0HfbMlPqjrKvMfPKJ4j7llkgTSS8t3GovtVDs71ihmo/STTaL+emN5x3rMrbo13yWus60Nu0ZeKk9LEJCaYT0zu34qQ9eanTZhx4VyiNj79wy6C3D0SgckPnxBmit/p5p7U4ml4n25IMr297YfCLDKfONfjb6vJ/9qacnetEVnsfj6fj+vOA1ab1IJRrrct1Frr+f2zfPP0Ojc7LjumYlikj+bhSKt6659nJuKOP3Dsbru7xmE3Sgv1CmodN+6zAI8jx/2dPH3Of7J43LCt4CCT7XH1WkLWloJunvbaduA/PbKWYFms52xow/HDtJFFcfFa1tA37Ye2JgO8J34BElfv2lh+25eR28W/z9Z0XolmiX8OVIhTh6xkU/yuBqZgMJeL+c/WdE79NdSPErhr6+zXuCd32hQ302H5+R1dV1OygY7c+1BFdeu2xiEqlc6EK1fAybBt50MJXk3OAbHUyi6rPHWGREki3wb9qXSj481Xr4L8Vwu2tfErEdgbzRvlQw+nKYogxTsigEu94lEc9MHp7Kpq1Y7RqXSn1kl6ncun+i6lF/VhEbAdI7v5uupUIcKCcX3TyacVY3XUsH7Tu3N7qW1m+817VUCCJynUHu9zNLfLNlSbR+0nxb0RKVJFNOpTzKI8XhU4BXLUsiT6S95dFKB/js1GUKsPzYhq8ygIVkQh959DB8iWiT/iuMFA/md2M/EH9sHW6TAVxcuDsZwEJiizJkK43CvvUfdklAKRg5e7pbzEIn35e5a1sSvbl2N7qW0KOx0LQkVVD8INxV29JSfd9rWXq1FXfL2nv7YuxRetjJ6o05SnQD6wc3kpf2Tl82LPHtAJ6QI6YIPzqRu25YEvUvsvrIW6pMGtFbk5y8bXqWRF6yguoqC3CWCu/1LC1uyI2epUJveAEVpI1hp/I3PUsoBNlXkWfJpJs1+dywVIqDoLpztvXxx2YwB2YhqDbdSgX3GeQkUMds6mTTqlR8le9Gq9L6jTf7lI6fWmuRKpVqcoWzyz4lDtdlerZxy/Etc2IkMpydUff6lA4ZioqaI8KQ3UXbtCotBHd7uMt7cq9V6eMVvdettNALN7qVPuqie91KSy14r1npRePeVuo7JW10erdhz3VgWMN38Bf++fm4iCP1uIk7v3w8preE2IIgjr9IsAls2zll8FuCa5bKS6b9lwSXh6rHy+Xj7n7QYqDwsNHYaQufitJp4G5TGpMSqLXzjNoytCzfPlll2UgQyXkr+h8pr2j9s+56DxcdHObHbeXd3Q/T+vdeJ1ichqIVHcPsdOA84YueBRi8wjqT1MgY3oXoj1r/BOm9/RTIXtoY5MRGBrgpV7kgvC/anq8nq4rs/HvW5low3OP2LNxZb87u2+ffv039Erakfgdb4h6/Bu6p5fFNRq7WLxWpe36jV+DnK0XkCa5xezif717wLa7L1x94+7wRoGaRijZ/v1tVvXl+PMZ7znL+FPKWz7dwjkXf+fvtZX7pd89vPoAY+i6t6wneh1HdCc2zsnlPJMaXHNX+M3d9cpSuDL57fvcCJ0RfE2ykaPu8ga1OD5u6vw7TIVDcoDiSGmC1ZfhN4ljUNDvHASypcW83eeP29Fu+yRs3/XzSgIPE3jyRJe9ljkXdgF/OssKt+a7RXfK4lUd6Z/lG7rgdraqKCOm2qibk2eWOmzS/fKvyZ37PteVe545bPQHe7+eOmzxGWqJmDrTRvfO7yR2Lli4R8p4528niTe74oH3n9kbueP3Ge7ljaEMl81xe4G/v5Y45JZcg3OaO24GX2eXLTUYw3rndJI5Fq7j4yNXqCD3e7mXiWMS2wepO5rjhBYBIm6uUgLlsu8xxQ/0rFle8HnKvjuHLtLG/aneyxo02zJJCjwdgqeP3MmUsYtqzC2WpbtvBdvnilhwI6I2EsagAdmg6415CWWQdL3PGn5T3vbTxi624m2DYmhdnjca4fH5xIAz4B92Q4vqWNmljvh/gAkkBVGkuhX6VM27ZjbLcyGsibQpv6d3S825y/TJh3MidhSlBlQL3UPWblLG/HTcyxu1oqmYjBBNOjt3LjDFGTP9TaHuvsVpmP2eMW12g/exPFsAx5gvESLZASpuMcaM1MGdkHr3/zuomY3zQujuxtfDLN97MGB8/tQGciFtijNAmY9x8gvtGxvj4lowh6KZFqRbXeXmZMz6kKMsq6ppGO8KwSRh7sd0e7Ydrci9jvL6g99LFC5VwI1281kH3csVr3XcvWdx8cvuOMt9oZwN4H4zy729jPQ6LOTzGe3g33i7+AmgakBj5wqkUsAqtc09DXKC5MlbssYPIZ98B6g0Eb3whp6QmujihOKILR3o4Q7/T4di2rrbJvEMQPQ6dx9Vglm5IIOQmmZ4xUZaeZxpB4vcsxd71joYDW7nlHg3mJBPNpwxLOW6v3SN9boBlIllMWzQ83CPmSLEA04/jitij5O/do370zpXGRKN15/CNOuaVmUdrXcH+VMiUMh2IceEYdfmtY4AqOJwr19yMStvvVfn0yrP7fupT58Gks4fnbCDh6vukgd5w+x0OGyFTKFU3w8K7724KqNwInfojM4GZdLTJol4wQ1VZtRMI/3XZrGplrw2LoHpn2O2dXQXyTMwyDXIchW24FfHzaz4D07I94fGA1QY2fs7mfDPnyxAVk8U5eH9rPFjuAI7atIgw27Df37Y7cT8XvDK3VEptxrHfxv1sXaClqR0DBVYejoEmmk1rKJiD6rWZ7WzPP/n7zxyLCnSggekftnqRH5JfVCsjVDJezRywiOXEDDm8kpmaLcdHC1IDp1WiVl34hOo3bbDVLwdyBsaUturPyohP0cV8zEZPETFEMhJfH4fokE2I3ZsXvgg4wT0zeOxKz43xPt2HSrzmkgXToY+Vnw7VawEaeC+T7IWrlUepwGOvAoiiFvCy0T+NjzZKo2HZyc81BmKbrn1/K+4MW3RdPXyc7oz3DgUR0yQjyhRfcPPn5ZgfY+Vcf1tYd95PD/DStqZb9qyGKl+AqXfX56GPXNl4Auacz3MxTRCPWc6Up6vrMyM1JEest3ChZv/x0K88tQWzixeecfFgxFn/U5ybQdD8BzNBqjp4SyhvSxI0ZA/7Iss1TnySM3rbMqtvGdoki9KijYeA00+MTjMD372XgZ5meEY+yrR2ZRcVswTIcrsPi7kqwHrUNodFKNmFxYzBgDIquewWVfvTLPh5x2zX3nzrav/E7TziHXkLM7t8PWtsdI3ylBf9Mnb6oqRD0SXFtFc7ajxAiWM+qdXnZsJXg/LOa/cz/U49X4cLJrp4QWl6Grk3bW7+fLENjN8+f12Q7vnMmP7u+U0pqKcv17t6gg1H7kS/fX5zotvnzReutrdk8/fb46sPbB+/Ltn38fimfNrnI37FjXt+93XdPNbXBNcle87nuxe47/U1weaMts+bVTsnsMg/vGhWFH7++8XeyK+fb5ciVOzGwG+fz8FkROzztiPgy+cZnr0Yk9LXTH/p+Q0/4fcPb04ymO4c97g1m+Exc2Zyuw/MY7J2k+0MmS0J6Q8ArvWnJXpUYKb+BpXPv70ZToJXhmRZltmLMfPRoeEYKVyYzr2g24th5DY+yuUqyvg4INeanD/SCuYsgEBpLFVWpNP9XgVA0NqxPDrm7FaJ6CAVsDZWRBfwNOxW4FMt5uW3W83aWru3kQ7/vD0Pe9yb4/vycdNoZHu3DHKT/zpQBObxFFQ6ZKyU9O2qXLhMFcxXXRUDVyA6APOftgrGh4+J7SW1lVcQiGckYrfIgvG3Df0eeR6uYzsQBdzdIjeYIngcZS7WKvExFdMw5/OyPio9iVP4s/NUcVpyw77dbb64gRzC4pAo/wWYxMIsuWN4/c7TUc4sQW6RBh27cpzhVkAUo07jiQ94zsBbbp9tWZ/ZJSwgLQiYXHBbdOLjSAkGkPpScvUaRShB8Th5XxYMGGbTY2T9R4FYqov4z+82peSy53f1ylPTSmZ7yqlm2ges/E59UAWNICIlwPdMKoBRbv3XtAYDuLFYcWph04/VIVuOAz23YMkVt2bmiM+phM0q7W8MwwDDpOiDT/ogqmOX5XJhlgT0UDNZluEgKplT3guvYnkadPKM2carWHAgFBQAsv/inVcFYKGNqIC/kVJ04x7cC6rjIzDDNlwSf3HXxo1sACgSkzRm7Q5I9+Mrzy7wIaUyZmS1sdVm9PfEMqp+0CymIlbtpCRIJLt+Fwq5x9LqTntZsEksRGkcy7XkSmRz0dZa+xTbAhBLOep33YltdYtSVvh+pjdwa1hMN4aJx7d2iJoF0HH04Ddnh+ojys7UorM6Bixt4olWPMkaCOygIligMNJkGbiXTPaluzSZQ5nm8LfZEcX4+XA8JP0Ahrnvp68qX02fIc222FYbMsIaOnPpzSbL+Pc0M4kgaadiWV5cj75Xlv1xZj3T8w/E6zeedSwQxrrOuBaLlH50z1FcGIetW6zZtigZd074KKPEA8kuBgszkI5hbFn6PrK+/WLDPaWZVMhJu3XQGAYpLoaspCuKZdYmTZHeLa+r151errxYwFkjaL+WUVnTzuF1Ouqc0Tz2XkUKMIuFUWx2NrzGn8TkpVqn/lDpa8JDs6IbGSTLhQ41Brn9gvgOhhm2XK73cKIrN4OuH1DCj/DH6J+F7MafdMGV7K7vS9y8NF3f1pNnpuvpiADnfqsfbhzyR6V0OtelMhorqQjdo02tNeIZBuro6QSQM5uar4HbFOpexW9VtokD89mE+I//pr99xcW65lwdweWIEyQRAFxd0mg79CJIraMC+TPjKRDPyPHYRzppiJKjZVtYB82OU461XGt2uJlrFYvrJBPJ1rUTWSiAoMkJKxa3LZLzHjnRX0m9xuqBCIyaNMgYMc7udyWIvtWjmhhirV7Hit6O9LK9d6e4RCYfTucnaSuuT4N9dZM215qJ8ewZ56PylyddCC+lqxeW+8TR0s2cY9qqREwWwE0Eu2sloijXpgLFnC105KcX/vBDLkI/A0y5aTHReDcQEDVT9+9eJuLjWaf++a/2EG6iSsSbIIXZGWSRZ7k1I4Z8TC46iSCBQc8YHWk2WI3gFCWSRIDpJKcBRGybxgH83x4v2SvFeLpwKBijsgD97/IeuiKY4PdK0tbTFWp10CUImLyWJVYdUncRmGQLiAu99RPivnWHnwpGvuJnBXG2+yHKdWU/j0InZNwG2HygPtjhV4ZtiSSVx6aoeKwYbq6rGZHwZ9x3OQzEUCGabKvebBv3yGDMTEMkS6PthUsEj3JjM1U5e7ok7jLN/KywHs7vj8kita6yg4v7RkAlK+NWLH984ake2Ag9jp2vtnLNQcUMfjmpAI/eK+LhXZvt0bKHVSpJ0lDcyiww//U5dX4DnebsRaGTUkolu/UE9NAAvV8rCySC6wqAeOEz7lqP1+98SV6wfENeSTpGWezpyjiyQEI+WKkW6onURQHIONBg67t5FwbujkeOjSpA1gGpUOoqaJUCkFFVAH2w7SWix5qIPwJ72BdRz+cUBuJkJeJGDkNkTwjNxGSO9Ryv0hiYKHIYctyZk/EMb9IYMT2y9R1v5DGkIXSEB5C8vp895E0eQ8S6rJNAhHF4d8I6Wf1VfYEBBKy9dtG1eeOwb7UEG4zInSSA/ps7YenXKpPFCgBnMuiPl35t8oGtjmgMNtRI87e8dn/tgpeIusf/B2R94kaJVTdpRB98VYRLT2FqzeUaDoT2qh9K3OTccq5VpjeJ7qThT9d3/kq11F3ss37ni1FmgUynW3FY+dUJ6fCkAo5c0zu3ciFSOsRkHP7UdMwOE0Xgw96wbrjUDDZ1h18XaREivSBbm8/I80V0h85NzmYE2cpdN5FT5hmgsnSQGtxts71vothqYWKpznwCqU7rUX5444uJ67pJGfSvPJcMA4EtD07nXL0ezn4PT/8Zd79kuUl6B8NarEu0Oo2/QSMQDZTxZbfQC9tsM5HrXsc5nnPynA94UabxmO/zetiOn5nQb1Vm3IeLPr40hdfythV9fSp5MMXTpNGDW/wGeL9C5naswrGVIb7Es0G52AQiE3cKc0IH+C941yo/sg24009b7OVnZMqysidLboA3TVGvjfGY1yEL78xpYhkbKlK2YFF/K6zgFHmyPZeYJfMJTWXx09WW4wQ6bWU+0THr33fea3IvjTUZdmsKPxKgZJ0txRh3p6PD/NTRbutY2DGFgrkRiffqj1ZHV/XWPs7+7hduWZtKWfNPmcsnX0jKTcWJinb8ooz43FX26g3mrR769NoXy0Qn1MRWzrbQndTsjib46UqbmMUj00GOyw95cMoLf3Crh/h2WZqCQeNn7vLFGYxSLwpXWN3j+xzkjgeyV00SY9svD58hsgr5cI+9JV04Vn0/7MeN+Rm6fa6se/NTVu88VQQDiWjdOtx1IwVOI+lk6MKreTsSTX7whmWqAH8GTqg3r9Aqww+VPufY2SDptfxSH57eCutX2AnGMI27edlt0zUq+IOe36hto+fdPlsmYC4Hd4/M35+4XEGGr0rmwb+BbTSsku8M6WW6lBUO2DsC6orcIbmh8VjzZz9i9/Xe/gO8cvER+TmdDmNFnbX6j8gSnNZpshsHeL5hufGNKcrIAczfhh9+b8it8IM1TmJFumLMxZ76bQTCdsFcOv8JjmciEJ0vkMr6Sv6YPXwAEcgNngM+cgEwqPszBgOBggW+5SJXPLg+E1/YLalXEMKtZ0PcaH5pRixuHJKCcNrxu3znebEPCI+eUa7RLSCI5egxoy2ke1hq8O4ZT0KxxoVQVJ8ZLPuhs8gAcGLOnC2Fw8f+hW56yu4Ksun+tz6A2GpJvhcDp6+5g1MbZf1ttkTJiC00fvV1o3LDxwIKRPeu0BHk5IJREbnudOODm2LlggaQjoGTK83eHu8IjHogsMnJzsuTntZI5Z/GzEuNgdOnM9AVyYvrJx0rL1UmKrEBaaEx2P3CVtHksCWgTWwHYGFZqL6K0LzSvzHOdejGCtocmRJ/ygUkFzTYsZPJurHS56FKNiS1FnYV4BlJk7w08m9hpZTdvFz+SWFc8ovpy0z5FJd5YwdYnOK3MD7iHC1odXcVI003O02XkzyLEAu56OS1hVUVab9YZf3Ck1mFLTXIF2U+z3tZpLe6ZJxhZAsLejR0NV1GuT3J2f/+6D5I2M46YWOZt6FD5diZ4ZvISqC76Yhoik/Iy4DTiDDwKlN0RaVdeRl7a/XEjfqyyGorUxqMWoDNYG2qy1y5EGM8lu7VuuI5N0psitqfK6ReGHYpt/iGZvbRSLcIryzVGd6voMrQS6OUU17HpE/lNuiKQ0dkFy8oeuULMaE40qJAWh04MzHy9ZTOYaL/9ubqpc0UJSQDgGR6aeie9D+SxDxVdBCJ3RASRoswLeTcz9LQ+VWqbENTQCBtOr0urKvuin3oWf+0T5DCyj16Qxl06Uhyyzmi5XnBs5RSqYfmH1a/BOlncqn6xTHnlf6205Qp3MjfIsAjJvaidlunpEd1ShIKhfjip/UPm9GO9GN3dcpdU23sqzrl1ntiA9GzqXyhZDZtteg2UJ5HZs+AlYtASbBjfA/4ARfNsSfMn/FWLoZkUc5eYErWAs0cWxpjodVUMmkDzwNLQT+FdEPqPpBjohnQlkZTQ/IZu0X359bdGw/SlU1qOJ5S+KIPs3QPYBRoF+efjkfrkqTu+yjjsTdebnitzTbaUL73qntshXdQ1o+4NYoq7G1L0iCDaVU8NOsq0d/Aaqec23TqIbGl6QCvp5DmzOPwKjD7DIRRgcPN8TyR2D+pwCWPZ6AAXCL1nBnGIlAYZAjBMMwp2y4YUIJ1q+X8srDYNxHREWGjx/6jwi8/xwAYscorqb7YRo5EynG0ZTV+SDfWxJcKMTQv6RT8ALWRA/vMGT359V24Lqpxn8OgNLuxpNUtZhtY/LMPdBXON9Z4AoJW6yLr9Sd2Pk49LKpzADcCbiLDUb3ZfUmWnHkk14rmfuQuw2JSMi8+9RloXQ/5SJ9S3muK64dbWkQbV2MH2wSMyAspHh93N4w27AI2sD1JfYUi875Yokx+xB6JItGtkAI+rpgDfOxQh4+xyjFbFNhaHqbHVIu091X966zcO8czS8SlkwObglxhbdWd5+aSlv5eJ0NOy6s10QrgFW7EqideMedefL3WwTIJwJn52LvSbBjBLCJN4qOWaju1Ut0vJj4cGcUmlL7c4i261BtdJUAa0Qvk3VMFuUf6gpSs4xfgSkU8hSU4DqLqIHYM7wvDy3ee6Wwmr+VOTjLpXiJ2yQIFGPqrCdgdkOjt/EusPm5pN5qJ5PDRyczuwxBPqPcXtmc7oKEKgECLZEGia5sV6HMx9BCYYIwVCxh9SkY/aTH5sJULhlyKNEEHD8JevE/vPJVFJINEK29yDVtsCMgscB0yEX6xKZrGt/rvEzKEtPLZE9MwLuHcQJkA3aMA2OIFWaqR5m7dANZde5PWaFSVEZ8stO6+yay7LfEH7MeeZ2wQK+908X2TQ5WmVcyqGBt4OK+RZZpbBkOlumb/SmyY0DKd4RXnbS5SMmWzIeCGyfmawBi1+ZimMHE9oX3mOj4S2DMnao5y0mXHFKNZhbfplsPdzBwrNsdulzvii9LB622sQrZhH8G3DVXDvrGEbFWlRqS7OJsPSRpQiEAY1ezHAPB2Jc8sl6ffyDE8JkUUWe1jl7Lx1UjS+eRSSjuGsxwk6dDCNu+XGs3r6EKeIEtlsCxt6u6A/tIXksKbDqmNXIJuYiRrfmwJz47lRSV620C5fudLGfrob08s6Ouu24jfS3mOCcdn79RLbpTNfqHJEakkP5pj2FVS8s8g1yXDUY6P3Gt61fsq/VypdLLz8YBI8mKBcqGxqBYrx6zfrh1ZbrTDWEcjeWzJI0e/ZzkcuUJdr1a8bxR1p+Q6yehk39HFMbUGkjtNX9791I9UyMJimeQHcPi6XtftCrscoS47Rmy67DMr1wFwpYM11RW7Te4HAADVoVcxqFdBEdKV7Kk6Y3IQe2Nyg105w2BU0Qjt7V9sTCDrn6vfvMMJYawrcbRdQom11788G4GtwT4mpwy/suFbeUCM2OXTFPy6tmXwrUDmH7kRU9h01hH3M1rZSXjZbhXZnUBhVId7rKi0DEefG9qHod42XaNjfG3MbhC8m0tSSu/PSwYuIDUOpIZrAveRaPYDFPfQItZD4YbgVBHtL6ZlSOtU3F5KLG68LyOSQ36tPMHoe8ux074ut+26SweCekwtMiFhSwT6A4FRfdY9vPazv0hVyIDFDn6vLxGgrOcA+qMyzbDQjNbAL5ZQLViWnCq00wVchrkHOCTApIoJQ3L2Um5FAYAjEtFYXYPtUhiW4wFpZqPcg9aZy61mXL7xJZdHR2Jt+teavGpMrLWqESTMEMuqDMMiXGb6+6QpzMtFdnnSt33kH+WCrQVAlE4XzzBMOWReqNrbuhHaQmaAf0NnO24/NvClxeTJooHP3FF3p6/BR77WAdvndzrmGmuFitb18yuHnPmTqmDmaCD3tgu7xqrilizcAjdW7riOP86W7MdpJFYJjiYhkLcD6VGtI9P2aakDcYXWDaA/HYABOavABHZOzxaXF27BFg9s0OjD5x4QPmAtAyjkC8Ef9q7Wfe7hgPTQ/Zflp1ZiuK0PBcRSeVjg7Ae0+akDPxPXwK6bIb3EWg0a8Q4McuuLp4ePibcrUVAuNPbJjUmjezdRYhCS4ngCMOfW4hWQxpSfMl3eASj8zOQwE/Jeqfh2m7b1uegfpjHlAIL1PmJL5Wg5kYGs3thIrxRyhWnmXGzCoQCnrAg0lv66ZvRFtzwH/+7G7/4ql6sNf1/f/O3zRrOUc1bzln+U6pf4bQuCdglAd/QlfvWGcQJt/5bg2oukre4rt3NBkB5Xv1nRyHcv8N/ta4LNIe0JjCiNx3N08dYbcrLrDb8nuLbLOVq8x+8Jro81hzNP+luCjW/hj/Vrgu112BG8f+mcf+AI7n64crYu/JbgPR+zILBZTktg7Uau8jJyphd2uUSaP4D3S09MqW45QAZ2grwNWTQmmnwCh4VIrYyp/4/fDit6Nwmb9wD2GXeKMapEEdBwXKRFEj4cpYPi+J0ltFDCGPml2fW1xz3UTuL+KLpaz+egN/zW/VDpx9e+FIvAHAuVQoZfsMbvBaCATrew2C9+oAflo41QH9PPjYneghHohm6B00UmmRqFdFeq9pz7AxQCJjbakVu1PMsjZHivgDmQLcObvIiIF4mcTV5kcSM3aujrK7wnMErCX+ENQGQ5F9ffjFp0VpmJDoY28xN3607IwuUvAIMS87vUlWQKxy+3WhzoUa5+3L7tCwioi1oZ11ZcMXzpUTw2ZmWOZiEbrotY/zWtzPRx+bZ7GrvSsWQz+mw8xFagAFbdM7x45xmySLZzb4wb29kRfuqIP+F6Ci5cp7uRHeQlZ0BIojvg6cOAbemRS9fHANByNBthyZdhEyUrJEhe2wgrg3lMCy7tj25KQFq111TH6KFlKw3F16IXWyS21u2d5gbB9i7tCMxtnQ9fJLzEoRPFODoGY8kryKZLPNQS5GcpfqyRNRq+vHSJhypiV0y/AYhawCjBjlAvcO1WGzjUgs/FWBHVhOZLeJedmyJ2dd5952YhBm8AqswTs/Ru22bJD6BpyMjE6eLaKzRUUf6ilVdUrLuQI0RTpWV2g4ZaJK0j98xSxu6mXjdoqAexu4FbhL/1O0/1dgmHWvIxiQYaTpzNZ2QuwVA5KqsybqChFibRpZERYScNV2CohXy7ZH6AN2gX6l7iiIjSjefewBEpXP4we2r0SRlOrzBECsPWLPohWTMsp5sJvtUluzHBVxg4qDQj1eZwWzfTe4VlepPdHGwBtKWVKxzUEjxS3g0k1AIuFc27TIG7/t0rHNS1tj4l9hIH9cU4vMyTXYPk7Q3KuwEq9FB8Z4EOEvrimFyv/gpfIqGKuLOZeWaZoGRdqmsY1BIfwbuAW0ygAsKZdHKNpRzAjL4/6hIIVfTyc2fM7A0uw/tV10ioqwtyAwqVS3nIxdEbtwCsuYBCxYQN7jIWdxW5XUGhitj5gXdOmX4Z/EvaHdvCNdnAoYqebWGKNhW2Zn9TPsOhlgW2xR4Pdf2+lw6Tj3io/NLO9GNiiaH1STZ4qKvTvYHVyReVgCZcpOqU+wYO9RAlNnjNBq6gYXgzrbYS3xvTah8vzc2BtY+X9qX2+BEPdaUo7hzyUjedrvUlGupaK55JqUs01FctfFvV31DdRteXcyXY0yO93AEzXM/E1wTX+ZDST0zQ3xJcp2XLs0z4e4INS/5YvybYHOuewHzpeXZb3npDDWfr4G8JrstLNX0pSzU7SPevCa6/Ayx9lb1bEFyWl+qLu3lPMvx3+5pgI0p7ArOxxZcF6xtwpPvR45wWfhLkt9/gNg3I4WeYMccsxTueUfWLhxbZVRRiYrOjbQKqgJzU+jMsbFQv6cjWaaXj1/tlA93F3X0PhSSqCAZvVng30vTezsESYWE4Uh82VV1JdWZQHbr+is0TbEIuESdrLW6EXLXq05NmidGvZN7FXJX0OOBNVdF57q41mairJPAgwxy+OayWR184wbt+CJEBjqXItBLVOqlgC2odka6H6jzKCtQqc8hc00W2oDCoOkvpvfgx5YPYMPy+MfATw4t3vlS2SJk3kKiD51b+eDkQCSqdpn7gvTHkWeR49tEdty6uTfsYo7KqV15uATnOdSUfKJ2oVUl4a47b0cssHfxci8/H/HgjLGlM0Pj+DclSMsyGfRNbZaHxoB25Bd8yGzjazrTojJbXylp6dqZI8kXswvBNGnF13fZpxOOG1wy2ZWs+63mZRUS74Nqy6Gi6xByWlzgqz8FIop1uqU94xld2tyhQlSkgeb5pgPUdfJRMNhKMj97jT/fNC7/64FVBZWXL62JuYeg8aN8cwa6EQ/dbBZx+Es2fXF+MkjH16W3H+/L3yXnsTYIJ0rn5cRuMEj4ISyNHkBQl/+tmnMedn1RSvfi4Am786Ty9lh/AvsJgx97ye/yBTlPELbXu9cmBCqV/qXlQ4nUYApECMCaoAp/tePZB6hYNThdtgiMqlsmHLbZ2LN54XtIWOiC6NM86Vgs2BVz8WE2ZTYRuYg4UyD2vMQfwqYtCvUWsF7oiOVBiyAh5YxjioccrpRTDLeg+4AizEqZ6rINa/V65sgcEWr/zJetWmvgdLR9Ihl4FQkqBatAe6JomUJEg+JZ6zMVMf8aL9ThbEWaIr4mxHhbbReSXsQeBsS7smk1aHFq7HXunmFD2DQjXWbf6suD1i6zbcWueyHDWDb3OulV+EUhGJY7Rq7fgn7DHn4rbHfEW1gqtFiLLLSJtGu6I+Zjym1ttc7EdES0qRkGYai6RRTMFFuGAOvAAO69xwVnedojyXm9vggmzpsvPOO7AFxt4rAC0ZZ12WmServAXG+jioJPKu4/V+jUb/MUW/GzYDfzFxirZA388kHlyavMaflHUNB+JrXb+nLuRRAve+N6JJOZxS+Tb4ADa891FEpNcmBz2VIFu8rpoA78oh2Fa/XkDflFkTb4hiJG6hHElFlcIjJXMVo8UqeXWWgO1QWCE2Hq8NxAY1+88Vf4lAiPEjckkCWuoXt9fIjByWB6zYovAWEGCAcOB2cG6aO3bIDBWNtywiyMcToLheQO/KLly0CM34BdFliLbInTng5uNuYZfFC2bf8FRUVwSvY+1gV8UvQfo2XbciApdgZ/F1h2fLblGXxQ5zZVgSx3oax7P8BJ/USpjMbO7NVSHbhwKbgsb3fwxX+IvSitn2poGEV71h3wJwIgJ8Q2fW3/rIKNBNdPiZZXFNQDjQQusd6+MiRl+NwCMK35vYDCu33kzvhGxLEjXBy9gZRuGrzAYsbZWtd3AYGyM0uvu6GLRXWK43QAwNlZA6eOUKr9mLOKaq3qWiKuvDW3rWSJj18DPslnH8GUxiysHxvWYXSGMLXpfQS9y1/3CqS30IgZ64qNG/W83pbXBXUSr0UNT2GBWfKpvg7wocjejuEVexOCYtPQOeRFjExWuZBawvCBO3EVerMe24gEsPNkU74dswBfxQxYAEdsIQ+7P0dcOAkHPLg+7wV7kdHVhKmX0YTneQC/WucLg2EIvIr2FDr0kE/iyVO0u+iIWo7Mk6hg6nl/n31rwzsg+/9ZoTTwS/6P7jv1NAg6DI4UYQZfwMOwb9EWUqW873KIvtmPanNZ3fGe/dO0z+mJjT4EOFxjEJ4LgXejFls7Rm6cY71hlv4X+N6oQc+08kA36ougz3UETzMicF1v4PkMwQrtYwbf1P44et8w4P41czjx+hmCEkka99McTdMrwCoKxLea1txCMr0RPP/YagnHN4xkpXEIwNrJdsk+sq4wOznUDwQixzW7egGCE7B97ZyUGyWnBDQqjyFmRWfscoy5qUZ8hGEXpvKvtmAdXc9MSsLjNrE4fcVQMzCKovwRhhDzmztQyeyzdD7wEYXxNmpy5pA0I441Mi0/NuG76axDGQ62iOyVQGAJnsjc4jDh+JTTpQXlabgXiBoeRRMkC9WsrqQG4twD6WT0Khn746xKHUdaTfnAa3uTRLgaprqEYcQB9HXKLxYipD0FRLWDfrkfzGosR5xHkzz8xpk8LXgIx4jxafm8gMeLWgOIVdQy5DHddNliMkFNbCJX6nu8qvcRihNizvMViXL/zJfV6hcW4zRxssBiPDJy74ls8BKQpgPHWs0ekvsZhPGIY7m0CwSQZdjc4jLiAXutu84zEalF3pjayn4ts/BUOY8Px0c2NjAKE4t3ODRQjDqTNM96AYiSyxXbpj6a3usV5zJdojOhImhDpc/3ToODYvkRjbC84Ry/SvPWPiCqpv0n9RocguUFjxBSkcYRaLBl01+8SjXGV79ihOdywPV8TGOuWT3iUpyN91VjVyqlFfkuQfz7dmqA5cIOvCTYs9S8RHRYE1/1qC5a+Jihv2cYbx/o1wYYlLxpfE2yOdU9gpHU4HIvNG+YT4fmXz193e/b4bPG59fd7cps3via4/gg9nsvRfktw2ezJEX31gsVH+5pg89X2BO9y1JuDm69vpTV3SN0+3S4D1U4NXB5EZXex2xTEMrjOrN1h3xwAbWeNR2FsjrFEX7kg7sT+EBwtkDB783MiT7yYz5axsyPrqOAo3np2tr70ebY2mHFOvZhcXWfL3Dw6BthvYLjdlGb7YgnajdJsZ2q6HXC47Ck23G5Ks516Va/hyLy4eeyrwbqefzVY14FFfaZDvTjkwZLfPzsgnYMnFSAZaSAWAuBuuK1g07GmJsRnBvzJbVoM1m2zXuv3vVSEsmRPHhIBuZddfumx2DQThSxSXrNmCVIocpKGl938KItk867LiQ/axoiNBZ2uuEklROFLO0D7TdL2kKOggGDkw4O2/G5ytr38ZvS6H6vwFGZEOh2+zNl2cOYLn/zo8nP8Hjtgj52cpLFMckDEblH7jWQ+6oy0OP0bOdmgVd80UmJohevo8uKddiLashRAdtfzBkAsqTEwEKIPAA9iJ8Pbqub6nWdeIFEiHKWMAw7DyjDEQT9p9hTdGqVPuZtLhl3xwZgXt5Tb0CxFnvW5ivsI/vw+WnJuCmFYR+tBWw8FyB4vYJpd3p+WDewSMviyz+xF5n28uEXf5qJRU5EBIVXjVOBA2qkM1h5cQkzErcWszwGS7FxZxIseuZWJudEj1xnn4NEEMoNPbF71yF2bxEahGWRV5nCrVyr1nP06T3jbOI4Bp6tx5E4nnDthOo1youU5+DZEtAqTspIlXZoFBAyNFvrzI72uPz+1SvKxuGtVMjK/98GM05bPFOE/CPJPUX7ttLUfHPuPBAtFF0fvlT0R9MEsUOJ1n+Q86NutFLP02GS6obtyfWK1Dj2KfPPkDV9ddU9v8dY7i1IKF0RfdlGeWsyOnhKaR4wz0Xca7Qe/app2snnHQOsCF8a05ZSdOJh3GqbRG5UVfLhOriGNbelTlr0CtJ69Mi6Lot9PjePanRgxhUEDX24uS0tZkEGd9meTgDN4EtQaBktKGE5fNBbIMuNcFqobhuPs8+DvQrs2H7ub8X6VggU6zP0NscmhltsxhG+fB8pi/u3i4tGYk+nKCbEdPafGiStHX1UZgYUFOTiMl6gTYOkc7onFsIWWxQP0A1GDcttzfnpXn0fOyPF2JzxII+J4xhiPVSDRccyiTL034G28s6uovsn3ABmEFQKOXzr/ihw5ybVdHOD6vfOUsd8wS+lThnO0SlyZ3bqOPKRHAB9nb1hzXaH0qNRKR34HyeWdXdFmfRYpNjmBP3byZNdC2Opxt7res9vZwpHrpDPNqIvcj/UgeVDWsUpY7mSUZaUpECBgw6lCOxlcnH3gofySA6eDodgimbFmo8vZmhgFxyt7YvDIgXtzII9SfCmz6lMqOHVXNDuumVgFZH2M4qDMXLutuZcr4BQ7TL+5yv758dbk5J8vzT1/2cjO1o+AWU2sqTR+y0EtR75XIPMs5qQCgXyg5efpAB9E2fOxuKMR+dmTs6BOenzbwS6qOAL99KUcIxvJMUv/2yCWfC5SOCWT7TJcaGl9iz7EHQYrq+gvs8vH4YK7BZB57ms0tKOxkqYBVm7rYNIyJKcqWBrVrRR6vNRyk9en0luJInTODrTabTgFbmILsv3IswEhpeuZLArMgawWcf8V5Mfh9x/p7CZVXgov82UH7Q+/8QH8EBv75lFkdNfeDgeA2rTnuLNbOzMtZ1fUAedW9DaWlLXilGljU0anqd0iA4FCIkmX/16OriETyWRXqivJi629kKano9S3+V7/vEk4b55PJgNuOFqdHFj0nZRMshuO/0C4FD63PDBn4welO9pNXGKp8BF7GYcXEcyxRddcyjlvN1PKZQ1HUbvlY57WuiT6syQ95rGlcC5cEkWAg45M2tBNDAhuzMgkTYJcBLtp7nSf8svjl5/Zu1zXn825gN8+v7Eb++dNaceikexczGABY78m2PziaYE8vn1+YylPQIZfPb7hxp3nt89vjnP/vFn7Fy2Qyu57vewG+iUB2FcXRZ1YvhUhmoL+GsHmK0RXpP2aQI7B6wKlxSml797gPtzXBLtT2hMYWXKJnd0bmgUW+ppgH8H2Bx9cTuyoDhJjG74yrDn1HxLSdlffNn7tK59rH8B21gcyTtTDMXc+HM+fA1iWqSaFNgFYz1gdw58D2NjdXOOdCPZYnp0VJEw8LpPp2oSvrApnE3pMM2WLuXcZvrKX3AcK2/hVZLkpzG6K+ZJdEX0Zv4qydLzrzB5uG2lv4lcR29zAjfiV1fSRYjU7uGd0zF4FsKyJj2EAT9P6Ity+il7jdJtH9+FrnE7fbW6yJ7i2s7CVHMFlBHucwgGJoVDKrjO6jGA5e6b5uu4fKOsWIukyiIXY5ituRLFICZM1FMZC8n7tZRQr4sp4YphRas5epU0Uewi3u/r7rc+6TTXKydbNGMUHh5/DWK6vgm0Stc2BbV6GsagMGxTeiGPRUrUAOl7pJHSsXsaxaEZiBSmj0Z5V7JtBLArZxob7KBZ+9eNBfo4nvtGdKPb4KEDYsnht+ujmKow9JNDwuo1jdS+/coDjy2z3PYL+GIZgF8qKpE1gzmc/r+e9WLZTqG+NVH2xVfzrYLa7SdRb0WwHaPRYu1up/30dzYLVxKgGAydeNi+C2ebmB29Es97/2nw85xJ+TbB3CXcEbtF5+ypaSA7Y8XuCa9t2pFD+GsEuGxQtKuLXBHv7bI/1a4Kty7AjMKvJslM18XGJLX5Q6P6TTk7W58J9ZlLmGJvPfv8PKb0JmDrzON27s1QTYuqoDrsKtjyysWq4vxvVcSxVpNuwy7YVm6CnXS7IQYmstrW7MOsjhT7ZG9yY0AnGTmQw3OKR+hWxzXlXl7bL/cZyYJpRag6DVhJwcbz7vXjn2ekwpOIiTRsp+8W1Ih7UG/60X3rUCHY/WQ9n7EFbGJOrLImcI+Zq61003E7JifybEW1VoQO9gVMgd21R+AyTBeQSBcDVXOK7u11DBx71ntvFO0+rl1oCHiXop1QvvODvAUzTYz5Wt1jXIT/E6w/8kJXf7kaO2Sdyg+EDvmI2BmCqj3TpKBvges6RugdiSKCggu5NXBaHkwrRV7ZcF/p9LGw7ImW8dD0/tiLBZBSjgxLh6Coi0qkjK3BI9OP6uVG61iuj0vJKajMxhYgVR+d8KBdXaPKXrtQ9BBrDL/wxGuNC9twuXnj20wHgXxO1HzuFByA0HSxyOoDNdcos+YN9Xcq3ZjUfQLmsX8nZ9uKyBQVAtBR1/3/M/YveXSjt02cDbCZScUvZqoXsRvvfLcRqk+vWqLhVq2aCZGuEoMjsRhhMlrl7/Nl7TYfAk2nRRY7ZXwjqqwA/HGhf9jCKW1BTbiDrMJFJyMpWnGFBXFm3I3+ZFdFlDnsbjlanCY6B35cnyjT6sRshHfsa7PVdXIhyQ0c20BFZnxBndL72p3ee17dwmaIoLc7z8UtblxHqY1oYFbLy/mRvWMxZ0IwUMp+ZxPjyKSOAQzke+7WdaqQbWZ+FnRX+TmSQFulOr3YR1ImL/BawbpldvvAlZcn1oxPc7Y07fmYn3FfY79ym+WAkd5BhHHZRkT/WI9OxP1Z5SwVslTgsNC6JnQpYAU1E3V4vhCfLB2mpuh0LGbQ0sTgUtDd7pguXabzhy3y6WosLEi/el67u5EvuSvcfnA+G1f16a68Hbh3rJ91zukugesXGwGuzMrBUeae7VLL+NbLWJHprYwEg9ip8q5LdimOz9GHXnPNtY96CYBMAflvV/Lps6n/01wS7MHlPYLYVxscwZbvxNuSzONbxVYjJqumvClILgvEG6rDoVmJPWuuZfTrTDnSJOv25BnJsacw3bllmzod9vczVWOBzKhgKLvUPU26S7VHJj2iz0v0N12XdW5VlKwIeQ5rDQi/pD1QS1sfaT9shnJkiVSgM+FLOzbH6OcLM2QGZ3okwcyHECaCw9yNcaI7bzxGmiCtlvjH7SHb2DCFIlIVYKRunC9jYYTsdw/PG7lIGdID9adbPQxAGCInS/9l6vCwuxQVhj2Gz8Cw7/Z6rw27Ic2/gWbQqpS6bSfe08c9Z+9aAbWicUXTcgiQDgGV3OL9URFm4CLjUAedmjxZip9+3gc/6nacPfSAtRTq9FBnY7k+a9yPBSBtuLyW5Z8XAug2KjewYF0drW5bzHnqLfcbyOaNEDwgMwyyOJWgLkW46PzOEEHFuAxR2u+eRCDiC/yOeezR1KqTWlibKT+bh8prpdayoCgqqLLfYiEJQydCQPVg2WITJ1oBWkxWEq/AXjWAP9kb4iwqSpz/0nUezIJqX4e+h9qrcwwObz3Eqw1PoFA8uilqoWT2/3TSCXi9MxWZKlcbVO/ISCqEUnLAnwy8eZ/yF8gDVSus8HSNaCtKzLM6iVTk5TD6C9Wu0xFeiX9rhv05gXANnh48q2SvB4sgB8GJ//Ih2i7iu+c8cWC2r/fR0izaWk0i+ss+VsceC8lxnz7HTwH4J3510GaIl+zaQgmpNMWpCtpji73xuBXyRZlk8QCRL8txuIm0Rd1souhFpc9kjMMvkbXtz1ngXbGfEkJGsHEvOw23gW6cWTtXW7C28kctAI3YFo1lWvrqy6zJ5cmrhEALDEYs+IcJtQPeZe4/VLz7/lXnzrzuD7Xwgz5ONsItz+IWDAazZWXLvJxvA6AQGGZRZX6jgXL3vsAW5xmSwlKKjgSzcLv5KCLmw1Sf92JNXk5EVGo5EzdqH3Jj4qv/VdJNdXwNWw7Y0jRt+JMPu+pMTDFO71PrjO8+rRpVWhyihj4vQO7aG8RzFJgnQCv5stzPgKH/ZfXAT/LATQTflEsQ5+AastQp8CbuZZpeV7w4G81XfvoTd13H3DSXt1tM3E7SWt0zE4jiARTtauECctlqdhVNTNh8kiW7d1El1f/TGlhdX/ig0h9Ej0pmHdgUmGnzMcTx7TC++3QBHkvUkM7q1qrgZtYgdoo7pZ5TGsV0jpEwBxaqcS2fqGZp850x15CHT6h/9VN2lM9UBnxCTtDEsWGVFlQKZWZpbQd2831dujH61B31vusQyz3Z06ShGDPQj8772VNsDCHKG7Jl3NKxmfH+AFqV3qz3V5hNR+YZqXL7w9EIGkcqsCq3SgtVRKmDLs7kSIwCnxyKJCFalY9Vd3rRfLicykneR1c7+VOWxHWgdrPmtNhWgz8iWGKlzyqmGVVb16he0XAggHavTh39b0BxJnO6qzO1kH5FnNVU2mbCO6IT/fZHWrKBbd0+3PVlpjXg1gFC0oNDdgTmSEUmO33+I9SW/WOs0wV9eNCnPGhL4IUCNO25pOhiD41tMhDEUX2ueuU4Hnk/LrG9QHltmpet0ecCgIFpxzEqf/Vzo6t06mbSqUEaWFXXq+K3Srkmy0EYx2f7sMSdxdbYXTGRFDg0pobJo6UjcPJqnhkW3OF4Y8AWBWLG6gBr+0BWX4LKA06WEltw66OUVt/6dL/8I3id5gPis25zcgt3DeryRXU5osi+06BTYErNIYM0TqesUju0WM/5sSeCmhm7dZfKgqMoI0Ks7WomQfkcOpfRjPfcXxZS86Fa9UUw5+sMbIQURiU+7fiym5KOtooU/zbfJMdoSO00ZMy5+MLCfADIvnsIN9VWjHLaqPzrtgiP8FFaB5wMId6G8BqPWAK7b9k9EBKRR/cZWbSHlUHuG1elFwHh0zW4kxuO8HiuWFcn8z1GRtwllCk0EdAB+2/JbZrapgEqbMcLuQwz9LDmrVV5584q5Wcwt5GjroMlzUSiV0a3ZtqcgUZX2kh5HcSaPjqMqDSiXKEefT56K1pHG9FTarybEyvedcXfEdDb6lI4liBb49cjVH5t3W+/ZLxU8jAEQK4UNfd80hHF5fpOuH0fO+NgrYIGSrlP1EhL6vHSw3Zk8fiYFfgDHDsBs66hPh0/LJd0KAkuPwmGAo48J2bL2k+1p0+HacY/o84pEhXURdNPtrRAgsnjMaLtjZscJ7nZfjMjoNGqBxUZ238DR+iZRSWzrsGC6mMQkj2Li5ds5aALYjtPZQn7ixbyw6prs5h4TDLIJCLUi6viyvexFJ0jzMl/cogst8AA8GNRL84AErMyO7+kxDg/id4bP/+qTynslevrO4bLit2byTCvp3jGcgSsx3L2EmGGIQA3c+kuZDhE5TFLptWX/6xYdMjsvH7KJTEfG5XwxQiHy7A2InOkxEckZ6BoQV1GuN9ySXRtd/9DHsJay+L1Ipt68Mj8v64mWNMuLzCb2o+Q0F6EhATWl2f4cu3i5xbI6EihWlabibjFno2suh4etRdlboJdkxsv32KRM9hkQlzKpJjcf3/L5yyNJnX0orM3r2VkO/QFFmQld0gvI7VYf48wp/lD0MsZiwQ4jDBmnVv+7Dx+DuDt4Y58KFpSKVqIX08UgUdciy/Yibt4uy/1jDIht3j5TG9ifitmei3ip+2JJesMh/uzNAdM6O1BaPhOeWAGoqGiSzPa5E/EDmB2tMTYrldjGRDCuDxOjd+u76ysXSb3hfh4bhrjffmQ2PTqxiRxiSfnC6yEkomhtF88VkFbYuyPXdNim0YPQcPqspF1z6t53KtYy5AvEqh9isSSvg3y2IE6WNowyLXjrkQaz13jPJgtHpauxyF7pcA2kUabt58SxKHjClEuzX+lLKivLbhzzXi/JrJf4ftGJu+VW7kFmCaM+vj/VD698iYcmm9hlslc9koktJdR82iKD+pytO5ndZ07owg/skWs4fE4EiC0LJoulB65qI9eCWKnQf9B8Fa/iPineIJfvlLmb9rqx1RHtTADf5dvW16VvLwm/cjgKU1JtZZZMRgOnc4SVKiA0okugVtt/ukpGRF/pd6ZnZ0m+Jni3VSW6JrbrbquSvhwZQgCMg5DfEDsdQf0S3aK8LPr+JcGmr07//FUfnns+/4Dnrx8v57j3vb+fv+QnWSD7I1b/hmD3BidHXxPsPtqewIh2ty2muzeME5HvHsF8dNMicS3aNT6++s012eUaXxNsPoM4eqqxXxJcy3YNP5gQdwVjfslRGfb27ITbEeze4CTpa4KdJO0J3oW7tofhKL3tfnKfwa1pKT8I+B9Ckgp4P6CjpYfh2vfAPqyJBojYLABKpWLIzrFGHNpXbSOJTqhjJ1A0JQYR+2ao7X7S9qCmXydofq26ze7laNAbVAwDXqqd4K6VSU0yR7V6zNGrQq4ok3VCbhRyK536P4tJc3HrMy9rufVou5EH02tmMswFe1ejYXUxb3VjNExkifwrixhi9hmiYzosKvgW6+yItfm3eqx5UCCQFdP16nZa4VaM0Y/6dGnT8RxskSzus5sf3/mSoJvy4liU0YZ3TY/fDPSL4sbgGl9YGg82TJqSKivE2aE4HOWNvVSEOjs731hV984tgYjiSxYa64Qsq8hTnOQ9hrzlFVrq5+RxrSu0mf3x1iOM77o5dIc5bj9njyv+l1xkulSfCuBtjliyz9oDRY4uoK7N9ZXdKSOgzhSlT0la9kA0MmGAT4VBZ7+HHxFxOra71HpET76BOh77U/Xlpm1IPmid8Lr2zgW/y1fGF/kPR/9vHcVeNmgV5U+yFhYp6WMq6ZJfV/sw5iU/xrvPbmiWt3MGMgeZrHPwOjuxm6QoEJOo2J60QwUC2l8jjXLmF9Lz0SWTEoyWmk0h1Wfn5Gvc6MCVViq70LJADnjVId6YWmP5u61DVTq607EpWpFuWNrDq+5PbIzvwNl2f4qsss+Xpy2u/K7z89ogFirZsl5MjoPMZBeAesB+suRbE3OM9lWWtNTsst75mCHucit6HVYapE8G5R0Z+ewGpdHitN/xfWzH0IsbdSbn3A5NI+tb18u4avnMqjz1xTtqln9BvCZYnJ2MMjPWFtPhKF7FYwJolmci7fXgmAVMbIv3pWpQ2Bsrw1t1fajH5zJ6eO7XHUg4xqix58Z0QnOdQR9HZ07JrNQvBvP9L7Wat7aFWMhK9xr9BhGMna9C3zHNg3w0zdBjUYVev/PFOpdGv1IoDueD1tvewug0RSZv7sqqJ+COJ6FTqqTgx1gW9Aq9tSw+bcHqK0pasR8VXBYpO18tAPbNHOnUr86uEfNV4PNSgNcWZHdLzLVym+12kasnyD/AYGuCafGbv31+VwmDIgBCTtW1eSPPvFcC1FD/nJK/C/T+AOjyJ5oyX4n7mSRQSc7tsJd3ur0/en7v8pEgZr18yXIdrIpuj66rQTA7WKbjnCgw+RQddAr1xXh9CoBpFWTzgy8Si9LGhN13ZbuvnUzA23ZKdIAtAKbIYK+uL8LR0ioPUjEVmDPu19F8MMmqtxrdt8iMrAfmVWx/pSjdoET7gdi7/BadHSuHw+9Q1llU1Vg/LA2+GFeCuMkzoKWxuMbVyhwmq8zBHnHzStDa6su2TPz/x221BAYl2wHUXeVDWjsnap4El/mQxp6pQDMYe9O/yYewwDbHo3gUenCL9C7TIaL1BevtJmewDuSlSjUoHLGR+iYX0kg9AIKpWN9hQVzmQtoCveRGLqT9cSfjCLT4+WHGz4mQRtKBStdgINYX5j5nQVp2u2LuZEFaYjiJIWR6JhcycJUCaUeKY8rglnJEPH6s9XMKpL2UXb5IgXx8580USDt2EBYQtoprfblMgXDCv0iB8EnrAVVM36ofWbvMgiBJxGAKs2bLyV60yySIaO2I3Z0kCLdF0bQOgHrqN0kQUSo6Vfw7EiBwjtXLJEhrrlZ/JwmCDmM5I85dtUNruyRIOzYRiuWh/zVs7fMqBQLlL1Ig6xfeSYAclAR9VcH69PmaTQpkze8mBdJe9t8uaZbCfgCXy8x2B9t0lf7gluTBgFwNcS4y7NcZkJYdVsKdDEg7sOCo1isMd1PnVxmQBtrLJObjcibD7Cb9sTIrN9Iful/MiDHVNUq1p7vJf1wbwU3+oy0hCLb5D6w2e95YfJ2WBZdP+Q9UiYSh0B2fbHv8Zf7DlQK22Y+dm2WcsuzKwte5D109u2Nnl/tox3buKOdaVtNmdi/TH8e5KWSvZJxsY88m/cHXMlJ5J/3RWOSZDjzzGm1jzy73gUg3bG1m7N1jjlwmPlYG7o5BLnQiyTdrclEt5Mgm74HCkNcQpMeGBzjdJD4kOotlCHf8hwY2CJ2zC7jQz1kPRDVP1k7LQ38ZL72b9XgV9dtZjxv3w2x6DQ8XtlzFOT26ed9NnCMKZvYADSrRDbZfxTmdddnnMvev4hz9LmuR9nFOZ5NSGqCrxOAA7zZxjogjc7ss6ch29/Z1nDPd5sZbcc4xbBGZvuSAHbcXcQ6JCYkcJbPwbLC7Fec8ITu+i3OYhRzsHNe5uQByF+fI6z1Ak9gs4GoHl0HOYlvLnSBn+cK7EQ7jYWHITayt2FVk1xHOcCiNtxSqPmYlFwQgvAMLuAxvGAcEpXHU2BYLUC6Cm/mr8SCuCMtC61E+rwtmP4c3om0od1bzRLtHfRfeSJMsJm624Q2qS6GUnFOdVbLGdRPeiLgB81kqEZnP0lwFOND+IsD59Mo7Ic5B29jtSZtqdexuQhzIHcO7CGe4NXHbCIcsrD6FLqf+328qvFyTLH+YHHa0K8N38c3wyZI78Q3bXVhGQ8uTRQW8jm+YmWQldgrFLarZxjcLc3InvpkK4iSJkY+cbbiwiW+ujd8mvhFx/kV8g7VGEpjidB0Yl/ENukQ6L+HHs27lmwrvi8N0O8bZO1kmyhluHu06yuEFX0Y5IuldiiI0NJz93FdRDqfXJ5ummAoz9ngT5RzfzCjiG1GOyBJ72QDpKYslStdRDkCG9OUHOZJuj9IuyllYujtGGZSfCjTS7LEWx/B1mCO9UZJ+K96Sy+TtwpyxAFC+40PIa+FGjOgaxS6jnHEkNhiUZQhwYeWug5zFqNg+yNlfD3+fzAQADZ6f79OC4C16cM/PR2x/7fmvGfrLBOaM5tlkc+8NnuDyN6Nw8l97/muG/jKBCZbLibL0dDyv2rB7O6e17hF0J9rXEwD92xmDPs/lZb8k2FRa+zhBz35JcD0C0J8M331B+5aj+jCX53oCwD2/+/tOkL4m2H21PcG7bI+wAnJ7fd4ajYNCNqzKLADesPAhrlYrDXwW3XKcrLYwy59XK424KgXuvHFRtUqAIx9iuMzj1WqlwUAwoLNFv6dW6y5eRsojebSYG5HykAsqFwqU215tYfgyThZlP/ITiYLOKk6+2Kk0yqqZbbtTaQAhUMGyKgp25gKx8PNWJdF2CQHDsgRg7/zutiodxO/83tmqtH7nGUVeblUSMbPOlRVdySEeX61U4piss3MDI3YwnjtYs0WXgC+TXe5TErFcxUJFohz42Ibfq3VKiJJP9m3XKYlMX2wOslFzsaDocp2SiENjuWHsxfV0XSVRFxftThJ1sP/xT/FkVKsVLpOo0ie1tMpg0hgOAv0qiSrK6M91m0QdR8SmEIbSnNO2V9uUPmnqlxzqx31Kr3bhJYdqeH03PntbYmxPPGFNbtoeKKIiVP2fNUd3GlcblUQLFuwM/NMCD/LzOiVR2i3AdyCIRcaCGVYJvQB4veSBPq5TknRKNmUgewij+aTcJhO0uhM3MkHcwUorteSp2x01u0yQiAG9yUARtegZ/rxRSZQub3VjpdJgHhwI+lmmDV03G5VECiTIDHJRisOwvNqodFC6W7FduLB+4ekwfd6odPxK2ZwqJVWLzdVfbVTiWBdL4LeKke+YSU3KGnpovc8blQ7p0e0C+ShZNJYrEMCVq3QDBPDTHYkXb0xXF/Ml0XK1c2OhDG6d61L7nJ7S54VKn3Te6St9Xqn0qmFva/GtVjZafHwJm+AJgCq9LCaLhEHgGPvkVroLJEtcBt2ULQeXCBzjKDan2Wdiv40/QHKM7WihCtOVOMaiTzn8oAddfHCFjj2y66HSY+XvvNjRW6UTbf17zIdc9RQA2K0LXNVQMv7AlJNqVek5OfAimlu9Pxn6mdLsXX6m7yWpIJEqKknPLdovnFb21rDKolSfsYxJziuVuRkdo4vwaJv6Fxmb5hU/gjrmnCGiORpM5ROfW/1+eJ06uFxFOfOi5tnkllZy28Mv1hClQ1Ttvgz0LuQial/lWxYE12vARFA8wWXyf4KRq+ixzQPc2X3pBmoz2m/W4k8P8GEEJLpRW90QUPFonn7CV7+cXrBCOfwm+sWn/gPvqg+6AqT9A+GqUKNOG1lKSHpQIDJkbm0scajqAkSfzHuu/rLPc5HZeYX61sADKMfO0kZ7vm+Opo1I1yjTX764QtJpChhkU/tCOcniAhpIxdCaoulxysMbZuvH+06iQKejaMszi/ucdZEa+OALfmkpkCcnZetAquPRqBVZXJxm9XH7WLpPN/ileN1k7ZObQAVCXK+rgHbaLUV8lhJ6/gMPb5MMkTaI2tlGMbvD+x3T7XAA0ml76y2Sy3WC7/UtdwlMatlwtbREB2ZWo8Hc+nQH7pxMZpXqA2vWXiZd1TTluIBK50DACKJDwqlp2QVN48wfn996a4sAoAUWK+vqL9AL2bWcmUQLM68MPQD8jfVLeYVNP/Br2bSQreEcfo4j7upRCz9m8+1e+pJ+SxA3Kl4k8gV/0pZj0QuyOIX0pI1cMarfvu3u0+HnJ3Gw9+XG926y+vLdIns8FrJJ3wlLAFl042ST2auC7HW3P/EQa1JfClfaWGii5oPO7e0e1ZXbN9+vnCsP7hFU3zGwudztEaklh0hPhE1kfVBx5wEWAFIbA9TVZkSWivU8vtUqv/3H1icJFJX72Ytz8krqoGTF7M8mzBdOQSkMjTHX6V1iWV12qo1zbP+FU4fSEPYQ3JAFYCHEUoouusQs69uUwoJJ27goWqxVJTs7LOwy/jtDfJy64nYHLYsE2FT83INEQ6aQGE8dKPZFNCxXByjU1Eq3XjxjfqkWYt7kWhfx1Y5twHK7z96yF3Zti1R+xkuX7DYiWh1fDN078tgOjj2zALV7J6QenRTy8gimXX5s7cmeHGdfRXKqfsExbRegNkbrg1x6zoPdP51V2q04EJWDEjyAejgoK2mI1h0dHuLcKZFo6qqbgLw6WD9LsDiOinjHI2G6isSWEdWLxBXGilky45AXRNtIZ7C+KdmsVj1RIM9Y7B+2/vLrkfEh3pazvQgbFTDGJlEMKfnLjKDmIlFMntXP4P9oZp/X2rXkoHhGkKQl1o45Ofu8SBZlHjJz/qU58JJDzhSadZZdvjaxn7xWe6x3MgescQgUI0NP3ec4dNhNxiXKG7M6pz3GiAFXQspwkdLCQdEv6aMugjQ5DTa/fScjc+y1Z3NKlpvjy9aAcx1T8MXl48EmrvTWzuQ8jU/Zp9Mvcs3o7+mu1RV2jt/XObW/TvCe5pvx7Na89YaZTrS1XxJgqS+8pVkcGOG3BDuWimtR+ZZg4/EtfsPXBPFt0dONY/2aYMOSE42vCXbHuicw0upd9U1p8aCQI0yZZdgV3rumltlonJUR70wZf9PUMh1O5Y2elon2PLaEBWr8xkpc9bRMYOSrXHCy0gtz9rmjRZRuju5GR8uklJOk6eUNDzeoeNXRMueDahlp3ug6RHYdLXOeydEvOlpENkKZdcxJSc25NVcdLTEEZxkuu1hOgi96WE6im30r+klTohdbOdL7hsWrvhVRrsreOw7nPDY2VoIbFtfaq7TpXJkAuesHHaNLwSdErzpX5iK/eKNzRWRNf1ReV2NKxvC76VyZjKboYOUa9OCqNVetK4sbdad1RWS6SeRmB2BAC7Cnz80rk7i95qq7U6It2Fw2r4gy+6PdNq+gGBXFRXIModn0xFXzylof32ldedX9d4uee3th7Et7VGdUr+0LFMdI8NTNSO4Sf25c4aORgtCtYR+gv8EfG1fmYuXmjcYVJEy2o7GLtDlIqKvGlcnOzMnCQxAz0uLyXjaurG7EjcYVrqCuaKMN0Y1C7hpXMFCkRli1PoaVs6vGlTkew2Y8bzSuYNcmKwYni4v9tN5174qoU2I4GpSw596KO70rB6W7FtvelfUL7/SuHD9UARVrq6OFlbvsXZnPxYpf9VgcnzK10dn9vABX/Ny8ckiQYtjZ5UzEL5pXVl7RjeaVT/fkRvPK+nLebF5ZKIRbB7vUQHeaV9Za707ryquGva3Ft1r5XYsHi+0Hht7b1IU9CQbSWJnc9X2SLUsDedz03wfKvCk6VRP0Vds/VpKl3LLNWwKjKtNe2QPXh/EWgst5AGG6u71c8IAzK0mSYxus4anYfO5EJuVmvAXCxMmoM+us7QUW5bGraXQ+oPl46ZEts2WfpUssAgv0kiQmyxyni/f9yD0ASDkG6fgk1epAN3RUAdQyaYWXFN/PDXAZ9wO2eMMsKBSsqhKjcREqHOC7HUnAVzVRWHnQfyCXaADlGJ0cEKRxxRObL01asbidVUBG7nJfn974w618doltkIYnvPGbC/U9Ow0X+j05u1GIxrWQJ5fpvLE57OJwwPX4dm8uhpdtaJWY20KENobi/wSNDJFYWaBFpTKm2lPO08Y8DbGWFFCCYuWxDcvyo5hUaEs31kHpkUiUT8RjZwv0B+hKqoP1VbaJKsklxyQNNntbVA5R6hdmPSAVOba3DJy+rUbAPvREe4zzQ9eve6oDkgqVumqmz9+KbWPZTyci0XHYbHhwefv2hJT5zGxgETbDv7l0+gIMt4H0exiAh9guoLWiTk9xnxmc2Mgkc7Kc2oKhsQoLw7M3JO+GJ55wKjcNDxRl4twFjLC7vqw2Y9NYY5u0zQFEhbDS8nQVLj4b7W3tWIidzsXpPzkK12HE5d1dBpoMZpYX2kYZNoDg8oYGAm5LbjFaIlxs7CtNgLu4m1sRBrCVjHgtrkLca0VdPe5kJ5y2QHSrlz01TADugBUxJWfPpERLyjan1tx+5Z+I+e04d3aRkC0MHQdnar89n4/FJMxT9jEsp4BYiSYC7mzNjKQmPD/9tJx6K9P2jK5ed3pH7QB0pmWjWz6lNkrTx2BQxejAitM6aGDCHjhtbU/0ufnnis8g77kqYpEHbUerKtBx9EuBWQPMpfGKEBrFQrSV5TOlcToaEgs2fFLONQHjwiuq+3a99ZWIV+9LV9cwvfxMsEbZsZ2NnPprjz+zzU0u1Ux8+Yq0qgRGMS2jK+V2ekMN/zQzb2XvfXS4VHtlvVe+ZvzbNvHU9LbM0pXW7AD718/Xt6u2qGSCpuu68k6RkCeigOpYZ29Ul0LyCk5hZ/ukzSXhJQON0umisy3b0yHF1met6yJyBLK60rUfg+34waMHZoT0dHJJr4cipSZ1p3Cp1W9ij+myMndijyg1iu+q45ntiW5yJ/aI9HzKpy76LsnWfi6PNMZzp92pELaucQSeamK55K93qxCk/cj+yrEhb2pYjcfALn0btVh8ocpuYyla0M9yWpQropsI5OLsJGD9ztNxGQpyEtiZxTry/E6pJ2JmybL14ml0lpcv6aJbecWtRVVrcQ/gwsckUR0Au7ZYuji4dGGDP3suEz7FIMsFkyol7+Jd489u/PxxqL5x43U/ZC7B7G2y+tYnuHLj2VsbZIfBuKvRNU+1A02LBQpSyDYv5wCbiGy26eRHRHm3enTJ+DMlJxf7CCOaIwXoMNLE2UA1c0PMhGU1JhJhpbu2i1Opnp/f9aVtFDHwvVfwD9YwfP18NO0KDgCJeZemT8j6JLssqtEe2+iuIoVoYegejeZEKawyk181dsRqOSSwhFI1Z9dXEfAehY4UqjQHEZe8UWv/katEKlhiGWey3AbF5Oybp13IetRXl6edC8PuXx5apcIE1zvhWTk4+8v7Ux+TBXkKc+XllnUUrBgs5z5Y8OD2orktHeil7cYUNlM1zAhDY8Y8EUO0QmlY/5gcu1GmiS3VfebuQM/QwLo/cVSKHHYDj7dPYx+0f3rjGQcwCclSCXkoyXIrX0AuJEmm0a2Fkm2j6jRjUwBml7u4dDG2dLuN7TH5kkUaj132hlOMN7qyjFiq4bRJF5KvKbp/rTsErEsXxQvtHRelU04JVT89NDcbcemidErUBTQ0aq3Nc+rdsFMV+ETu1us7OjizAvyeWU3q1katvaIns0MXKLEejzEtw+zSuX0ya4sbxpNeYfR96dzvnzfTsSe89+kzXc+6iiIq7sx9xhDtyeEwUU0P8npeVxw9TaZEVUptyjWqwd32BkJDPTZFBZeiM9enPSsOl6Z9AIYRh7SYjU3JhJDnoeZRo61jsuOehvLBNKvVoeRupB3iMeJn21Jcx/kdBRrp4Dq6cJiqtf7S8n2nYyfDHuRPU3CrjtOMeeVeDhPux+Auz53Mt8ikkSZbk9q0TbVkewC6jVN3wOalIj2suuK0RVkIBpI9IGrLmWjP2agXTm3HBGK6Z9S/7iXZU2rMMcjztyYJJzvQ2F/zsGsGSBMofAlTAYzDx43BIemQl9g5oLjmaM0B5JRTnNhzFkqMI/vkONWHlYtEXZgFINZ6HqMTUZYKtOXpohDfQXVQbG9VJpvDfOZ0y2A+vvJ5sSgqAxgxWMfoTvfwsXrQz50eknV4DXoj7yOlExR0ylNSIGbBdPigtBuxk8Hi3a5V3RmPdsAjpVr6MSNiu8Dd4oS6H43YamOzHPDxDK1O/+eyzQeKIsUMuHZ0ZzEPoOZAe1ty2x11TjqpxjrabLcccO+7xLMxaDJNWNbs1P8dNUN9MlM86Qw5WY9Sag0FkwBUJrq22KoPimvy0LLfP3WRpW+uPe9Olh5sRPl8wLjiUHrV/SFN34GkpR1Xlyh2e6D8QslWr6E9kyinI+GCx/CTVbric0xwX2VnCmsYbQBEhimSkJUP5XmVwmPCirGZF9oX7f1npWHutt1t4fWMnyH2K2bXLzz1N8hukmSa0pw7Kd3SFXkSnTcXl7Mim7XR8lTZzOyO1t7atk/L6FMytc/SnzayL19vUvb9TzHwaDWWl79qD+iN/DMOvds65bYQH0n37fVq6VhIjezFlQ537zsDi171VTrQx82hdh2/NclPAaHHawI7cnSjGoLiUegeJ5tvUnJHS38Ie0OZvnTmZq3vXlL3CkwDbXnZ8vqiW1+Cy+sGn70+NnXWdB7IqfCvC62Q/Blrq04v7jp8RFxi7P1wzZMNtK7ae2LyMeGd/p78YDw3Az2R7ZK76+ae/KDtQPeY3NsiJvwYvUY6Kg2rdzLsRfqRHYDSOc0VLS4z7Ar68L6rAsY4LKtXrT2xumVFd3p7ou5RV0hc9RezHRe87OwRZQZstB1N/7bkdtXXA+UvGnvWL7zZ1hMZNkwzsIc32nrAZVMPJ/SLrh59D1nwHmqJdCwbA3nV1SPKNkTSGAplX7eNbDddPcjQL9p6RMbfDIRcrn/9sq1H4o6YF2KcY9ORCXQus5qLK3antYell1LT8dgt/k1NQJSKGirrtYLND1229UhtWazQO309IpMjM1h4WZLVBVdtPWvtfKet59UU3C8V7+2HMzgGf/mOwWFHgTx7rL01OLvOHrrF63PA3N3gi86e7Is5d1p78gN5V+iQkG5X5r/s7on52DVS2Ccdx/24YXUdbgQOXEGu35Gmr3nF66fYIYKj3QA8SaSnfJb/qstHSuPpRn3R5iOy0gjxFHMBB2CLpZedPpH8d4ws65F1sYbnqtMnLjLnN3p91i+80etz/Eyd+Z+JK+sxXvX6cK4+/XNDCgAal6IBISOsGlMug4dDimIYMZN2bU6RX7b8rHylGz0/64tyq+fn0/281fbjdcKtvp+lErrT97NUfbf6fl707DfafKecjTbvdkh+U+H1BLUYaEtHYObFvyeoP5HDJwMzgAjKiapaXNS4mOZinrX7RC2zjTPKrxwvVcdT7iMpWrzHYPcwitI24dSfjawXgsSSG3rMY/KVD52LtE0Kcrmq7RaKx0o7BV4RvIhvSnFxntgn3wQz9CeF1mh0dEiK18HMsZao6Fs0ciuuPZ3fSVJOJiZU63bTaGzF/mlsLloIg4xlDAwBd7eHkTBTMUlkQjvY4kcCUCGSJ+p52qTkpS5hYMUYwdr2ZuXozhtk4ks4x/Fewm99a/mpiq/taHs6wAcVrIxBndMfLGmrmCYZtPpsNckvxF6f7Jldv/L03jIBSa5TAVh1/MqaSEjAe7GALbL1R2he47nD+eVk7cBKCz7zvRAC5JH4mwaGd04PfyYB3N/1x+yEAmi1UsNslU42/j56WCrNJMzi247X4Jxuoq6tHphge9PfJdNhhYCoKwNWmHTu2ToXwGlOwATicJBm1yHXdDsw7oRc7OyK9DpMXYXgfbbLqAuYK7AKpX1DWTALaoLkpnvnfbhCGC06W+edDVoZLZDkCHpWj3FrygHdcxppa2sJBDHvuE/ZfTnLiYlWx6mFf23Rdw0aI/dC9Eu7+9cJnCtg7e54XJtdUZSRq+7/ZAPNovextQm0cshPIX858HDsTuzU133vYx7kbEgmtuZzHT8IIl+VL5CpTPIAKKuFevDVkpPXA/2MYOhEur4R1U2nc29FdVMeS8BHGHI4PaMfQzpwfFEpA/hLe9uWYeupxcIi2bW7bRjrY2F5p5hr+x6XsfmpcOUdyPvVfXo2Or0Fc7rDgz00tlgB5SKLeMM2LF74Esxl+gSnLEf1rCbUl2xyJ0vmoiO5/6Bw1sAos7dkVjkQb2yziPqSklF281bWrLuh1qq7OvI4Nik6V5H+1zQb4OwuOKqH4zaZdz1EyF6s6XNI9YazCFBAAcs9gTGy4nf92vOCVZxFwIeim2WroPv2TIH9j472ymBxxtuYjq3U5FKZ6ABWxvLcjpUWldSKnab/qPleKvtyF0AsrbnYiLk73OV3TbuyF1vl/K7Mmakxab3rqCvlL+M6Bm5NL3F4w7d3BPVsFbn3hna2jf+S4PCkLglC/2sEtb0BTCxOqdev3lC+ZSn95N1eWAoX0GSeYP8GI0tfE+w+3J7AiHc/+yzuvWHY7/A1ARFI+UyQwzmVc+sNOT7aVzfOE2y+g1iaf+n52n4Qzj+d0Xdy4b7a1wS7r7YneBeknE7Qp3sfQZfrK6W0IKhv/cWOoFiIj68Jdt85f6knPcGOJX+sXxNsjnVPYL50+9L85P747j6757tBNjfPj3MI5QOBm+qdICcpDBlhdDdsCHUJLFIaTwib5/gxkHVpDjn/cilt3kieUAmpzKx4wyJWidLXTsoWjUNOc6YBvuQxXI8J3iLh3TxmJN45BTInTPazRYBZnq7iS3AALDPTlvXZy/NE4ggOFFFqO26hOD698wxlugJZvO3myuD81CbvtNFMUXzmIAfFm3XG5rr5OVpf9Ns2zwJHxHjblAOanpfgzHHIBQ89DECJ7bA8qeB0nHpOiyEkqlL0EHMQzs0GYXkxG3e9UMDfup2q+fqa7gmMIrD3lG80Ll4wLPSFI3BfCID42OI4sKitMMXHsWz3yFO15HZ8AMEZS6AJoM/gkw26VI3EYUgO0WB68IX441ldypPkqMcUjgksJ/pSNb3k2EfNyZXnM+X7FplyoXsx2D4r5jHaBCYzS7SsSE0vUuEH2v2S4fU7b46Q8IPpeR/Ak9k8yf9X2pnuyq4k1/lp+m8h5+FxBFiDYcEttOT39/p4eherIrKYrH0lyJb6VG4mmZExx1pHR9Gkz5WLkt2GbQ59/lA2X+6XhGMs9K3/qKyXzSqGL7Ep1IS3ynYwga0rld4TAuMa7qRJFTCD0dGCHSMBZter7g0ut7di4zurt7tN29+/31YQNL8yw6U+NurAaX+YJZqM0YRFO/lZLupVkgaKR7WbnFtpMi9ltBml5Ft18n8Mk8Vw5OTo7rZaVeuzTQbUt/htbbGAs88wE5EB8vWuKNltsmlj2pHjgr6U1M3OjJRPtZSYim56b7bQr4UrFLFdjrB0cK6YjY7dccQSqlaaHivibTbapQchlCwMW/oe4VICQFStnSWSfK40erA2L/iLnS4e+FKYgzzqD86w/abg7j/bvXxPpL50mqEX3K+VBDjcu77PvR7H0ahXxH7a8tPDClMiK4EF2M5LQCPNDQBj9xolH6Qu1KVsI37xiIV1bNtTeN6E0yHPRR/NgCeFysqgpd7ZF75O10evg3775DarTw4tEBNVdrPdz/bON9D2T1KQSOWWSieulQIy8wyuzSyBHq6TpvSDyK3R/rOYcKBcnivFZlspOBY6S7gFH2azM/0B/Rx2jgrbD6eldFc6ZypebleRD93kJ3YL6nyMG0YdWpb+XQiBG0iPPxih1xprRoZi2x/GG+sWLef1X7QsI+mQV9BebkFIdr6rVHyze976rt70bHzX723VfoGxhsUyYnLTL/KP5aVR78OChTmsNHZkyT9Yiq7nnj+AhwposK3rFOY+4EshtnOATAOBZBSj5GZr/mUxLdH387mFeb9IsxhpCrtVsGtngTMrWYYlRCoAgRI6fuT5mi/NFDLbQd8hFOMGaq1r0+tv2cFPewVqFBAVqTvbSQEmhWyEdEt1BFaslOxHRk2j5aQ8TBNDbHTIWwSelX/R931K6weeVhsQi6kYvJ/8RedWE1iqrQFu5PtpsiKNmuWYZ4f72R6+9zFuBYCGe7iNUpuMs7pgoEGyAMNebKNZIQCrAvyVzNiZn7sAsQ3K9w6rzkKpOMCo6qEDzIX0N/g6M/b9ld8v2CmVjQ+Pi71ZsPKxc4FEgIHo4nzsXVCMbFBMm3IDhgXLIiiWswMLs+yad6/c3H/cj0UUHMwJxEkOBb/Ep4QULow6YBOg89riycrcgZ4RYNKwpGiUEtrBG1bq0wd/dbI8ImW64WVVRjXA+RjNbTYcANbyoaLtp+VN55PPwjst/ejPiYQSxbGQsNhcgbkvxqNdorQqnR8xWI/wIOtm9j9P162HHDBDnNmOxbInFi+TMb6mYNvvNCxi9712kfsEJFY6WxFedqpPQmUzRDv4jWapTMPmAcKv22gEYAcyyOgEtvoW5ek7yraX/n3NfsHu0u8XmMnycCZ3bnlD9QU98sMCN9iZMNLQuocwnEW9ittrlkLJtDXWGN0E6iZor4su8htBu5ZxRQeTsWEOB8p0GbdXphnhggTbzFL/XsXtWriYu9zG7foGYFwBv9gSZA0Lu/opdGctLRsK+PvojiTjMnjXWu8FbGP3T0+8E72zVlq80m4Ebd7CE7wM4PWBXaf+jQD+OJc6gRRDGbihjasQHmGA3j3Rd2WVy1UEX5/kKN9E8DxO//WDCbwKCS6DeL6QImownQLQPZYQ8zKOP47W68PtZSsP/uLAAHeXddjE8SyGKCi1XIptsr0M5LXSZ7S3cTzPg38CjGDwZZ23cRXKc2MSw5uYk28ieSTQxAZ3IvlDhhDLGpMjo7kM41G6uvY9kJSv1inaxPDS9c3udhvDeyO0ieG/t1r7BcYuRle5vnbo9eLp+vcLs1gjNFjhKDk4bXgVwWutlGjB/QJF313UzxE8xtjrwW0Er2WyhR2Ax5Z8TftjAF8PXqgRGQ6PySrBi+gdKfSZhm30rmXSqfWJJOGU4FUAj8cAxFIhCqrF43NcxfArd+NGDP/xmXfCeN4W7g8Go2KxYnAVxnMuHmJpG8cjBmGCPBGhHHFb/RzEoxgShA1yVoA/W2CfXMbx3K9kNryN4xe3+DqO//7a7xfsFMvGpfcO9zaO545HSSnwTt3WSHZBPBcvMPqK32i5+S6D+OPuOUu1DeK1rMgS4aRKFS6yDpsgHksHx3ejMp5cmHAZxrPWSNWdMP5YJm2HG9XtpOllHM/LQmsoj1J3uqwaZy5DedSFVYs3YnmOZiieUZSFr3r6dnfCeSSiEQ9JTQU7Ln8ZzqNl7KXdh/OIr5xYOfrt4EL3JEEfA3q0jLTkgGGvLDIPnwN6rpnb6SaeX1z+63j++8u/X2DUS7VuyMYxqm4W+dsFm5bbUx/efcJw6ErfLti5j+MsPf9ywabp9jCFXz3Bntu3v98f2+b373LEoX71gJYdfcS3CzZ3oRVbJft+QXmDslpsyfbofr3g+tiwDV8NDiwWXG+JoLn+xQUbnTRtD/3WITkmBU8j/a7Pj2aygsMCTkV0DgmiCH1aPEDqfFkN9AnZpypjbHT6qxDnpVAulPoNyTdXJZ6j+x+cTPc95BaRRAHIozmEATrCUuskcYaD+5YzJOc6xxFydXkEuS4KFmlyHQfESHXfw1JnmKNbfY90dr7cu3ZuwcbpvvEBv15gjmicXSY/n+Lizw87kSEJvQzlG62kxLCZaqwfsdRZgzyL022c1wZwYA0VHN1mM27khfLBGwcIsT3M4QkN449t/uxcNcXcvUOiKgFxscEFC4YWFugB+cfcrJN9yY0AlrLZ6Q1yhKZoAk9u5OxBTK/m2Vs9+NQq7ffdwoVcwogxfL1ga9lFxQ2AQ4Uw8jqHZ2sBJmGSouQn9qNKtYBdoYhAkmO2Co4YuKZjoPwsxGZ52Dhg7EdA1897yY1UshCzxmwxs453rDBqNd881x4K+zsc6TlZtCS+6WJYdQtcemCTQm1H2tRDrQK3qAAJostYkwsKD+lJpNVaaMnGLJekCIsOyhtILFwP2ucmUfWC3vYzEksDA7dWIFrHU5bfYCUjpKcpBzujKhWwaEvdYu6irWR8JkB71Y4mcJaZ/ybzWEwSB82YUi+0JKZu8039QcFXRquT1PPWZ3gklrHP6K2fedrKHrnk+rjVXS5WRik6dPJwDEOEDfq3kJrkvVlNsNysS5Maw1FP+7pcsxTzBpL2yORcfAFkxFjYn+TGSjgnDQO3otnhLEd4kO7QhcRXcBJuVFzYl+64TzwNnuGQ3HU8+Adqg9EB9N7VdaTu1Bi0CMGTPV1gdXvc4zvoDA168iP7KatamtvtJ3SGaysXHwe7WqUiKpfU5ii12BU/4j6pikkGglnyTUnGmY/JkDqT6slOuKM6Jr4iKZhutBzeXpYZz6CX2fT6q0f0FINr4d74UMbjqq7g0n+8gE9Olw2x7YKFZghA+RbphekYKWm6hcc7gTc1F99N2nhm3/4o9Z+KLE7ljK3C7Y9h21NuwIZrGTb18Oijs7pL9Kpzo5I3sM3Rb942XMCFNzcReMfq0p9EQZu2UgehdwkXjoJoB33P8MV5kkb14H6XKzfdThfoG3nrH4JfKN3d4NSo/qNKOYKUSALc3hq6fgBUhruieLugby6xAOx0OFe2ulkoI6Zrs7C7C4bpM55i9nQgrnIpvZ4UL79dcB1y9XI2Zv1ywSbT0fMJUfnLBbst+c/69YLNZ90vMCc9XZ4wPi5TBx3nTRcNlNDqSJj1fFpr6JZwufHOKHNNwPnB22mMBQjDCWAdXZhsbqhWmgtKoLildgB+pY44K6ht3da3CeGkK0KXyZuWIbSD2K+ASt5EtGHRZayphS6C28eanWmJCdHE6NX2UF3GmlpZAxiBuT+hnl82Cl683Di8BvtNm+tLJnzf+WH9gNlRVDP0F3w/0hGttgMjKbRhqsUdUtc0s064+27XeCD9KTAA0dp+1ers3uFh7je7eOBLmUzWhPwGwurSfiwGz42h1+D4bCchTNaJ4HD63Vp+F5KcuzqkTkTSlume0jn7mSI6EYlAmCJ3QgD4D3RYCvMW05/9QASdugx2q80Hxwv2oMVWISKh8Xn4IbghkVREEGEOSG6nPRHAj1l9G/EAwx/uYTkji53aJI5+v52q7QzdQQJcGLz30VsKAwxA0pb2/HWTwfEFmLK7qiNAgLpyvSki6d4TR3+4zW5nrNFzEToiCZ3M/4KMZlaaQmEHd9yGQPgevGYwHHiXYlBun5CUOOKc4ZGmbnS6HMtaKLXnl5Dutc1lHEScSJ3b6oTBIClUi7bB6yCHaGAhyAz07qJ4Fvv+obxzgdfPfPHWxqhDjnp1CpbinuI0Uqt12Gp5IyADuDLQOrLarCM+e04FXW5WNovhdfRiXeSeyCuUjBSM4BopESMG4AaFfEe+cQXT3bsfr7oB061l8mdLDBmSDasOrmC6Ox1NU1o4R47HbRV+d9rMiIXcVl3D589o0KXiOtDakNkY/Q1j9kpaverTjmb3yoRqlW5qUlIW35E2KZnu0mHdcJqrm1AXF/+6tH/Y2b8Znz1cUq5hP0poDW6QJAPiE2tMrNIpV59R58u7xQqfxDhQsN27kYqTRIZencPTHtm+3Y0coJYxp1MKPcgOabEe1DIEVy1asHStfHpmzo2kOb5lUq4HE6U3IZ5vdu/ygJEqT6FXbJ7nmx1yABqo/CUtvEjazcA2DRba+DIJ3Lt3Ie5Q48qC9kC6Uh81WZ18SY07YFZLB32yF4BLatxFpvION64cGviywjxgrp20Qo17cF/SCGb9HQjYwa+mw6zY7wpHtNwLqHVyMFWL/lJsPqW1br8rWCCKa1C6FsH0IFKiTtBfnOxzo5JGaRMpv+DGMcD80q2CMixY2HBWegqzPfk4qD/QDKRjPN1pgINLU+Zs+kBiIh1oRkCDvAaAHHQCdD+cAEzPZdc9ZZfRb9NRUL5jpKzfze/w9OYh7tE9pc+uuwQwi/ORxma0w9c5UW0V6PJkO1VZuajJ3RCZzuyAXEdFIDapqjg5E5I0YG+tggP1W95fAmQ8+0InAQJjs/JVvHRb32jf/N6fYxIf8x6Ld5NAy91kCqGORXE0NuB+FQSAO+AiKy3Hu6VWw8XwyXho5eTe6KCsCp8rGO3rJtx9jsPkRMYCRbVdm179QAcN71YJyXcMLis9r95axd8NhwflgyL8pq5vLafEBvELGsm573jVsrNZIJm96hoGwOEwBhbFTAsjuAyKmsNJkfjSiTm0huGNJ7Hdq7tm3fbpWz+W/lrVbefiOwQbKfMOFFuUKLoLTx4dbkLaG4r11mCBJtM0wF0a3m9vjs6LWth+s/IaYy6j0DnjNjvlPoYB+XTyAXyjf4gMfHYI+JAHRAAtpNniItZsvuoTHtvwbfnIU5vqjAt3uFRn1K5ieNI4iSEwKelm1VNz0cXZSXMdwmd6JsJY5ZvKkBpVICSTtgou+oFYqMDD19KqZCM0wmlL20JA4wtp2yzeUUc7ZgckWH44a/G8UwdESpNyMEMqTgccbzllvIbUyI+z9eJ/OQKz+JOZvo4x5dIMAoLcfYGSyS2pZkmco72lzwM+Bojio28B6w2rB7dCs17tOBFCX+betk4N4GZM6PZyUpO/du8Fvl0rjtvz0OTMnuji9cV4dUORZclHKh7kfJUW2XZk37AdXy94t07jhfXkDEEuagIjfok3s1gw3uD2/AkN8v5pwkUS06KfMJL41+erORplMhL9JaFDBupGcujcHkWOs4yKpVQZ6RF9Hmg7ljhovwKtHfIbB9x0xfY8yKZ3mKvlsljTd+QKOzhJ+Qm09rJTh4fV9h0EgxE7EnqBEMGHR/qY5F4j6PJuNFWLR5X7xMgFzas+RqoQrE+GMKP/sk7wn31pF/vNpB8qbW3FMwBVyjttEHj0H2Dx52Zh3eyElvCbLxqQ5NeTWJI7ae7o8BM/dyL6wRCLXBWyS15cC/0+k9Rvf1LnvGy1yuclBT+Dg4JZQgmcW7VjtPte4O+qf98VF7WhPt2CSzeXt58UTch2Lo54ZnmqigmyG0XXynJ4aoWpMJ+0kYADj0uXgQdSYLGf9g93TrmQQZ50BPlYOM5EUwudKx79E8mCWVxee04WX7X+Kbop2IRiNbvdOgqt/hOBXF8foMklWW1F+FXlccOFCfKgy/hyZbUT3jSPRUadcgoTczE879552Z84/y+Vip33iHJKsKiRZ3NzmIOh+oMkhdZit1XcjkrTpOcmGwpMDnSFA2TT+eUjrcpVW3ZwdosSaTVLP/ngTP94cLvlbD2I41TKD1Gd1aIKeKL0KIC4rdkPi/S9b5WK4+6+b2Nxd4lz+WqBPr8j5AhvSmXx9XJDunTWweGJb4h5sbeKBuG87GFBVJyZqoDHNczm2LVxDn4B6iBvBOjARNuqm448kHQbSKw1DluOwI9JFIylw32708FxplcctfXXtEZ+LrZx2LHk+sSds7U7QOf/fb1gZ0b2C4xLWh7FLNiRPbNEwUzMXY6YwyUl4c6MN2kgBmqtbiaRzXRqA8SqL4Bj+K5S7BWXzBxSXVEX7TUIv8lkz7UhmwDG48CTOP7NKhCSvBHDGIN3w65KAFpph2XulABGh460QJAk9RxcXv2qCKC15G5Atm3RGT06wXFs5ughWW03/E19MvlcbHYc4TsVhzRtZEdxNXaEYMrFtTeVjJvcbeqczXaeHjXkUogpZISsIzZ8Zn3ccMeXDzyVisyZXNReYCv2EqsHjEneB1JBowWZmtJZISbDq0B9IWOfaZe+8WHpS9Uxw528mMCf8n5LKfX51V9kYKLMM5ksO8FMajaR5YQRqyQXM4/+cM3daZ+P1LInkGi09WPUG5B1+kTD0SoMSnoSoX7w9vrZ+6tWrcUFu9GqNfCqJ+wJ+IeLnrKPrVpaWWTrChAmMVshuBoLGtWBZdwZC5KehFG6BUYiLL0Gfd2USIuM+rTe+lI7n0ZbXn4BqTs9W86eO30xBS/9RNe1oBv2wxiceoZ9dw1OhX8DHnBw4L51YioTkXlCNz8W3AULBsPz5Jr3AreoX+PoPRvSNDIoFq92zdF4XoikILxRWXEq/GLMYXUZbow5cP+IzQeEMoss4qcxh0GPc0b4sl4zu21mOilKToBkOxWzQMwYN8xiBz1ojmN4wt2FrAMO6fBEraVR+IR5xw6tSSifxz/dVhd34cZOF887XSPtXi5a0Se3urAffCIjl1m694lmB1RFQXi1E3KLT0qEu98n9Szq8Lk46DSGCmAQoE24RZ+falBTxoNotwzvwl01Ka0coxtNSuubcadJaX0bX6r4H8m/F9f/DunkWt/El6OMsc5AUOV2utByp1fUcFJz5a96E+MyaXvFvdfDRnHPE1jwViwyw1nc+OWCDTzIfEZPd5+Qz8bpXy7YRGxs6asQzy/YwIPM4GBdNkGkO7ivF+yizv2Cd1maDvAumQY595Fsx4ldYO+hlkg/4c31Tn7CZo6AFFNoIhcLv/79KmptpSbVKmNJxZX1waVLjdQSTVfvl3EmD+WWtxXdCaN8D/JfyOtbrZEfzHAXMNwYV7MKedKRojfK+UAxdZsllRKgj7CKY8Zzkie//Hy32XhsFjLtmp4ZyHjxvPQU3QGgaWTmwe+TyIRGrNgt1JYWNptFfiaWLzbKVZmDWb2UHEcdpzgDpQm4ENxOqWmQBWWmxUkAUFFklxNN29NtNlkJSD4t6261pS/dSriWMFRQ53xByj7lW7aCxF9srpOfc2iF3SsidKgoxEGzKAQds9sePK10VDZpT2gniQn8sdGYEbL+BgnwRoW4w7DnZDtRWS9VbqqjNdRKZgoZq83dykz07YJpX1/Sstb7gZ8G07Xfqn/gyzUEzax2+rs8JjKvOSMDMnB3u826zvi0H7mc0OrGOSIg167FRkIaoyLSxvCJ1RlHnxdc3Sk0x8dN1pgh5jzBenAKzjqce+ne6nvD4Gdt4tFL9Nk+lPPG/fP3fZMYLw+IxotcqqA7blIBdPBCvAidfO1GNWRKZYoYQMY86a5eWnGzYvJADtqxQdq5Etr3diEFrN1n27uRRzpNY2BIBoI4Y8UoI48w5avPUoq55TQq6l7Fgptq653JzcH1J27T551GkFNgyTqgFvu06cv1I9PPYt0Z7VTuPVCLwVbp6eIFzaXLWCu+tJYsONwN+lV2Ow6Knf7wqxXIFo0KpbGnzTKA5mg2ssRVbSToCOXnYbrNhjt4SlEBsZx9WwsLrr7Uq682+O1+emZ8/pFIbksxZg52bh3iVBjBqM5ZEJYO9D9TRvDOlmk3a0O2Lhu/s70yThm4X+5XtkG7/kCcPVfm63Nyn3bKYCtGYhpRjoI1vl2KsQBRWhjuKlYUosVi7Gk/bRix58BmzgP4OlgQlk4mNMwBWkKw7mKkBA7E6EHImr3sUtPq+rR6r2Hzg4u7FveQytxtOvgK5XoLbLJ+3lN9yWepnatG5dN9WmJl9EYZNp3tgeX7PuWKNygtWQBpOzCV7V7lhUWZwwx6vG0uKQ/JxzH+SOuCMf6dhgYJEX250SIYFNdgJBF3sACGuPLM1j+X1MvWqSwfK3Kb5LK7hqRjiB2QXIYCbdOgTiExmgrxgktL6M0aSPoFNKBa7SkE49X0G54wqKhBjmzWwTNM6TRHBkev4S+UHo2vACy7NqLXTKNZglIOUO8624HO54Tbqrn8w5V+tVfKvzVLeXZH+bF+3PMidgUmPZDTCnZ4jpH/OvXvUCraOQj5ila2875eJ6OViVjoHO4mK6Xjl0ZlBHU6KCTip1qoRIPAYtVbeeA/MNeep9+n5b3EcOxOf/281zZtnW5vzHA71abgpzIkxS2zOwWyhnFPdLltpYkn9/lpkV0H5kIPM2wj36la4B2aXnupsxxlxWz3OSfqOdCdQp+1cb7xBiQWTN/2M0t8qmC/1b0GbnXo3JnkHMke/vJxz+vEK6Ibsoz5cBt9jhXV4e6+xd2hgXhn26SlQgX3Ubdb5mlOv1k9K0AONZ6g3aeioivyT+NSs8l+Wq2PYj9AQc05ZdnVk4wbv1bCG8/fUJtZ+F5M2BUshwUs/fr3+ZE+//wlZ/y7nz9Hxz7EOfZtv/399dvuf29ywo/wHncdHWKf/777/WY/w6b9vv59fqtgL9L1D/LpQ3Fw6A5j4PA06QBRoGwH4edDcTOVePCjLG0tLieQBYnRQVtony5br59vwRCYl8lSOY0O5uQ3SuAl4zymQ1diWo9GgsPDdb7GlW8awyNYhXPDOY2k3SqM87VGm0K5dE4jUQOgR0wnLPz+WBLDrADDWHMT3XAZh7D7qlomUyP/FETDbBUj3GNlHt+8TePBRfBVFd8UpodtXZlbz2kFxSfFWcbomlgIqLZflSyv/ubx6aqpLRLAMbMnn7I6+iCtJAZtUHmcZvVnq8SMU/8yT4DRc6PTHn/9YYC53Ojicae3IZcYwAYoypPbKCnlAh/0tNA9YHocoUspodpkH9/U2vC+H2TWskIozXRKt1NfOBz0NcamQN52BUXykjKmklOd//AOB3OSOdGkD+qAu1cWl5Cx6O2HBcw6NbKhDOmY3U5cpxklGq26CDVQlc/SRSCp2UDqKhXkp1LvpIKYZAZUo2Q4ihycwWUmCEU3uZS1NktLw2Cu3n9C8FBtvvdE9Dp3uu2z0TH1QVMUm7XdgUycBzhNs8L+aCvLD/r0UA40MtpbRaurIlcy3rGahMp4dLvTH9Toj9Xac8nvDO1f/r01/E9YjDMMuW7iefQDiDRN+m+t/cLJ6yOWyGVxH3okGdqWsAzBFMaJQUqhxteIGaxI2LnVOzGIBGmSruhs1VlaohBo4ztNis7SUrknAxRTsw08lyHI9Jp2H4LoVoNS3EBTyJb76TIEicB75p+Zhe4mQQ/VV1rQgSk0MOKLkbYOzNiPdGChYxrkBEOzmEN/0DZI5PRgseciPECYkmMGzWqERiZMmo/2oFMNv9iFaNOB9UYqe/nI09Yy0NnAXAFBbLrt0lTSpMSAkPSWgTkBRcwE49myDvBtvW+wxfTiPOlCDXJXMVZO4WY6+Qv9JfMJMP0iDPqHAesQAxFmtwl3rWag9GJ398uZsbR3D6lZKKJsDJo/J2JffK7F8573KwPcxoh2LyufiwJ5o3XWco7OR/Cfdd/iLI+LrkJdESTXiQGMozPRjZuNd7jWdi8ZHnlAco4VWbi2Iwc4ZFTr2jpstPG79o7p0d6j7HPOcWkeWPD+hBHfZn8XIkn5MknJgCJWzBUaZIfAWAZexzZCxaMePKQpujwEn8vRYhL0dLJTbzUXKDsS6OFBJtxmM2ByDVjfyJi2vT/rR6bn4lxyZriuJZvN401RzjgtIxa32eI3u/cD89GbKcVMN2FyW00A2wHBEV2aLD+O8XbIAosNBQdKTwZ4ymOJTpHmU2R+thr2jBGRWwaMEiUAOyvCsArXmUL0dC4rNaYuoy5hJiRwUiCVd4BeyTuXAVzs1yIbjbBnVGQZ0BogA0fbEwtEC4TSUgo0sLj9SrV2iYgMmcWaw+HNQAlFOKe736rNk8nPvbzx8WQce+rNq8RIzBaAe7fAQfD2d7Dqxbej6JIGAKL6CN7Ah6bADm7YYQdtIuS4QXY8UoYtZ4by1cmjlyVgOW04XXwFDViW3UkXLmbKA/0uO++yonomkwkjSVNbdoBIZUgvyeBLc4dN7wGUxFNyeWK5vezXhf9Acl6ft4OB3p1fs12C+wM3NgGh3R14DYqOJsUKW4QcB/OSTky3N2Z7uSnGAQCWB1NiTg8lKmM10aNkU1LFZc/GDUQnZPOIGSewKF5l6j9r8IvKW/YOne4nfdD6AdbKbJbZjwD+fujJOnPZ0qyMO6XopY6Ozz9Ai580+2Bc3W200CZ9QOJa5X4UzYHSqMmROkTPl3v8fr/TIH9M0dBLfvRlp4sHniYeog/ZmpYtuAuvCMBUlgRY4ppXx+XcqGOw9M7Lxtsx7lF3uu/67tAi0f/igutEfnzexd8vuKxE6J3HX/r5Zjv+k369YKO/9gveT/moFn91aNX2gn+/4PqlU7HI+t8vuDy2lM469y9/v9mQ/6hfL9h81P0Cc87NciDvntBPEIjfLuiPi2iKDNNXD8jhbPr47YLNMUzrT377+/yDz/rpE6Wv/r4/tK8XbA5tv8D0pMK7+LZgk1P1C3anFu3w/vcLdvXOTOPtCHkorCqKaYMtI1yUPLVWjwSyLVGF+Nu713tV8szJBbp3ap4Zb0fBaCogbia30881T60cdLjRvj+6bVu4qnlm7wvdqXlqWW2ZckeZIxpf6LohTzcnKDCcQGnZwOeq5JnLKV9flDwzNiMzLDlDcrnNq5KnVupkFduE2KJF1b8seWqlBVC6U/LM9aEvQ0kgQFhgtnpV8mRlJ56kH9ZS+F2UPFlnT/9GyXP9uDslzwwARSbLzkCqb7D6XPLkm9rU9o2Sp5Y1BdMNEMhiAVYuS54ITmqpAIQ47MjAZb0TSbVJzRv1Tt0MwJ0guJvFQjdf1ju1snTFwEhOdi0PV/XOnH3B4EbBE33D0DPAv15Sr8qdh46DZazXkF1z5UW9E51q79SNgidKvNSBLooxngQEt2qe+Zg3oQcfjBZfnP1c85SpssB026Ln65pfWty/vsA5AbZDalf4PJbAghBA65y+9faq9sknQDIC+MN2ZO6y9nkYa/fBt8VPpKpRZNGdKs7kXhU/M55DZUIBohOz06vaZ85e5+6Ln1xxSizgVk7XDHFV/NTKHsKg31Vf3d64q8onptq6MTcqn6g/uKoCtNslTzuodVX81Np/zkuO6ajxNsVP1npbdsNALJ54r/Z5vKlM2QEvMqPf8FXtk6/rnYRt7ZPjjOUgx9FRW4m9KnwiQtChHf/kbO9V4TMvOnFvVD65IgwTATLcLIzBZeVTK2vQf44vWaLVA1eVT/SA/6rb3B6aPoC+DZpX6F5mr6qfH1XenQLoq4q9XQG9oZeNIq+rmmm6VOQsYUqlUWDzF4NREIb/Rg72WjDcFeX/teHq65JBcCE7wF9OzJqbn0j7yasMI1JjGEnv5P17cETk+R1Yn2abYG7TCAdCm0UhuQ6a+plt/CZoAiBLsaTchQY0qwtGL+MmuEvkyYCJ4hDC9Z5EqjKbufRg9eJ0tDd9N5SSaWkDOBbWh7jYagZuIB79NPHki35udkLk3jMQL9N5eQUeZ+n/Km1k+RO10gZ59YYMLJ93ehxYxQN62E23kjemHU57yd3HI5U5bVn/2lw4Oh1eCg7HfqPgyPSgbVa7z/FQlFIh8MnNBnjzUOy6hzlHi8p2cFzUH4ZA+0GHnxWdeyDzDM5cg0gFcTQbRTj4r56Iq5ycYvFkLgmprSa8jEUWt+pOLNKPySOu1XiOSN2LRQ4irBLBbjhjw3Or9UBMZfDU4vpoZbIfdeyh7lCMIfdAr1R0tpv52xzBkRrV5SKWyviUU726LuGfWVmz1brssElmq8a+7M2FsS/NDbJs7QtLpLAIoJKzt/AvhKMvvsQXV+/l5GhD129ydLH5yr88D+7Z2PSNS6svHEvt3LLmrsPShz6NTPmTIyQ8/6ZHcnUdbsQJA5cUIxIZ7nU7vYgTBs3hLUXY3F26k3fU/0tyJlv4T63sPtjdUkhi0WY7enCYDzNbhQdcITn6sFg0hwyQQKR3AgKPRZRwCAdD1c7pnquJwi0EzPqBpy/E0CtzHABWua+Kp5PBNnQjmuA4wFwDzrwF1smejxFHdptE4hTlDEkfppNQ8SU8IIHEUL1tQzsEJ5B4kq9uCeCOOVYIbCLevB3TWwjqjbnX9c2IVw9MV7fxVmJ2cf3zngFwrW5eQoNE5we4oNke/1LJvcQF8DtUOqzc9W9+nHCvt/dq2MwTBlvY3kzMpUfd1PIc9AiBXpI3UCHg8g66bDNgHjDwGt1ZdJQzQnfbw3B9xYm2Gf4VLH4jklppFdITp+rzMRcyJYpHZ40wgrmdliJHoYF67/Yp76IxFRwcdR6gAbJDUFDT/2n2WVz7Zr8B2lPIO8i9ysQKC4gBiJljk6Ka1o/QynTmX/Pp15+3p03F7Bkyy1TcbpO9PeXt9D/tdv3Ml1gSzBBZnxKL36/iTGnyqVP2jcWQYtHA2pqVgLLqhN8a+uNAMk1FIzgHrT5yhSxKytyheEgGIPnUe+odrZmvj39CUUu0UrJzw4id3+pW0/NE3RqorfRUKwT1YNKeQ4LXLSA130byI4UlP6HWVZ4NniIupcQruQ/rhKDtGcO1LAMmDGeng+AkQit9AtcCyInbbYEpllEDSaUX2U4fr/6/PKpzolhsuyX7vmrAMgCp4V2LxcYUQ2qJDFqEJiC53SYSCpSw8iItDH4GVMcOlhzJ89HPlkDgEB5IW3P2FPdHDHO4wR26DSexAKLKOJFy9/N8CqVbJaVQoku1lrQK1Zr9rMZ2OFuzmeb+1jZtf29sXzyZ084bni4e8IKc8GHBwvi1QbYW1OFqgxytjpOQnaKfCU4xm0HRdWRS14HB1D+Wscpc5e6QCEo+59tOjZJu2D8C5QYR6LRKulLtkrrIcCraKwrWCGRUsBi8IDa+bJfpcf27tI7lcEIOrbFesA0tNlvkyWY4c3zYf9AuwOxWsnSyTU+xVrqzkb0o1d5SUptBWpMJBssNWRYgD2Xf2bF+4GmwRycFnSsxvN8qB80lPLiH/RhQPSgnZbFleBaSkHwUsW3KRYBwvjMAznSo+y0nsBRBBKg2AyTJ7fQGAPvsVCCTJ6QM4SbIaaFXsv28bx17K7Xir/Flk9/3136/YKtYxk8/+0everNg5VXLRYEuKp0gqC+ZxAx6cgZZzN/VXqscGTqiPG4MXcqETpBreNn3Gc8tL2o5JFT+P0zf9GD5tKdsLMikvdrG+UKaeaKQynAkrrR/yPsD+i3H2txmbes0hn+Xn2UZiSdgWw82Oj/XkUC0xiPtFpiWxcCTyeQqpC3TxXv07DLAgyZ4VudeQharBts++8mh1Kbbf4xr+TnjJuegMvbRFrulJyj8YTWyW4U2rKeGlXFdQ9gJj3RTbmxVGqpkRl9G6D4OYIYDoOFeZrKdAYdSYVQLvphhJaHBJU8F7kAad0oweSeweZbA7a1/X3NjwebW7xcYvTJch+V4S14svnkHfenIDodoeV4PXvvK58ywxZgP3uGDzwAh6ciseMwH7RIJl2DaORCttMxnB3DnTjzI6nSg0BR3OFcJZnOwGmsG1dFsVfdEGyVOzKtOrc8lh9LOdMYXJQctAyUslANq9pv2p1IfGMUMdW5yWTZ9JRIFEHfOblMF1TEL6vdbRmItUyQPAaQEwEWJ1CwKbn4lZ+y2Sl9EwOvorqls0Kon1aJQZmb7VasPZbqb8FvsdPG8U+9mEJOL3JInKMLrTg8YWgWr1WF9tgdMneQW4ulknzt1wIlt34NR4C4Af7wCdeiVboaquOKe5+x8z4MwAdKMCCj1MvjOFeaHkmmE8jt2ZqLu2yALBZ1aG8g/bnbtyDY03R6iQcsoUWCUYIhMliC4SUWJM8CO+l8sqaDuiC871W0I0uSvMpks9TIWeK+gyGGZ+0lfcyoBEOP/ydBrhaBC1jgAMn4hZjp36gAe6h5n7lBzFVzkduJ4v2yVrpYaSRfZUr5WDkrfHRADpwToraX1hYpCsh91+PJFcW2Fbqes6rTOganl+4pl50ON8h+81WUlvUYyu76xlDq+1Bgdkj7/Nnz+rbz1Gn7eqnvgudXPEKNaSV5lQmTw/G6vaU15dR1+hOT82u7RSPK+sVzLegpynuTMpLpskVD4KHOGP+g+bH8Q/sBKGpw3c1Vs0cIFIOq22FLQagUQZTLY1rheFVu4VzlGiUZ8weE6txoVnhJqlGpltflE4TPUv7atE3vERIartTB2oH/sR7LBeiy0QEmPpaj/adZjYdI9B0CA5Q3ZFET1PRLFS4Bx36obg/ppQPzkjKEUIoidctgXaXudQMpyY7KtzWEzUlIkJMVQXXcZfjzdDwVH3psLS3lxQBDvzQXRfwUmbgG+1zrl1UR6wGrhejg/ECfXOKzCkB9OFwsJMUc9jr3wNZu9f4N4AuUNae7z2p9bDUCn0L37hHN9EewOw3Nm9tqJy1X7F56qlewb7V/laCfKmEp9V7vVq94vDAYNygotg7dteslKzjnD6OhTKp7usieXUlnoYdST/FA8az80hetTaP9KxTpjQ5GjTDggFiAjBPtlD7KZyXh59trtSTr2utktX1YBCHPm3sGnc8A1kvdAK9PsL1Ml525p98ySnxLb8CE7JUgYMHCbbDW5jNWYT9uKrJbJEyUOngujQaKjQNzrgwdauYIMuSzKWDSZyrjJwVNIUh0++KIJrHgmOqPghhu3a28e3PrV/A5PH74fOgWPaCE2M5AUDAAse5qJ0uQSNCQnW+U9Vl3qd2QGipag3baz/HHGcLqiNFPpPvVo248K0z8ScC19yWedUZyuDM1LneZBs9m5mrfZFU6GZc52lZPF28mpI1zSLp2/P6E/AMmTdmerwUnHBbpma/HBibbP1AaQ6tGyFr2mJ14Owl4H9267nIZPgqT3BfV9+nihd+l5L01b7guATgXyCjcU4ZxUEK9emuImMtbdUYrIvwEkXGoh+vRj8xeu3ciV6oJhHyaerIspZOoanFlS9NEl3duhkylPM7PipZJMR5FikBeYFxGQG55pb1R0n101BmSokzrgW5nXXKSOioJ6i1yPqzbpEW3HIJDbKgxVtIUFN1vHSj8GGLbFcvwS6MukQKIbWOuPA7w3VAzBwqPRTRkKOlqAHtIndQGuR0skRZ/O/NbH078/9+vIClf7XT71zNzoBuptqEB3Gwpdhuy63/oUDL1Kh/n9Nh9fjBt5cxgr5YfRoT7dlK1utGx9ONBD+yK+AEVJAShZYbfZIUejkNirllUGB85+2hssOERQAK0dyF+ucLh84KkOpNDzSEd6x2NIKryOnZnY6cqG3fUjjRvJECLMIT3Q8BiLjzBlF+DTSCSU3FYH3M9doXRzLpiER5FrCkf8ap1bGy70Wx4NDHcNAMhSFmNUkJyT8hh4PD5w16pG101e6YJ5FEZlyqbtO11lQ/Z5/a39+Pb37/aphpMA++nBXrUt1HAONv92Qf0BA14vSKfO/O2CzZayQ9P6esF1M8hiS18vaG9JvRuf9esFmy150fh6wVY0dguMtJbHKF89oT7aX/v9RvR+CgW//v1mP+NLRozFgs2huR19+/uN2Lkv+u3vN/vxIvH1gs0n3S8wUjofT/fy1MHpdYE1SSyJtB3TC+4SGFfTi1pJh2KU0wqWres7vppgbAsGiRsjjJC6zxTTzLPGr2YY4ZMH86HWg+7IbPUqidWiryfeSGI16KrgqYKdPQWHvHyVxtLaCkCunMHo67RXI4xaaeFNtyOMjT5oMDSzTtrhLl/PL2qtvL+k4CXQn292ejW/yMoFicRWApYPfAmlPg0wtnzE8rPTiBXCqjv28wxjW3SH7WcYG81hipMKlUTv6n+cYdQhDkKkEEP35FpXM4wt+a67GzOMDdJXKXBa7mYYPoi6mmPU/RiMdGXqzq6ofNVUsLpZN5oK2sFvXKec9uhGQ696CrRQEUlEg4BV5Xb6eYyxziWP6C7uR0MGRReK16CXcxLweYxxrZVfGrk/jjG+moDb4zA37Ma7odGn/HJKHo2vCA1gz1gXF/dqipGDUxCmSDSX6qqrF1OMWugamm5MMSJhia4EHUx2iMVXU4wSae0x6yXrosPmaopxdRn2U4xa1YE5K+AKSxgWke/nQUau/c+oXh0+lfx5kLEl34p8Y5BRy8gtgmiWmCZ23bJXs4xajPqRL1F1I+yVuJplZOUC8GRXt14/8PSMPs8yHu8ZsJcA+FgpuBpmXH3YG8OMOBuzHzn4E/PuzjDjIT9ML+BVLfBDPtfXV/J6o76+viB36uvrS/lSfvo4zLjSAjeGGdda5zz/9HGYca3rzvP/PMz4oldvK++9Lja6uzy+ikLaS+/Xbxdc4p62fjZA3HvA+DLcXyy4DtVadwbx6wXXyKeNHoevnuCO7dvfb77R9vdGjLrlhmrzB+zh0ycybbxugbuCnRo5PllKw8KVaPWQ7soJvq2f1OPzCuo8FF4x7hafw5LPKwjPumxFRFlaZbHoWQj7OkRrsgdSTExDVgefCHV57mSoa7EsylrZGj2ZLaTo5gzg3iAqwcRZggittGYtvsG8rncK6JC2IW8+hmfGNl49Lz1XQt6mEAosEPdJ+c8Zhp3FclNroRuIuPNNdUV07INRgdntTjlDeXzygltxAXRlMBPgzQP/632ryM2Ut0iRb/iZsFYdO5iR05UOrj+zkvdluzIr3yTZADlGO5LY6ARnmpPpChtyaSnRz+DjeEJMXlBeW1MMDMe6rVy16mcSww9L5rXcpMrMAbJjfQzZoE7NsKezDeZFwnUrhqKqfLaUvQhOojVQpjsH2xyplT8Fm5etbnudGkMZjQkJ+Is969XykS/XkXanxHZHdlktXhS6h8a4cHbC0x7dBorhhlfU4PaW4ypHPVkwCo6T41YwGKsl4mYltaIY4Is33xYZIqxnUCBY5dHd6OMNMd/r/HcjER713bKP+UZK79D6rRX99vczvemVBTkFeMwBwYiNERiLZXn8AVpCAsRNFsFO7nLGnsBCb1GwtJIUyqQDonrSD4fKq99vp8Ejdw7S92NkfrjB5QladqLVQdrsiXL4s1u6+gYYamACPF/0Z7sRIiXa4ZgHt4KcXE+qfh92IVMCI3bMgYEIMzs1MeWJNxI39Nu4jjh9v1QraTEarI0sTyo2DL4FJmjTsNu17XBj7kdjFeAxwMpwF2TP73sd80B44FXKM9d8bnVwzCF3hjstUQ18j/R91gMy3e7UNmHx881GFRfVwdw+s/SWg2zS2KlvXmQrbHmbeeME9CoES6m7rCeLAwCZDXBWiwH0qP6jFpv1tDzt7d3R3lxg9/tDRK5+X9r17/234zYPkO17s4knVteaSaYy4Oe+XswvqXEnkDIuuQIG1LMVSI9dq99vMYkeksJQpHWY2J5eNykE1i2nzwpwa5N7IvUv51N6QMrA9spze+OoctBGp5hjhdJ6BDPu2y7gz0nk9gtT4CbBPal/NMJxNNDwV30A9krKznHjTeADpCLkvbRiqX58hhu9u/uyjEs/OdktRuc8EIrlLQTg2O1GUwGGUu83/iRY3F6l8PWW+gN0CdnN2h6hme9oUSZeMjA4DCGYzUqewXuV5Zfujna3useAVcg1TnanAGCALQP7Vu5GArKrx83iRxHtXTTVydl+lNuHuxviN79PhhvE7Gj14QJTj2DNOy9qgnMzmENsUV6/8fqAicW7yooXrDutDyfHtUWdhz6r48h6dGsos+9T9XYdaWOK70h2+Zsu3Qt0b6VVajgORKDL5EkrhGvdgqVNBp2xFeAtPxX+uV1bHZj5TYGuiLKck3V9bs7p+/b3G5ux/73phLXpqJnf8GIWfVoPZmcYr00v2Jw/Z6Mjl76jCwtIINv79sifMa5Q4OQnJ43fzYqSJ8OYYa8twCvJFWrKhqv4vld8i1hQJLVXoyzqA6ClAt55tJGD1tFMBrV2r7Ya1hxy9HgyF13EOEQxNQ+mpLuPd9dP/Im6pBEp3hZGKSyO4eFutViS9Hu2OZLur2fYk0COB1SndUqhF5cj0R+g/RWPKY9urfA40hIhMM2mOMEpk/iH4U4uF8NI6X23w2X/79iLT488NV/IkOHI4S7Rar6hw5x4jxKI5nZbYNqQ5dMl0MlNu1s7MDPrnr2DIcIC+rBMarFtpfoDdJM0+nllx9LfjBg0YBrop8iOR33S3cP0EkQDDpOjP7INv9q+X7MDdp5yGYRRFpIPrVYlzknvkR0lBm3hTDZz94ZlJ5+M8Cd4kXJzBB7+eh0/36oBMCjYUAveGVs+76kHIhnyLtdR8Vd2g0iTroqjDE0R2+b2ikPfnG3bGSElWRkUqpCN2GypZKAAYcYEcvJwC0vVfMornnHJco70z3buwmV2jSFYdcFubYe1NbNc/95/C/z9Pqm/zWR1zaXXQqZSShNbfyZdX+8uVJkQccJz8P4tqoM6nzdGuStTpaOQVYS3yJ3boIxQAV932I8UXOVDpQBRkEudtAczTTkHOMFtp/XiQrT9JAOQLuDLAOtRqmfX+PDM5/WdRNWBjBwxoN0w70pSk0adZBvuu5vvufNxu2Q3F3jRi7Sjd18VvaXRegfb3Oy261wk8FG2EKApJwhAdQIHI61pp8L6yTj6cil2od/6gWc8JVFW7DZDCc/0+7nXcgDlkUqOwypGXFsIymkpTBZScfFd443EtS7YRAmXqQ17Yy4RgHBWKj43285xUO5GmIrjHF4K5ErIEQ9cvzYsCuhCbINPsPortron8fKB6ep2vqQrcFoyjSvRdQ15dRD3089r/XO6yUVGpUDkDjSaVeMrrXcG1bpcpYxA7ceNjLkM2h01vlPL72rcMXHu8tDhL/x6pjea7wVPcfxLv9/tJp1Yz79csAnw/Bt8+/v8uMgJ2s/51Y+vd+Lk4Nvfbz7l/veGgrqd/b2ndr/oAojdJViL6YJ3uQlwX4t0JiluO/A7aVv4U5AADcU46JFArQ7mRFugkdQqoQoA9KyJHmyXhXylaj4N/XYWVN+kH0NaMnAuiz8JO4fsn8xfqI5vHHqKEiMQU9PZoisnPfoi6h0vXcu0Fdp6R3nO2N/y0iMkm7HFI09viS0OFx2iekVHdGqbvZZV8LPdKrRbncrR6IN5TS8JRaF66hGgedsIqdW9E8nrOjZLUIebTiPgkIsFCL/ZbnYwQ9NjWy62u3jg6ZHIJGrLoQbZE/tpM6gR/QCrrrOFRczeZJNhPpSlszXq6PGI75TKIpRnqeXB5MzRzm+2fFmZ0OoSgTLlqiWfvNFpyblqUH8lt10bsOn3291i6iegK3JAc3HCoD+Bt5ygXXVZ6YikAGkbBuMZ09bUL5NNi4t2J9t03GzKHQeixTe5pggCENQOWp9sUIV6lkeDCyaXxgpud/vcMsSiMaV7oCMOfVixDYBoktiRm9VsQyR6OvQ+5CZ6nz/QAgLOh9TatN4eK70j3ewVM5akOasf3+Y11pp5QLBSAY6xAh4fB0BZBOw8FNuszzHQHs/wUbCkY6TgwP5oBTCXZG9kc1g+FN+2Mi5bE2SYwPHsizphlIogJ1WCDb8i8/0pUCTKbgqGQ1TohksOrIo7i3pWUb4IE7hT+mstMrPhjPSHR573MdIOPhkXtu3JxAm6whUc9BlsK620h4UA4yy2JrrA7SB/XyFzaTY5FcHIDApKFPh5OSgPrnGdlEIsnRuRJrDhEFzQPuc2ayEAV5HCYrOLJ74kZHTlxmTMpDpNB4nyH+jqWMvCkvD5yjEoU0N0tZliKd1IG9xQzRF/Ksn8ZUt4isOVZWWkPFr0YlBSgyAUbGD7ZS8zMgit2emNjMxxTQAtpDONRKPVCJcZmfgnv8tkF8znZrsQho2Q9Hd1Ta3J8+Cls26L8SgvoI6ywtfQ7FbBldc+W6C3ytaADlUpZVBrC03bcq035eA3gOgktidf8st27QyfcfLX2nkXGJhI4gXM71aoQufUV7GNX7Dp7Ui2kf3r32/CynmWV3674HpH/qN+vWAXe+8XvJ/zayfXP7c0f1rR1l/VLdidc3J03N8u0FfKb7LqKvsQ69Z5zIVEl8kNYLyQiFL0NC3ICw1Ac3Zw1aWvfUyK9xsZUgWlbxpFlxw/EtXGbWPMwY9UcOqag73FVc5/2nzasC08R8zVpZQrAG1uo5/d5FR+VZTVMpwsUBZztcOUl24yKbUGgwWth2nhJtM/S61uWCxhKtbNbXU7pkx6E8/kD4WlhxFFCvAVg4Jg2cFktlsftO0yoTqnbdi7zo2m6vVx/IG0vNgv1uxZROiOfoo2AiL2Cfl3cs1cCtBLhh6Cs/HjykS0x0xBymEMa/GO1WbL+Qee5XLL64eeXSmDLih5lCE5VP/jhaNc5JFqsEQsskYMPE0S8alV239WF57Pdrc6UvA85QDWNzbpF9+HQfmMLR6WL0Sr6WSHYlbykHyqigCSGjTAnt1OiVA09R6Qi6AW1200EMTlkiVL9H0YI8CIQKSK0fgUWlp1p2aMjSFm71NcZasoY9oPfCNbhToqijxpdZluu1fZKjTgDxxccNW+/ggg24DD5iuTyQMDkMTbXreDzU3HCaag1WScjT4bCKaBNKDbbATmSze1MtNnESMn0KkgjVOUtsk1utqsdmg/ReNP3trrol8a5b++wPkJ1ijTafi6wH3y9DiRT2Oelgnw8EDrAPsBUnd7AfUNKNUH8FOpzdkLKAMTElTwkTKQ++o2o3kjVEK0mLivg34Hq48p6VIhDMxh2ZiZZseItIY5HPjWdbDE5fNp7W20pGVFF10haD7A4tzXvYyW6MuAoKXlruBlVb32lfpTt7mE5o3yNWYdOFtyJM/u45fq9aIX4VTFsgxJcTzZHB8yR/lQmdGj2i3ZQ3qe+puh2yq25RNfyteFJD0tSGlkt9l0jLmFHLvEYTFWIZkm50VPVvb7ddoi7FkJOE3Q9MooIde+TBbTMw4dhpwpa5jhjcySFahunWEOh5OnD1En3Gtedn0qbe9WklGX0WiyvdnSeH144nnRKhjdiR5WiyHJe8oQRTk8epviZiuy7269YePAfs0MST0P+8VHk+MbMxTt8Yn499zqJ/33UsYureJ06hGWHOhV4b6UOawLsQ2drJY2ar1ZdDfswFXTdXNd3eMN4XTxCWmTQ1XF3LrrPgRyOkRY4mZ7foP0XIlUHr1eNIs4ywvErfTfTNRfplVU3U0HsmCrWOlAASNcnuN0TX3rJ577rZ0BL5CwLdcPS4kemlyQGqK9+f3R/Gb3HmPXzacdBMByUEitFRiPSvangWE5bT1Wq3UBFRLrnSzI/ISSDNh6HMrhJhe6g4/VAiedi+3O3hJhQEQ5Op+cntFIP1st/urDTAG0Ze5g+Jvt6kP0Iv9tMBQRrdM4fG9f39MNssyPcb04uLQY6mkyQMEaLfCYW2WqakyXPdWNoGNWeo4RXXvzh0MRxvffuIxPSPG7WZZuk1e7BeO8Tk/d0i97F2k9lm8n0x5r8ZlyGIClNsFBydafAv2+tSLfhijYfD5cP3D8EwgZbjRxPOxR159JtcujhvUM/A158gvJLIxPDWKdnGyqXIsJe5k3nw7WhxetIM+CjxZsS7eWuopJdrg+5iTmY/Rvji6HR/tOOIYzC/2tZr38gJ1JAsgSQ/Z02hMkXSypVP1IttOCzx+Yqa4oeg+YPkGu7+3AmnPwWwiL1/O7ohPCSdTH+BaGyZ34fOhR0iZyq6qcK6vrwXePUw4y7d2eq3UC7sXr0FqJ9+X27JpZ9nX2pcI+9zshcc1ZAXefLiEH/nA70DDKWQf6qUiE4PT7j1r62d7Pby53B39KoBDqyHHOR7wYd8UfuZIVcgXqie9E7wOufXOmvXnzM30SwKnIna/z7hzl+Ejf3bNk4/avF2wH1DORe2XAKw3AnC1G9PWAemaoHK9bkgmumyuUXQ6p53QamfxcsJ1Sz4xfd0CNDv4432p9OaWu1Qd2WQVOyXn8l1PqWjqtLbjRe5MVIgaG+eZYjB9czqhn3O2B+NPX6sOTixn17KOTO0PqGeBK4AYqSUo/3/V5SD3nA721ZBqF7Pjy5ZB6zo9W3Fa3U+oglX1qXb4eU6fuUeTXyRstI345pl5+/NJv5tTLmTi4d5Pdgt2kuh8d2Y6q6zNIg+s0RwrVmqvrUXWGVCGZpMyVbRh1PaqeH93H+NtZ9UxcVygHVIduej2ojnRlXa5KOnZB/3s9q54X+eEbw+rcvol/RkYRxejV6sW8Otd+wD2fyQLb/V7Nq2fPAXxnYF3L9OpwrcjgP8X73OvHgXVUYo3S//pBdPOnl9PqKOJfjB+y1c6MYI71uZ1b4+rHmXQgsw7QKbPX63l1Cgxmr/uB9eI6EjYT6y9PubcgPQtZy00tbWcHQjAAM1FtCHo5/oW1ZkbuD0qljUoup9azZ3q+M7auZZmgrHMu1shfjqxnZoIodMqmWkf6cmD91YM6d7qZWF+4XZtzc57g1wt29mO/wDin9QSPuPeEl07ZXy6Y9c0fcQt8e8u3C3ZbGt/ix7gFuy3Nkz7xtwvmG9TtYkvVhSFfLtgInxONrxfsRWO3wEjrfMzxzRNKOPvQf7lAB3cFaFmSzWTvnpAfrf21BZtzKM48fPv7+JM6/PSNxjd/35/a1wt2grRfYAaoy+M7Oapfoof4BTs56t+KxTiN6y8X7OSin4xev12wkaR6Iqrde4I9t29/v/tG298bOZqWdGi3Ib+g/mBNLRfUYKmZvl/w9Zb+8gL9L//1L//zH3/+j3/73//5n//9P//4+//519d//7e//+Nf//0ff/9///d/Pf+j//6Pf/mvf9X/9f8B);strokeColor=none;spacingTop=-3;spacingBottom=-3;spacingLeft=1;spacingRight=-3;points=[];labelBackgroundColor=none;rounded=0;html=1;whiteSpace=wrap;fontFamily=Helvetica;fontSize=12;fontColor=default;" vertex="1" parent="2ktrdMOb3Cd3oE9HsooV-56">
          <mxGeometry x="20.76" y="86.85" width="508.49" height="320" as="geometry" />
        </mxCell>
        <mxCell id="2ktrdMOb3Cd3oE9HsooV-124" style="edgeStyle=orthogonalEdgeStyle;shape=connector;rounded=0;orthogonalLoop=1;jettySize=auto;html=1;entryX=0.016;entryY=0.519;entryDx=0;entryDy=0;entryPerimeter=0;strokeColor=default;align=center;verticalAlign=middle;fontFamily=Helvetica;fontSize=12;fontColor=default;labelBackgroundColor=default;startSize=8;endArrow=classic;endSize=8;startArrow=classic;startFill=1;jumpStyle=arc;" edge="1" parent="1" source="2ktrdMOb3Cd3oE9HsooV-67" target="2ktrdMOb3Cd3oE9HsooV-99">
          <mxGeometry relative="1" as="geometry" />
        </mxCell>
        <mxCell id="2ktrdMOb3Cd3oE9HsooV-125" style="edgeStyle=orthogonalEdgeStyle;shape=connector;rounded=0;orthogonalLoop=1;jettySize=auto;html=1;entryX=0.008;entryY=0.524;entryDx=0;entryDy=0;entryPerimeter=0;strokeColor=default;align=center;verticalAlign=middle;fontFamily=Helvetica;fontSize=12;fontColor=default;labelBackgroundColor=default;startSize=8;endArrow=classic;endSize=8;startArrow=classic;startFill=1;jumpStyle=arc;" edge="1" parent="1" source="2ktrdMOb3Cd3oE9HsooV-100" target="2ktrdMOb3Cd3oE9HsooV-111">
          <mxGeometry relative="1" as="geometry" />
        </mxCell>
        <mxCell id="2ktrdMOb3Cd3oE9HsooV-126" style="edgeStyle=orthogonalEdgeStyle;shape=connector;rounded=0;orthogonalLoop=1;jettySize=auto;html=1;entryX=0.011;entryY=0.286;entryDx=0;entryDy=0;entryPerimeter=0;strokeColor=default;align=center;verticalAlign=middle;fontFamily=Helvetica;fontSize=12;fontColor=default;labelBackgroundColor=default;startSize=8;endArrow=classic;endSize=8;exitX=0.996;exitY=0.291;exitDx=0;exitDy=0;exitPerimeter=0;dashed=1;startArrow=classic;startFill=1;" edge="1" parent="1" source="Zcm5tQwCMB2YyKj0-IPv-27" target="2ktrdMOb3Cd3oE9HsooV-7">
          <mxGeometry relative="1" as="geometry">
            <Array as="points">
              <mxPoint x="600" y="714" />
              <mxPoint x="910" y="714" />
            </Array>
          </mxGeometry>
        </mxCell>
        <mxCell id="2ktrdMOb3Cd3oE9HsooV-127" value="Репликация" style="edgeLabel;html=1;align=center;verticalAlign=middle;resizable=0;points=[];fontSize=12;fontFamily=Helvetica;fontColor=default;labelBackgroundColor=default;" vertex="1" connectable="0" parent="2ktrdMOb3Cd3oE9HsooV-126">
          <mxGeometry x="-0.195" y="1" relative="1" as="geometry">
            <mxPoint as="offset" />
          </mxGeometry>
        </mxCell>
        <mxCell id="2ktrdMOb3Cd3oE9HsooV-131" style="edgeStyle=orthogonalEdgeStyle;shape=connector;rounded=0;orthogonalLoop=1;jettySize=auto;html=1;entryX=-0.012;entryY=0.308;entryDx=0;entryDy=0;entryPerimeter=0;strokeColor=default;align=center;verticalAlign=middle;fontFamily=Helvetica;fontSize=12;fontColor=default;labelBackgroundColor=default;startSize=8;endArrow=classic;endSize=8;startArrow=classic;startFill=1;dashed=1;exitX=0.998;exitY=0.306;exitDx=0;exitDy=0;exitPerimeter=0;" edge="1" parent="1" source="2ktrdMOb3Cd3oE9HsooV-7" target="2ktrdMOb3Cd3oE9HsooV-24">
          <mxGeometry relative="1" as="geometry">
            <Array as="points">
              <mxPoint x="1140" y="716" />
              <mxPoint x="1440" y="716" />
            </Array>
          </mxGeometry>
        </mxCell>
        <mxCell id="2ktrdMOb3Cd3oE9HsooV-132" value="Репликация" style="edgeLabel;html=1;align=center;verticalAlign=middle;resizable=0;points=[];fontSize=12;fontFamily=Helvetica;fontColor=default;labelBackgroundColor=default;" vertex="1" connectable="0" parent="2ktrdMOb3Cd3oE9HsooV-131">
          <mxGeometry x="-0.0726" y="1" relative="1" as="geometry">
            <mxPoint as="offset" />
          </mxGeometry>
        </mxCell>
        <mxCell id="2ktrdMOb3Cd3oE9HsooV-137" style="edgeStyle=orthogonalEdgeStyle;shape=connector;rounded=0;orthogonalLoop=1;jettySize=auto;html=1;entryX=0.501;entryY=0.019;entryDx=0;entryDy=0;entryPerimeter=0;strokeColor=default;align=center;verticalAlign=middle;fontFamily=Helvetica;fontSize=12;fontColor=default;labelBackgroundColor=default;startSize=8;endArrow=classic;endSize=8;" edge="1" parent="1" source="2ktrdMOb3Cd3oE9HsooV-134" target="Zcm5tQwCMB2YyKj0-IPv-27">
          <mxGeometry relative="1" as="geometry">
            <Array as="points">
              <mxPoint x="1015" y="650" />
              <mxPoint x="425" y="650" />
              <mxPoint x="425" y="686" />
            </Array>
          </mxGeometry>
        </mxCell>
        <mxCell id="2ktrdMOb3Cd3oE9HsooV-138" style="edgeStyle=orthogonalEdgeStyle;shape=connector;rounded=0;orthogonalLoop=1;jettySize=auto;html=1;strokeColor=default;align=center;verticalAlign=middle;fontFamily=Helvetica;fontSize=12;fontColor=default;labelBackgroundColor=default;startSize=8;endArrow=classic;endSize=8;exitX=0.497;exitY=0.979;exitDx=0;exitDy=0;exitPerimeter=0;" edge="1" parent="1" source="2ktrdMOb3Cd3oE9HsooV-134" target="2ktrdMOb3Cd3oE9HsooV-24">
          <mxGeometry relative="1" as="geometry">
            <Array as="points">
              <mxPoint x="1015" y="650" />
              <mxPoint x="1580" y="650" />
            </Array>
          </mxGeometry>
        </mxCell>
        <mxCell id="2ktrdMOb3Cd3oE9HsooV-152" value="&lt;div style=&quot;&quot;&gt;&lt;font face=&quot;Arial&quot;&gt;&lt;span style=&quot;font-size: 22.58px;&quot;&gt;Хранилище&lt;/span&gt;&lt;/font&gt;&lt;/div&gt;" style="verticalAlign=middle;align=center;overflow=width;vsdxID=5;fillColor=#e3ebff;gradientColor=none;shape=stencil(vVNBDsIgEHwNRwxCjHqu+g9iaUtEaBa09fdSwdpi9dBDb8vOwOwsGcQyW/FaIEqsA3MRjcxdhdgBUSp1JUA6XyF2RCwrDIgSzE3n4VzzjtlVV3PvXmjDPdLdoOQRTrvtavNqnAKXw9mDELkBIhDJaxrJZIy/YRLfbjFvpcVgHHfS6JGu4lAK7GVwoXg5gmwjRP3VjoMpqQcm9tPKs0z0Y6crWcBHqt0PN8tJspXFfmNKdpaBH8tYwML/VPjiE6dCKhXSOMTT+PlWiC47PgE=);strokeColor=none;spacingTop=-3;spacingBottom=-3;spacingLeft=-3;spacingRight=-3;points=[];labelBackgroundColor=none;rounded=0;html=1;whiteSpace=wrap;container=0;" vertex="1" parent="1">
          <mxGeometry x="760" y="1320" width="390.22" height="60" as="geometry" />
        </mxCell>
        <mxCell id="2ktrdMOb3Cd3oE9HsooV-158" style="edgeStyle=orthogonalEdgeStyle;shape=connector;rounded=0;orthogonalLoop=1;jettySize=auto;html=1;strokeColor=default;align=center;verticalAlign=middle;fontFamily=Helvetica;fontSize=12;fontColor=default;labelBackgroundColor=default;startSize=8;endArrow=classic;endSize=8;" edge="1" parent="1" source="2ktrdMOb3Cd3oE9HsooV-154" target="2ktrdMOb3Cd3oE9HsooV-152">
          <mxGeometry relative="1" as="geometry">
            <Array as="points">
              <mxPoint x="650" y="1005" />
              <mxPoint x="650" y="1280" />
              <mxPoint x="955" y="1280" />
            </Array>
          </mxGeometry>
        </mxCell>
        <mxCell id="2ktrdMOb3Cd3oE9HsooV-167" style="edgeStyle=orthogonalEdgeStyle;shape=connector;rounded=0;orthogonalLoop=1;jettySize=auto;html=1;strokeColor=default;align=center;verticalAlign=middle;fontFamily=Helvetica;fontSize=12;fontColor=default;labelBackgroundColor=default;startSize=8;endArrow=classic;endSize=8;" edge="1" parent="1" source="2ktrdMOb3Cd3oE9HsooV-164" target="2ktrdMOb3Cd3oE9HsooV-152">
          <mxGeometry relative="1" as="geometry">
            <Array as="points">
              <mxPoint x="1720" y="1015" />
              <mxPoint x="1720" y="1280" />
              <mxPoint x="955" y="1280" />
            </Array>
          </mxGeometry>
        </mxCell>
        <mxCell id="2ktrdMOb3Cd3oE9HsooV-169" style="edgeStyle=orthogonalEdgeStyle;shape=connector;rounded=0;orthogonalLoop=1;jettySize=auto;html=1;strokeColor=default;align=center;verticalAlign=middle;fontFamily=Helvetica;fontSize=12;fontColor=default;labelBackgroundColor=default;startSize=8;endArrow=classic;endSize=8;" edge="1" parent="1" source="2ktrdMOb3Cd3oE9HsooV-160" target="2ktrdMOb3Cd3oE9HsooV-152">
          <mxGeometry relative="1" as="geometry">
            <Array as="points">
              <mxPoint x="1170" y="1004" />
              <mxPoint x="1170" y="1174" />
              <mxPoint x="955" y="1174" />
            </Array>
          </mxGeometry>
        </mxCell>
      </root>
    </mxGraphModel>
  </diagram>
</mxfile>
